<?xml version="1.0" encoding="utf-8"?><svg version="1.1" xmlns="http://www.w3.org/2000/svg" xmlns:xlink="http://www.w3.org/1999/xlink" width="105" height="73" viewbox="0 0 105 73">
  <g style="fill: none; stroke-linecap: round;stroke-linejoin: round; stroke-width: 0.75; stroke: #09f;">
  </g>
  <g style="fill: none; stroke-linecap: round;stroke-linejoin: round; stroke-width: 0.25; stroke: #000;">
    <path d="M 43.443555491818266 48.200530972270435 L43.941166724974416 49.025529630064845"/>
    <path d="M 43.128742778009475 23.35601164923658 L43.350175575509205 23.798969986845133"/>
    <path d="M 64.4639940518573 37.43984126166218 L63.707512445574935 37.875882329660854"/>
    <path d="M 57.09907913182541 32.13305084524121 L55.98057363375435 33.21940127201325"/>
    <path d="M 51.00832792786158 36.63781373136452 L50.9537339494859 35.81315672044546"/>
    <path d="M 53.09405920571906 50.52009301297033 L53.72704835708704 50.27311705519657"/>
    <path d="M 56.320948767104 24.450197235280722 L56.636490164460184 22.405817457800513"/>
    <path d="M 68.51985804899782 45.88255756495609 L68.59062760855745 45.614023393257796"/>
    <path d="M 59.08365387905698 36.6058844237639 L59.312243245908576 37.642482925449585"/>
    <path d="M 43.82121181025306 51.232854465336615 L43.24418543603541 52.412500453100066"/>
    <path d="M 68.2163520943631 32.56908777915438 L68.993182988953 33.21235034775665"/>
    <path d="M 43.659188681551335 47.548449200673694 L43.48764933191345 48.44010111081915"/>
    <path d="M 55.3569608511745 47.59076867072535 L55.20080148351449 47.36427507276166"/>
    <path d="M 65.61755814752524 31.57609261186111 L66.51026492666887 30.49547900611468"/>
    <path d="M 48.23903466432921 47.33316245614579 L48.6551855994947 47.68674797341607"/>
    <path d="M 39.452764829474305 54.10934774624952 L39.01835076360669 52.40555584113104"/>
    <path d="M 38.10618636693231 32.30364903428145 L38.35004978058432 32.28148128990887"/>
    <path d="M 62.92055663515393 31.43087464333665 L63.71016823609054 29.94883950059682"/>
    <path d="M 53.84133228291996 45.6578739501869 L53.76002185837407 45.70869637039901"/>
    <path d="M 35.494786223678496 51.97711138799346 L37.173449373055696 51.26338631407546"/>
    <path d="M 46.34670092909146 32.52369578906759 L46.02051545664896 31.92577226477316"/>
    <path d="M 56.88026992554107 29.416648952786083 L56.29768930154948 31.15605535615726"/>
    <path d="M 53.698064008878866 24.1177085250302 L52.30091841646556 25.123424494229464"/>
    <path d="M 46.328627849955694 24.024220807148595 L47.1861696535677 23.65072473936533"/>
    <path d="M 36.958981590218464 22.333125254858004 L36.98699231883264 22.6311839938313"/>
    <path d="M 46.6091380689905 38.22101927011309 L46.889147590597624 38.13167576441836"/>
    <path d="M 64.04852051130422 24.156546400638543 L62.23234528875892 24.954081312615404"/>
    <path d="M 51.09278518906485 42.008986761964344 L51.30620217459556 42.06159463577428"/>
    <path d="M 56.23682097250251 42.88697714522884 L55.958473077967646 43.00088375407719"/>
    <path d="M 46.10739113329935 50.46383939554468 L47.010214629909235 50.12838685750222"/>
    <path d="M 52.659270122483434 20.421185993488944 L54.15437109743797 20.826224176293838"/>
    <path d="M 47.26925878241685 32.746493970012864 L48.02524958982877 33.007928145275"/>
    <path d="M 62.60555082586304 26.039422817411218 L64.54887586195292 25.98499171909471"/>
    <path d="M 61.0048791078944 47.658017160061775 L60.74501623516888 47.62689094037944"/>
    <path d="M 65.74951928499065 21.75667132482542 L64.1465296771401 22.108154905567588"/>
    <path d="M 61.45853179374439 36.42402553607859 L61.274711203844525 37.464984783107056"/>
    <path d="M 50.58959491942602 35.81133656249 L50.861551774913806 36.57430774807827"/>
    <path d="M 62.699291090239974 28.832528281292447 L63.41072247396732 27.036188263941504"/>
    <path d="M 59.28298581766845 47.55806118054863 L59.50439358483274 47.47208031956456"/>
    <path d="M 43.96301806142667 33.694209801599044 L43.63710140793125 33.62022906276893"/>
    <path d="M 43.06406965756686 32.21466587831421 L43.21240580487408 31.905608145172494"/>
    <path d="M 52.99691131653181 27.43781879237034 L51.43908622652144 27.02918179797886"/>
    <path d="M 46.27308409978723 42.8301807186449 L46.29929936360485 42.65490461022273"/>
    <path d="M 45.875745760933086 26.897099349401003 L46.0646429743598 27.714909543858326"/>
    <path d="M 48.51132434818689 49.211469577711135 L48.59331787549675 49.9843649841468"/>
    <path d="M 59.214671685276805 53.86853806729109 L59.44372253527133 52.92336785849091"/>
    <path d="M 37.33712978516385 41.2210660071158 L37.97393204545635 40.73330623412709"/>
    <path d="M 61.15643716007147 22.56103782173554 L60.50889208058803 24.63349793626037"/>
    <path d="M 51.77043905347462 27.027363210691128 L50.31584869377575 26.787906817659113"/>
    <path d="M 66.72287773331371 50.533606481299934 L67.32191941991792 50.0981870219102"/>
    <path d="M 67.25330559650462 39.45947569156235 L67.63754741660563 39.72698092165414"/>
    <path d="M 41.461171381586915 46.5110024509533 L40.89808105320393 47.31683063125706"/>
    <path d="M 35.80055064531111 31.14978806024249 L35.26958025682638 31.13191906032767"/>
    <path d="M 52.35127773035756 32.92495291929685 L53.195033090373904 31.88941698183921"/>
    <path d="M 54.11018081421511 37.79509266774158 L54.58958020275173 38.46613570346674"/>
    <path d="M 66.87190600309964 30.20038364992683 L65.5514072902007 30.74512811591791"/>
    <path d="M 42.02888531417705 41.43549023433859 L42.33324270932189 41.71239850945682"/>
    <path d="M 61.760133459287616 52.59758582332951 L62.52928779427738 53.112074546654455"/>
    <path d="M 45.26750760344466 40.0351695254064 L45.26602132855758 40.03629082658503"/>
    <path d="M 61.084996114807815 45.27443674163142 L61.053974269493715 45.270596997908385"/>
    <path d="M 36.69231553334976 30.950474722038777 L36.72651403302729 30.574437186583793"/>
    <path d="M 55.26024160245965 31.905032417278985 L54.98707942930272 33.368280900099116"/>
    <path d="M 46.320828927072675 28.894748735864347 L46.682812375255416 28.093895759091957"/>
    <path d="M 54.76404024590344 24.30178773173443 L56.398906169149704 23.157239803502613"/>
    <path d="M 59.24971350798594 27.673903377775822 L57.13997337724147 26.858442554859828"/>
    <path d="M 68.6846882839892 40.59787440893377 L68.72458392815926 40.30655610398224"/>
    <path d="M 55.71549513226437 44.974139807249394 L55.67337143134146 44.96991372823329"/>
    <path d="M 41.55322265377445 36.680819917332805 L41.60996670534198 36.60765256827023"/>
    <path d="M 50.658688756767646 28.637052140936092 L49.37041856925907 28.45496539913347"/>
    <path d="M 59.322830652567376 53.20026042986449 L60.21600158957352 52.93337432469446"/>
    <path d="M 65.61961129843586 37.46970692096576 L64.80036933616084 37.25096304632008"/>
    <path d="M 55.00397706643007 42.557747581530116 L54.864772978048464 42.2515156388525"/>
    <path d="M 57.88921440410972 45.8051766879248 L57.88554719340043 45.835355622439124"/>
    <path d="M 56.0163083450736 51.60241531184533 L55.75067955284969 52.380348647239465"/>
    <path d="M 41.31862724252911 33.1823173266721 L41.390025915639775 33.22290081974702"/>
    <path d="M 49.875981908726445 39.64763698935947 L49.503156729177775 39.53007179327146"/>
    <path d="M 41.89383769819331 48.88475380566248 L42.56153612401933 49.812822785052056"/>
    <path d="M 54.975728025930884 32.495012662364296 L56.51626225442249 32.31783162805771"/>
    <path d="M 41.90936067678117 51.583278786983975 L40.856821590829206 50.68100166564705"/>
    <path d="M 40.81831276114069 20.416658736242784 L40.94212107393599 20.395966338317148"/>
    <path d="M 50.042177287486474 29.588127916081902 L49.457051448675834 30.633320654777535"/>
    <path d="M 65.16017530955826 47.73644382394172 L65.11728345924332 48.12196787009396"/>
    <path d="M 41.28450159472143 42.94327714144503 L41.01658573780644 43.53384991086299"/>
    <path d="M 36.917533240883024 36.74488088502107 L37.464454940655834 36.57658524054623"/>
    <path d="M 65.56385626424728 22.73681379590766 L67.0370959729141 22.33692729284417"/>
    <path d="M 69.11689116615011 41.76350559163049 L68.99412706611551 41.70758665831303"/>
    <path d="M 48.914570013685186 32.971671384388394 L48.06185810821513 32.71617261019835"/>
    <path d="M 54.39169357675516 53.8201604335407 L54.78004950763304 52.88396825998587"/>
    <path d="M 53.422093673708524 38.28318809062684 L52.723552936695036 37.98134428007235"/>
    <path d="M 66.23406199197464 25.804694559263687 L64.73917739636843 26.62280262438889"/>
    <path d="M 53.968241123194716 33.205867706748286 L54.259356321472424 34.46781438996836"/>
    <path d="M 60.646911942121925 23.78253063014495 L61.068827855210635 21.741615758329413"/>
    <path d="M 60.402813173377545 42.722334669709376 L60.7536681222496 42.646171393521705"/>
    <path d="M 37.509418187592516 20.75145563784239 L37.76322477236148 20.708572909310057"/>
    <path d="M 35.25453768002277 45.23594169209709 L36.270420859118865 46.12763340584966"/>
    <path d="M 43.13854910609234 25.542902230302854 L43.20773121909302 26.041198568431273"/>
    <path d="M 56.19973837994858 46.795978095202464 L56.26911936543839 46.96516277457177"/>
    <path d="M 37.98900067479932 24.143626040710732 L38.13112485718454 24.151189197340127"/>
    <path d="M 63.720550657935945 32.76864950673094 L64.89223883560115 31.932192611834356"/>
    <path d="M 56.95867805592795 42.770391970058775 L57.27784112338708 42.870724152350554"/>
    <path d="M 53.46097223102674 43.545044368315445 L53.50846620846094 43.393505514480836"/>
    <path d="M 62.11056149698351 23.65997700828608 L62.185543312311694 21.68675667589498"/>
    <path d="M 49.678507823620315 49.935770327124175 L50.270908238574044 50.440934618816215"/>
    <path d="M 67.37452382241501 22.05543299818823 L67.57859472895451 23.439310383658444"/>
    <path d="M 64.87610983752589 21.98522693150404 L64.61949179340834 23.68433674154743"/>
    <path d="M 63.646815873681284 34.56457641851637 L64.00112536780189 33.30644715736804"/>
    <path d="M 57.825531744067476 44.562865932327774 L57.7787919761313 44.43779901196127"/>
    <path d="M 65.76087030078094 26.905767946829528 L65.89965021509789 28.524267261381638"/>
    <path d="M 68.45263566794766 43.42556919458554 L68.45265694175045 43.43795882103466"/>
    <path d="M 64.18695875198 26.199670304739367 L62.490741868674434 27.180088257295257"/>
    <path d="M 42.920501892340056 31.792283910697243 L42.756875269615534 32.06042378540216"/>
    <path d="M 65.44149552259518 42.24865776689278 L65.66894559208492 42.082464993672474"/>
    <path d="M 64.83397660368718 33.3554636500614 L65.1758955603475 34.534126885179354"/>
    <path d="M 57.78971596710704 28.191302145992452 L58.83576863418776 26.167095843739034"/>
    <path d="M 59.13638606063603 20.247546757416426 L60.49231001609775 19.1339113900214"/>
    <path d="M 36.59898148590293 40.846105629394216 L37.11578613072901 40.17015240378605"/>
    <path d="M 48.61300801216074 45.911651868055394 L48.30003722874225 45.73825626534035"/>
    <path d="M 38.96886775279982 50.337694010521126 L38.642258590748646 51.88024451011966"/>
    <path d="M 53.09122995712562 46.72652041085141 L53.288314036997605 46.88231182673894"/>
    <path d="M 63.87545021617071 24.60673623505709 L61.989669533593265 23.946232434777436"/>
    <path d="M 39.008913625109926 40.20527620443668 L38.83874876875326 39.63375036806084"/>
    <path d="M 53.3380808710437 32.250104322494145 L54.328093512070836 31.135318321707615"/>
    <path d="M 68.38462789896958 31.326231025209424 L68.39127099693788 30.146766318401248"/>
    <path d="M 44.058929495075155 30.958667124245647 L44.34452403357283 31.37762484904636"/>
    <path d="M 38.78994866304168 38.78578902675941 L38.35084261783724 39.14277877594477"/>
    <path d="M 40.26336097084442 41.43010074307156 L40.17472079696492 40.87610013269625"/>
    <path d="M 42.56239213166424 29.9604599854307 L42.90391279807518 30.115485244065713"/>
    <path d="M 55.76214101234814 45.00998911071504 L55.75092002279757 44.970065864252504"/>
    <path d="M 36.08064194255984 49.24480845154275 L35.949266664625405 50.94993517261699"/>
    <path d="M 55.547234785752224 53.008718767443625 L56.121311594800844 53.82727797958391"/>
    <path d="M 51.07166044822841 29.335940269929182 L50.20048225729844 28.286955059855444"/>
    <path d="M 43.046806312616354 27.697032711416668 L43.497863901991494 27.480503101479528"/>
    <path d="M 52.53061435763772 42.440874141546054 L52.39059963327708 42.23514639876391"/>
    <path d="M 59.404192310907526 39.50019581415394 L59.57924258916275 40.198927157513026"/>
    <path d="M 45.9139348526651 21.461325812829507 L46.71969018852382 21.594612415416684"/>
    <path d="M 58.213495580289184 43.98237065851785 L58.178694956720314 43.770846683962134"/>
    <path d="M 60.100081058949186 27.005635456257625 L62.06367712247864 27.9193131789046"/>
    <path d="M 61.10914588759257 26.760307023641907 L61.52244135926532 24.570057194109076"/>
    <path d="M 40.98213374080819 39.613396466535 L41.08491679436019 39.97438001604902"/>
    <path d="M 55.7973108362785 35.990799028495466 L56.94288789700305 36.10100355985194"/>
    <path d="M 36.80638769466418 32.37270912065895 L37.192857066577446 32.45919076817755"/>
    <path d="M 61.018348600600234 46.299784788927646 L61.1076730092887 46.26874439410518"/>
    <path d="M 41.585174364888324 47.46824840586451 L41.118771413821015 46.60519902640399"/>
    <path d="M 64.50645535860188 45.14482760051479 L64.53099827649676 45.126536882130694"/>
    <path d="M 38.39640005927547 20.574653945684926 L38.54605544839915 20.629690094746696"/>
    <path d="M 55.37931553480647 23.126042864635885 L53.86296865201037 24.24563756465907"/>
    <path d="M 44.74624189956957 33.46863274240683 L44.40445286762788 33.1931933528253"/>
    <path d="M 60.90468805897771 50.23400047406984 L60.777947627002874 49.69772617643576"/>
    <path d="M 43.07754329677533 22.896830364510333 L42.84292540667927 22.519657361789985"/>
    <path d="M 51.51266564687121 21.30589202763741 L51.505557276446936 19.94641333455201"/>
    <path d="M 63.21919190283624 46.4868049015028 L63.28067859460107 46.64351666386208"/>
    <path d="M 64.05530412914156 49.63616654290073 L64.42467143876915 49.2357789357772"/>
    <path d="M 68.04014240808148 38.4497375765188 L67.6349323762416 38.02865116768842"/>
    <path d="M 54.58054780431669 24.19879293978536 L55.830131152364665 22.71718402344165"/>
    <path d="M 63.09963604863919 48.796227328791595 L63.538205985180774 48.748880463848955"/>
    <path d="M 66.90064755285823 37.014190671054465 L66.82380026963548 36.196101349647975"/>
    <path d="M 59.79504558311366 42.75607552944527 L59.70310402043857 42.38820117606727"/>
    <path d="M 68.43469311724492 20.274351820817785 L68.93798272439001 21.32418820184556"/>
    <path d="M 57.88147346035014 34.30322364009531 L57.0593311009553 35.34851925465695"/>
    <path d="M 48.29257642099011 42.24431968048621 L48.30802705969749 42.23342026598193"/>
    <path d="M 37.09148886632794 25.72228257441123 L37.32508533522711 25.657454288294822"/>
    <path d="M 44.40804416331208 27.822357366245082 L43.86786901246236 28.086216307591446"/>
    <path d="M 56.647643301440255 35.098446000222424 L56.598982799255865 36.29830340668417"/>
    <path d="M 40.896175269524754 52.56139264434727 L41.755054449705504 51.361184850639866"/>
    <path d="M 66.03090140909903 51.21769714630197 L65.75035397926074 50.504665840085906"/>
    <path d="M 42.490545202991186 34.31212549180306 L42.3993626116776 34.42225644042121"/>
    <path d="M 55.49326011504135 42.71326956991156 L55.38830282688761 42.3977740255675"/>
    <path d="M 57.13670170587202 26.28932155828889 L56.85809062908182 24.08094937743833"/>
    <path d="M 51.50080733286656 35.56477256038118 L51.247567385611305 34.63110251451386"/>
    <path d="M 45.40743739629401 28.204515115853074 L45.20839120242173 28.908347782941473"/>
    <path d="M 53.12462479037013 33.18212257739791 L51.90720584695705 32.8689744042474"/>
    <path d="M 56.527888909892035 21.56711283949901 L54.77404278810652 22.186663401439255"/>
    <path d="M 50.34804138744229 33.70241344099934 L49.49844551375049 33.19970206164939"/>
    <path d="M 38.84562618405431 30.054946748945447 L38.93766014110247 30.058924272923967"/>
    <path d="M 61.37162818534885 46.232064940242765 L61.355968419324164 46.14696619439239"/>
    <path d="M 60.83539535399788 39.778172907697666 L60.90768215967594 40.449343803094166"/>
    <path d="M 62.46775820269805 25.065428140480165 L64.22167754612771 24.188391792188895"/>
    <path d="M 36.80112409606442 31.20239103315375 L37.155912916471245 31.25412811183642"/>
    <path d="M 64.00650458425694 39.25658849459171 L64.68094009407689 39.162896043775845"/>
    <path d="M 43.33802377542279 48.896396129114855 L43.949781713673524 48.15915637176523"/>
    <path d="M 42.62871010446262 19.827469288439787 L42.75348929901562 20.12815213079608"/>
    <path d="M 59.81370698527203 41.38853320509635 L60.092683126205806 40.90768438589396"/>
    <path d="M 64.70539880568289 27.03384488597084 L64.703094165537 25.23142337050896"/>
    <path d="M 58.0594103295131 26.81035310611733 L55.95513877011936 27.362243817070624"/>
    <path d="M 54.85520550759156 29.681520317154167 L53.8938719085055 31.033652177508145"/>
    <path d="M 67.65834513978567 39.220160442159376 L67.14718098639 39.21507294016346"/>
    <path d="M 48.049776341112384 34.631889863038765 L47.88663778908671 33.917827173391686"/>
    <path d="M 58.32697214651703 20.269154772433303 L56.986695629293955 21.59542416656516"/>
    <path d="M 44.39737642640733 28.23243283667566 L44.58846123236325 28.835086031465206"/>
    <path d="M 36.278997852421035 51.06043501100864 L35.658047210156944 49.44742859919092"/>
    <path d="M 51.62641560390858 49.46759060685112 L52.06509068401297 49.942314549944015"/>
    <path d="M 54.857080915064955 35.56586789144518 L53.78737935117351 35.83356240335364"/>
    <path d="M 69.22609046248293 39.66704387654466 L69.50859163661362 39.482314864092096"/>
    <path d="M 49.42249212507863 28.0502383296093 L49.38103799802145 26.789833327107985"/>
    <path d="M 54.18792385287025 28.64015773014246 L54.91721411264178 26.923624875080908"/>
    <path d="M 59.51679986446405 41.90495748758842 L59.979298552720735 41.90557097865489"/>
    <path d="M 68.90954448547585 19.31892624451232 L69.05049768816765 20.384947878971836"/>
    <path d="M 67.29862724767052 48.75677537701386 L66.90588294139276 48.39047733253552"/>
    <path d="M 55.24528972652582 20.580302666133267 L56.13004266527468 19.173049757936123"/>
    <path d="M 37.27253810392732 31.627961181971276 L37.58842855550637 31.656806401592558"/>
    <path d="M 69.3217272275435 33.7358549324858 L69.67111184544868 34.484831597627796"/>
    <path d="M 54.45065158417109 45.78310820787993 L54.49029256738188 45.86709137048006"/>
    <path d="M 54.50655766522786 48.37337857113867 L54.39072339822948 48.78747292718883"/>
    <path d="M 60.59968859238199 41.1731632955994 L60.18677079973461 40.77443078902795"/>
    <path d="M 59.74797926061735 51.57425476105051 L59.66805646590205 52.365143825229055"/>
    <path d="M 39.50980134088971 34.33141038734335 L39.41115020405279 34.500216657869906"/>
    <path d="M 54.26940585949962 48.691847647750755 L53.84920228605264 48.893384238349775"/>
    <path d="M 66.46505832011434 41.896934554539605 L66.3435394441376 41.637224793726396"/>
    <path d="M 39.408183731688275 46.33666563761024 L38.9827249358238 45.37397389722828"/>
    <path d="M 49.929282250109 45.33718542440138 L49.95459342007095 45.12999885665664"/>
    <path d="M 59.20753584503331 40.82168234343248 L58.89887499514503 41.300151687198756"/>
    <path d="M 50.185082191132274 41.614264440098786 L50.18072998704377 41.811164704881584"/>
    <path d="M 50.362816874987054 51.20798340677881 L49.57200377595721 50.83037011796593"/>
    <path d="M 50.09999341770549 34.075815493284736 L50.47468473558274 33.13945990890731"/>
    <path d="M 39.870558096216406 30.562241077258534 L39.88152739337112 30.569002526876346"/>
    <path d="M 37.92290663822463 52.29127175555062 L36.48632715658391 53.49785931921979"/>
    <path d="M 39.18716933215299 37.28081272991405 L38.92488843762264 37.60128743792738"/>
    <path d="M 67.79909468181978 21.376831470786332 L69.0251229395663 21.453606584698374"/>
    <path d="M 55.618842752071494 33.57363665376249 L54.249684357906624 33.640726599060926"/>
    <path d="M 66.90904165209643 38.11147355271398 L67.434096281675 37.70302428020944"/>
    <path d="M 62.75160066909409 26.17197899719505 L64.58115368924 26.771005801297182"/>
    <path d="M 41.58156893097821 40.326332491360006 L41.62046587236793 39.98025298104801"/>
    <path d="M 51.19109607107029 21.39701750127342 L51.862841278410116 20.199556830435103"/>
    <path d="M 59.39918115902677 46.276849004825145 L59.338734710083 46.225229291549034"/>
    <path d="M 63.8610896009456 52.94268069223638 L63.41853474701461 53.859683603485976"/>
    <path d="M 48.02644214112912 51.57221054686031 L47.004348749871035 51.90294983660183"/>
    <path d="M 53.368621235162635 39.58718975400397 L53.0919896928649 39.01406694183157"/>
    <path d="M 44.52456499380407 27.037245054657728 L44.10515004661064 27.51315840022504"/>
    <path d="M 46.11839356753078 48.96947666860956 L46.844403825512366 49.40105594571193"/>
    <path d="M 68.52963374953212 45.42859935319564 L68.72439072825263 45.592686645207294"/>
    <path d="M 59.79100106743825 50.319539073915735 L59.32596451233869 49.993483206895945"/>
    <path d="M 47.32714607058407 39.9587377281075 L47.31476665123537 39.7739545071606"/>
    <path d="M 53.83837714026245 19.674774006351242 L54.54490481284111 21.11023782365787"/>
    <path d="M 51.091941072200015 32.994232196412725 L50.84339960751815 31.851100430189675"/>
    <path d="M 35.45434487251184 20.151682760083318 L35.96158855496809 20.181226095111853"/>
    <path d="M 37.98422675036938 45.19359689268004 L38.88935188085977 44.6804835556727"/>
    <path d="M 44.51517901401232 51.74978595597759 L43.511627929596884 52.609608034114466"/>
    <path d="M 36.564679143867636 38.00294750685186 L35.83107694765411 37.82599258120387"/>
    <path d="M 42.966158134471335 49.498536593403614 L41.85607157833336 49.845840094569"/>
    <path d="M 47.93260748283997 38.35538790872748 L47.642181283622094 38.113973473394495"/>
    <path d="M 43.34648034731526 47.87122481744646 L42.40503325758308 47.813460866134704"/>
    <path d="M 58.69338858095507 45.74518019072352 L58.676652791571186 45.74471235369967"/>
    <path d="M 53.17954063484387 43.02911120613632 L53.36031522283316 43.10980620973825"/>
    <path d="M 40.46448953446993 34.79342455764429 L40.38999244682373 34.871971888642584"/>
    <path d="M 55.583486353634 43.35411077234472 L55.822590263029596 43.3030864883742"/>
    <path d="M 53.87632492280533 50.691343760969524 L53.468810195093404 51.3167017095437"/>
    <path d="M 56.98428083023651 38.63871418419799 L57.032113035225 37.733815089307264"/>
    <path d="M 53.239541097170395 47.64080685443794 L53.48541758499129 47.4164020758307"/>
    <path d="M 49.18915814394804 44.19416956800698 L49.194867312728356 44.33655568182581"/>
    <path d="M 38.362223651839614 41.12185326381186 L38.8463873771901 41.67931950167778"/>
    <path d="M 51.595216198197235 47.709849564443545 L51.847204561027084 47.4050433796661"/>
    <path d="M 66.77417892337678 32.76960729335391 L65.8102351378854 33.49091622936468"/>
    <path d="M 53.30275506403213 51.42145277026408 L53.80183191313894 50.841436468831816"/>
    <path d="M 65.20069727638918 37.89620942595903 L64.38894442964636 37.85749022823093"/>
    <path d="M 53.47721755713222 30.802075076548885 L52.049337193388354 30.38270415029338"/>
    <path d="M 65.2261900074611 51.735301658009 L66.02616508606607 52.11861137974851"/>
    <path d="M 55.81760834863445 27.837737920760365 L57.30506937783832 29.195909867720555"/>
    <path d="M 50.770259313508454 27.117222173532134 L51.873690788837884 26.080398109489273"/>
    <path d="M 38.67119148058921 22.597694906988984 L38.74509177716188 22.559938548415367"/>
    <path d="M 41.286263135776686 30.06596175556042 L41.29181854621189 30.262320765409857"/>
    <path d="M 51.80728872355625 53.56459157495668 L50.84135274242163 53.045485079208376"/>
    <path d="M 62.84441540497678 22.450593163803546 L61.89813240978618 20.848088732038576"/>
    <path d="M 40.1624531813197 21.25136795090012 L40.20361123094832 21.19886243824099"/>
    <path d="M 46.43092482496513 28.990382763449922 L47.209834634887926 28.519980600834977"/>
    <path d="M 60.15585178070688 42.077533572721386 L59.76106905651662 41.85369199912916"/>
    <path d="M 69.12704044796999 29.829691130178503 L68.82580598140467 30.9238564693389"/>
    <path d="M 60.04100237678691 52.3562302209175 L59.208264973983 52.55087959971174"/>
    <path d="M 47.12225953090865 39.30858259151929 L46.92583150515662 39.21300817612494"/>
    <path d="M 59.46790429041738 47.608481086245675 L59.35418046669514 47.401376399097884"/>
    <path d="M 57.45947920937998 43.513510244710616 L57.21533696407478 43.560071413247"/>
    <path d="M 39.84371510645318 28.056684669960354 L39.904408261133504 28.0940675350242"/>
    <path d="M 49.84796600949145 20.55459107686986 L50.12810779202572 21.748441761927833"/>
    <path d="M 62.8648716557021 41.424652707963624 L62.392259263762554 41.32712179197954"/>
    <path d="M 68.27001330578895 30.82459342909633 L68.74648593484028 29.73102985956646"/>
    <path d="M 60.644657006639946 51.2868320281278 L60.94382021680404 51.984290571201036"/>
    <path d="M 43.054198981676905 43.115279756806665 L42.81128299225834 43.55491156587406"/>
    <path d="M 60.36595887653551 41.59533891462275 L60.286880170771035 41.0714242889153"/>
    <path d="M 37.36865887104083 39.82957308531559 L36.60727691417606 40.071717827151105"/>
    <path d="M 41.000590137387334 29.961532879862073 L40.87769132357616 29.856681644552612"/>
    <path d="M 62.46938760986307 51.49336676782139 L63.18362747118591 51.25647727850798"/>
    <path d="M 36.330614257243674 42.196858510422196 L36.752834279358446 41.3210927445087"/>
    <path d="M 53.76986307041007 44.99309351367399 L53.756028263740816 44.99254756354069"/>
    <path d="M 41.75758546385128 46.60119771703503 L41.97661031822779 47.51783354548625"/>
    <path d="M 44.44455078150411 30.929609251049243 L44.03132633136118 31.23690410298464"/>
    <path d="M 51.80383118783601 44.16143478788392 L51.798331409182566 44.16471796626203"/>
    <path d="M 36.936754729561876 21.781638498776715 L36.7014259050062 22.012292797309414"/>
    <path d="M 43.625700673681344 33.87240266039302 L43.90224009123428 34.019560731172334"/>
    <path d="M 58.826057730029554 21.41707526146064 L57.242569526530936 20.37801300190587"/>
    <path d="M 57.85429117561248 41.81935518886544 L57.638352592177476 41.37418419704864"/>
    <path d="M 67.23023209709132 22.907211681372356 L66.61398498996897 24.270031062701452"/>
    <path d="M 68.02689382384891 37.57706280401726 L67.4925603614716 37.158364966631126"/>
    <path d="M 41.01129916851144 43.63844751041454 L40.28480018613104 43.73138444662749"/>
    <path d="M 67.48793215659254 42.3020453732867 L67.45875911295252 42.45960511181569"/>
    <path d="M 49.69591793098852 32.36275787976946 L49.38076472926664 33.30926955359635"/>
    <path d="M 46.837236677915634 35.07757803616091 L46.37120461060858 35.32316725571824"/>
    <path d="M 44.45637056833876 43.71930302442821 L44.59950354415219 43.35546183061444"/>
    <path d="M 38.3791177851702 34.50898017844064 L38.56069666458752 34.260809796684825"/>
    <path d="M 57.893695380497505 45.64533769254932 L57.88918864667495 45.63857813114534"/>
    <path d="M 43.20755555689579 46.36453306553608 L43.75928512291177 45.89242529915032"/>
    <path d="M 66.9273375749581 41.48156112742502 L67.2045196654768 41.40367817851884"/>
    <path d="M 39.90099586963984 29.99360894978961 L39.88120524019513 30.01773074856103"/>
    <path d="M 67.14288820264596 49.87170482522303 L67.27952867869979 49.229079651449375"/>
    <path d="M 59.06889024686805 41.81562428333859 L58.617613299494934 41.635211750111225"/>
    <path d="M 54.484342595004556 38.213437159400634 L53.76569029774877 38.532459170048064"/>
    <path d="M 45.24908422352625 35.377154024931116 L45.01857794294506 35.080355834776185"/>
    <path d="M 62.589965299987156 29.08463556721832 L60.62146060231275 29.086773667844177"/>
    <path d="M 43.28067799791467 42.75482821008773 L43.62156353276895 42.993327602884825"/>
    <path d="M 48.566308165189945 35.04073702950442 L49.26086270679628 34.695816444483874"/>
    <path d="M 38.52091997521288 19.750836570113115 L38.69121572163928 19.751774334954156"/>
    <path d="M 56.103294510878634 33.28004579034322 L54.70831745287874 33.54140080771016"/>
    <path d="M 41.75303973316479 36.84920512396813 L41.70194960703032 36.77692407895057"/>
    <path d="M 45.29723626878037 19.921718665086328 L45.364731271302304 19.308376164169122"/>
    <path d="M 36.35459953173842 31.601438873281744 L36.00812951943664 31.295969402158796"/>
    <path d="M 48.02999095153028 31.15277025847841 L48.97237235400992 30.788366549808277"/>
    <path d="M 62.490521724638214 31.034253191674317 L62.40868227752797 32.65120734357715"/>
    <path d="M 47.71789799392583 33.734730311683904 L47.04401621112852 33.94391968187702"/>
    <path d="M 57.56246436375882 51.2414452065853 L58.19739583860711 50.970899086205236"/>
    <path d="M 52.16809680076363 39.58077381821365 L52.35922576833125 40.071180720951084"/>
    <path d="M 51.69325062713377 50.9741124377369 L52.26052573693827 50.46337911998591"/>
    <path d="M 60.396575466802254 21.512843313284435 L60.405734890179794 23.59944997397095"/>
    <path d="M 38.73304521959414 31.04721307241314 L38.75744427705106 31.18644002015161"/>
    <path d="M 68.2882884181757 26.942277405509536 L67.74502773725247 28.194327801020258"/>
    <path d="M 51.34618413661883 33.47680866493125 L51.85525413357993 34.44472765349297"/>
    <path d="M 46.33503719473732 46.95354394746542 L46.88949574850569 47.199693000171806"/>
    <path d="M 38.277084772598144 36.53276805541083 L37.812087331465335 36.47711111899196"/>
    <path d="M 59.28873983388268 53.03257323338942 L60.207075623552846 52.94577001290856"/>
    <path d="M 50.13198186819533 28.723783726966587 L49.51754970816649 29.810601827343774"/>
    <path d="M 38.53901923074852 24.380709216252434 L38.58983823895197 24.438967228565268"/>
    <path d="M 48.06076661545828 49.6077718453251 L48.799419374796855 49.38402168721074"/>
    <path d="M 67.8123698480711 19.41009578596944 L67.6445871549259 20.617501075856033"/>
    <path d="M 65.63102117394514 46.253417675265034 L65.70983846338693 46.07526154308281"/>
    <path d="M 49.77905465904697 48.775171715356805 L49.536357257770284 48.229775996042946"/>
    <path d="M 61.41100488821963 42.419647132151006 L61.300679842943644 42.762608672257834"/>
    <path d="M 68.03481011170923 38.73276805326553 L68.52203704249054 38.58201184052926"/>
    <path d="M 36.38592264532291 25.59453090618519 L36.04944933695303 25.739164555680382"/>
    <path d="M 56.666074538000174 44.739456985155805 L56.612377685841494 44.80540684836456"/>
    <path d="M 59.8808537575798 32.07147279166646 L59.06544666655007 30.476135350134534"/>
    <path d="M 39.25610158878142 30.085428049127586 L39.295588548477554 30.062434868156288"/>
    <path d="M 37.40582795072027 23.946432178774767 L37.53856537977915 24.11765568544033"/>
    <path d="M 62.838686135404274 48.1037289364955 L62.961349826655876 47.796456136923624"/>
    <path d="M 38.53307078057378 47.823706368565965 L39.33831288219841 46.918076364454336"/>
    <path d="M 65.90808847306083 28.486197004104792 L66.62342027499169 29.81221954868231"/>
    <path d="M 36.142069813907746 27.111681275079572 L36.054265083699185 27.49049966659256"/>
    <path d="M 62.52873326194914 44.029257536075384 L62.59623445867335 44.164155206854424"/>
    <path d="M 63.71203305793294 30.93789772034084 L62.4974566280015 32.00482336069481"/>
    <path d="M 60.55427435879399 20.79841627854813 L60.47472063701035 19.032984833822965"/>
    <path d="M 38.21105235117883 24.293208879052404 L38.28876037773528 24.38080645304819"/>
    <path d="M 40.34705097594872 52.1448145975925 L38.87137560534005 52.897016146151174"/>
    <path d="M 68.59979935425676 34.09367913088033 L68.15440267815748 34.87578107007468"/>
    <path d="M 49.39114959782377 30.307704218297726 L49.139721621958685 29.173780180797895"/>
    <path d="M 48.691228362094954 51.975504681226425 L47.72159432397718 52.48879999802401"/>
    <path d="M 57.1482727071619 25.274830442958546 L58.81150631518273 23.691162141344165"/>
    <path d="M 41.12321207141842 23.85847505311286 L41.116406447197846 24.09561068278391"/>
    <path d="M 69.1112023394398 29.169903598815417 L68.61510638645056 30.243106823502394"/>
    <path d="M 62.97369435857836 21.149569042256616 L61.35741927184319 20.38902374894674"/>
    <path d="M 68.04581869683032 32.67771893130508 L68.82414685530729 33.331584804414604"/>
    <path d="M 49.96506417239205 47.33348300535107 L50.33237611845867 47.60009019039626"/>
    <path d="M 45.42944470649072 20.02548418774174 L46.1169843476222 20.072502711113643"/>
    <path d="M 41.36873170149649 50.23392827664746 L42.6124837644031 50.44588756587443"/>
    <path d="M 44.33041798164095 29.559420192334077 L43.812835595519914 29.74301961692583"/>
    <path d="M 68.41938437678691 47.47119432752404 L68.68580517515586 47.89225844952495"/>
    <path d="M 52.823100819861644 37.969200891534854 L53.54632521492247 37.61496625946282"/>
    <path d="M 61.46231433356445 47.57630046067096 L61.56503405881142 47.833402081099614"/>
    <path d="M 66.08032150854075 46.413036077051444 L66.31204590548887 46.3470477228022"/>
    <path d="M 38.11448923147845 28.890380363556147 L38.01593522335599 29.02668779580631"/>
    <path d="M 51.61329283880807 25.81420561950607 L52.75887905507661 24.65675609511736"/>
    <path d="M 66.71634501925821 51.224888068156815 L66.44620826077055 52.066337255123756"/>
    <path d="M 58.7698001695011 37.60092866374019 L57.94085016995607 38.099894708858116"/>
    <path d="M 59.26146253098937 21.608601448257893 L61.00276668768195 20.769219793928137"/>
    <path d="M 44.14622993103223 21.43977141544345 L44.37250652391824 21.969257074966986"/>
    <path d="M 56.51903720140701 52.0359227982932 L57.28264353927079 52.3749475342575"/>
    <path d="M 65.54598367975132 20.69576414667344 L64.17382111856784 21.498075910424376"/>
    <path d="M 45.19753077798446 32.24129478245514 L45.45470283062287 32.75014081765413"/>
    <path d="M 49.044802176707044 23.692302801823484 L48.59106301156506 24.800501310131825"/>
    <path d="M 57.72396515984651 52.77682870631288 L57.15416068208361 53.535877755714004"/>
    <path d="M 47.85738899254521 51.706453862074184 L48.81656300150989 51.3850315950681"/>
    <path d="M 37.63262610517079 49.52331852228691 L37.97603065099022 51.063844055417626"/>
    <path d="M 63.10841877910474 30.15433751559008 L61.513777000428405 30.91962062339885"/>
    <path d="M 52.618448033498765 46.25383753227253 L52.79380420408532 46.36799093540573"/>
    <path d="M 40.06741817309413 42.48439115309581 L39.360657963897346 42.63612817614224"/>
    <path d="M 35.74558728233318 49.26158224979167 L36.41288203546629 47.84450802377424"/>
    <path d="M 48.16588455129258 25.987324729079514 L47.11505300948613 26.130564153605395"/>
    <path d="M 49.718782260206886 28.376041976263068 L51.044163002154086 28.614480801029814"/>
    <path d="M 67.5601275801922 48.08050431193756 L67.35261378172085 47.659596221257786"/>
    <path d="M 49.034727997942845 33.0833554599602 L50.00138928720164 33.19137874093157"/>
    <path d="M 55.06107739551895 30.949321729187147 L53.91556495298052 29.733414560739106"/>
    <path d="M 43.63193723470977 49.681249122986834 L43.444983075457884 48.66590404538862"/>
    <path d="M 48.67605943047615 52.674855873302384 L47.7070873108921 52.11937956139736"/>
    <path d="M 51.84309872281604 24.0270888756351 L51.791224023010145 22.490486962136487"/>
    <path d="M 36.82266374170636 51.04548419222768 L38.1122853645899 52.2021607636244"/>
    <path d="M 46.685234431292095 47.29734069048847 L46.102104543394425 47.608704374217425"/>
    <path d="M 35.76894612191393 51.85150446048813 L37.4907818048237 52.540167278634286"/>
    <path d="M 63.78704742486419 26.123967901638295 L62.06333672774199 25.05591621765248"/>
    <path d="M 63.63613409397292 25.616662599549223 L64.3711780943104 27.35068660711746"/>
    <path d="M 58.56839307310181 38.200379284694584 L59.38182616817273 37.6933161440495"/>
    <path d="M 40.67038556572135 44.46491363383294 L41.31693032855104 44.07742950304145"/>
    <path d="M 60.46574303240068 32.56862343710354 L60.61452458294541 34.08210197238793"/>
    <path d="M 66.71376019798699 43.73051728814345 L66.74810622943487 43.69817583619986"/>
    <path d="M 44.98241587808488 52.11758827757691 L45.79912226067488 53.113192033042914"/>
    <path d="M 43.822520101186356 43.51551464759549 L44.193652030104445 43.75531384840995"/>
    <path d="M 48.78919307043623 36.922016664415 L49.250142583560375 37.28348366478194"/>
    <path d="M 58.22396875548467 48.49732468023404 L58.39047730899315 48.19710534627735"/>
    <path d="M 66.9893760301204 40.35505503522859 L66.73081658932189 39.998574109240465"/>
    <path d="M 40.79580268437188 36.50611256855803 L40.95472005670062 36.50661415072906"/>
    <path d="M 69.0586299767601 44.24168267857446 L69.19343085650567 44.206544526167974"/>
    <path d="M 41.323004241821096 39.2388009988634 L41.079694050132616 39.04806058912017"/>
    <path d="M 57.52444411613963 52.912953638698355 L56.925825479317005 52.26753085056049"/>
    <path d="M 40.73712867231676 42.90995165902814 L41.349955572755604 43.08408878889104"/>
    <path d="M 60.88099200389188 33.76959287864887 L59.40663961605504 33.749875850291225"/>
    <path d="M 45.14606430898221 34.146422718696606 L45.61452387497166 34.04751189103185"/>
    <path d="M 45.534222489399006 41.47419441602973 L45.55681791026098 41.5889772128654"/>
    <path d="M 57.98361864231161 21.954129852311397 L57.27624332382656 20.189533296521006"/>
    <path d="M 38.65961321404244 23.55360567474738 L38.58266017335123 23.569737580630125"/>
    <path d="M 47.90246740900044 32.13103271361103 L47.11115688964476 31.84574207436662"/>
    <path d="M 59.76473602705493 50.46250327701036 L60.315017467353165 50.76194454630886"/>
    <path d="M 47.32745260152641 42.89051730093292 L47.24609063865224 42.809135935046605"/>
    <path d="M 35.78981494878821 52.99720985558848 L37.38489320374716 51.990234847390994"/>
    <path d="M 42.07162288305172 35.98186453311641 L42.07098206399098 35.97884210635411"/>
    <path d="M 56.79341054562562 34.44956959948393 L55.592904238460704 33.77830687859029"/>
    <path d="M 64.53974477934652 25.52958135236393 L63.03154306689378 24.350955465729374"/>
    <path d="M 64.61989898072207 25.551763805182254 L65.13752910938393 23.854368451604707"/>
    <path d="M 63.83994605402833 21.06474731121641 L63.9581515874776 22.80957367589843"/>
    <path d="M 54.83604181134121 22.29984746734603 L53.145265615770136 22.744453017246666"/>
    <path d="M 52.367628882743304 52.52374953481782 L53.301187389683264 52.37326679773529"/>
    <path d="M 58.2202539064564 20.260075291208114 L57.65355622909477 22.099962830585678"/>
    <path d="M 37.14204282559254 34.37153539162195 L36.732025340321925 34.12464999421472"/>
    <path d="M 60.782966265404134 36.495208842702574 L61.49350419884427 35.559317334058825"/>
    <path d="M 67.52568561539852 51.188635474626835 L67.69436013229335 50.386708755211714"/>
    <path d="M 56.36257870236479 23.98035489736937 L58.239865919163925 22.942102055195075"/>
    <path d="M 57.5231647259023 41.295305316209095 L58.05055343674956 41.344621888706826"/>
    <path d="M 60.51190263571653 31.68223598126271 L61.71867677983854 30.373453898342074"/>
    <path d="M 44.56959642716542 34.8611318142864 L44.60087031870195 35.192367448235906"/>
    <path d="M 38.96296128849599 37.79027993346664 L39.10570032028295 38.220013864253026"/>
    <path d="M 40.95580574968311 34.80893290313785 L40.97269563811541 34.766502231944365"/>
    <path d="M 50.63473089277544 45.47501028370043 L50.4932057781822 45.338722007709976"/>
    <path d="M 62.94659220158738 50.3615353194432 L63.581023456984525 50.345133249825885"/>
    <path d="M 48.36185970414777 49.82249222365746 L48.53411744920982 50.66117507182955"/>
    <path d="M 66.39943412848436 27.26227740978087 L67.70679782385278 27.9578080710099"/>
    <path d="M 38.19935260541587 42.77636086815204 L37.72926468903107 42.03398789299361"/>
    <path d="M 48.14079853028475 21.027376641410275 L47.5786953021074 20.251657364125702"/>
    <path d="M 52.49378991850457 48.178537961153346 L52.144433926385354 48.48537606459062"/>
    <path d="M 37.09464845137475 35.55672062891792 L37.15638342662608 35.05310494081427"/>
    <path d="M 64.54400766587456 28.154919483122242 L62.71341418836497 27.786788149758152"/>
    <path d="M 59.14576227610448 53.315659682288064 L58.55477077431706 52.61233346078803"/>
    <path d="M 54.12307410372977 48.57629904383347 L53.772117044681586 48.331715894796304"/>
    <path d="M 43.1050149564926 41.26281454277848 L43.181473120525176 40.98749386713707"/>
    <path d="M 63.976059043339106 35.38280481753926 L63.43145456567963 36.33692818626907"/>
    <path d="M 59.80269959605249 38.27993366163221 L58.90478638432117 38.028022463588066"/>
    <path d="M 38.06333422506995 31.155278353846132 L37.90267371128202 31.330132469153124"/>
    <path d="M 43.17962567664186 34.571856485675845 L43.0439979905163 34.41290423079757"/>
    <path d="M 64.72872903958415 34.26982900751568 L64.44126812571338 33.01407922466136"/>
    <path d="M 66.82843270123283 22.340323354960358 L68.11415052946893 21.865364365638033"/>
    <path d="M 57.003794537677514 50.72494178170159 L56.3533146379885 50.68893641649255"/>
    <path d="M 37.05186257280677 40.41267726539453 L37.794738951908215 40.6975378580802"/>
    <path d="M 52.01088422843157 50.39668968877621 L52.18252207465027 51.14255163074895"/>
    <path d="M 58.20028922919168 26.316505576701633 L56.22934789069255 25.215357764736165"/>
    <path d="M 58.35741402896734 25.307713330133126 L60.25661055873188 26.83880405425083"/>
    <path d="M 67.33920151586477 21.39281741989852 L67.66781590299038 22.71725914160338"/>
    <path d="M 69.05452415510241 38.46300354806488 L68.56415485543259 38.40801783717094"/>
    <path d="M 43.36843339459589 30.023764160963903 L43.59841733714111 29.61067969562578"/>
    <path d="M 45.49733034459904 40.76952386272729 L45.46867368378924 40.73011977317409"/>
    <path d="M 58.6746153253077 46.855942835277865 L58.83030985376713 46.863082529311534"/>
    <path d="M 48.74978006941234 49.3489390609532 L48.53695622771255 48.67603914641015"/>
    <path d="M 47.62936719395872 24.806608249820012 L46.72040487931134 25.227168308181465"/>
    <path d="M 36.22067019670277 51.47916554916894 L36.943212276121756 49.92101399425779"/>
    <path d="M 56.94696776456137 50.7042647790838 L57.454037110905325 51.14676436786549"/>
    <path d="M 67.68681260614491 44.0423766507989 L67.72410025393404 44.03122175558158"/>
    <path d="M 46.02543930453731 43.83321596820158 L45.858653008564566 43.58399797968881"/>
    <path d="M 49.27908736280373 47.12716127216574 L49.617565647110204 47.45032650663925"/>
    <path d="M 68.34686680651394 44.84316762093427 L68.51305600708555 44.821663002253274"/>
    <path d="M 60.939928843892744 48.2452429607089 L60.60825073049966 48.20899423710333"/>
    <path d="M 50.805896462871154 22.82929115316821 L51.698606003877835 24.004098074547063"/>
    <path d="M 50.69119866131632 41.05889722451447 L50.97275041160344 41.16714948883258"/>
    <path d="M 37.753082011282196 21.851491298430656 L37.91421170642878 21.721693115700294"/>
    <path d="M 45.89925145904465 34.69881459737692 L46.33330964358345 34.40352866561065"/>
    <path d="M 67.7633655344671 52.98947726155079 L67.40360262921679 52.031530560547495"/>
    <path d="M 45.510350516267366 42.413481858081944 L45.30349864025247 42.47433470618643"/>
    <path d="M 39.080370559668225 25.95335766001692 L39.07104297429136 25.95296876160208"/>
    <path d="M 56.531099386769846 33.973645093097666 L55.152310619985606 33.91117409050974"/>
    <path d="M 41.56212973128459 38.76797288028757 L41.47417404700986 39.01097750387164"/>
    <path d="M 35.873829843024275 33.08518734785014 L35.67378473266219 32.564797948584044"/>
    <path d="M 60.283371994708915 41.523798198687686 L60.60613743945095 41.8825992009012"/>
    <path d="M 55.004271850856064 50.13493642500394 L55.31393053935705 50.69462979170841"/>
    <path d="M 57.180194439803245 52.346929721267514 L56.3515803482791 52.18423790149754"/>
    <path d="M 44.697328481021806 36.44198135334711 L44.683738421640804 36.675190771793645"/>
    <path d="M 50.436401381231136 39.28220313018727 L49.98272520091443 39.18529612702707"/>
    <path d="M 55.752348373181896 24.415415147802847 L54.765210101111414 26.16886010942254"/>
    <path d="M 48.069224799378524 39.34055842436611 L48.279505644161226 39.54534429997146"/>
    <path d="M 51.95931051926121 33.664912336047614 L52.88021577638088 32.85374716572225"/>
    <path d="M 56.56245084247355 26.08358046531305 L54.829950461984495 24.953647818261313"/>
    <path d="M 64.75916515384812 24.364950835053396 L63.27873772643876 23.254598989799145"/>
    <path d="M 41.80299987880633 24.511958107303908 L42.001330979272524 24.237344393206346"/>
    <path d="M 37.56782787198906 22.770618985502438 L37.436055806040606 22.956069152042147"/>
    <path d="M 64.6323933052188 51.243443617873005 L63.97371415170703 50.8930060441431"/>
    <path d="M 69.04187647678705 48.639647256784606 L68.45982159955895 48.88722501677923"/>
    <path d="M 46.128827969710834 49.68827546804784 L46.5314321996531 50.55641217468547"/>
    <path d="M 43.74084171412975 34.90009823824386 L43.86807770253966 35.11681736927572"/>
    <path d="M 48.04132980204079 50.44895431750682 L48.17159438919592 51.39093969676556"/>
    <path d="M 40.158025129999594 39.598825382929675 L40.57176288548889 39.72156909621873"/>
    <path d="M 69.00441114023194 38.96034282101274 L68.915403887164 38.517378342850684"/>
    <path d="M 42.955621356152896 19.69894499339031 L42.82632246598863 19.394345256079706"/>
    <path d="M 50.264273577924115 42.37902853274797 L50.13944917220189 42.38107486842743"/>
    <path d="M 67.36486121181997 43.782408030225845 L67.36805412108674 43.78894409319802"/>
    <path d="M 37.57182545990693 30.92716258863752 L37.29166268389308 31.022360276250648"/>
    <path d="M 54.0284635277395 37.002067465724096 L54.83826904897702 36.4278897508553"/>
    <path d="M 63.96908722297029 49.28137778078062 L64.18499596098674 48.836594751236326"/>
    <path d="M 43.9569817409855 20.317278718578265 L43.534459560022256 20.1347356577146"/>
    <path d="M 65.44647011011534 39.7462782628913 L65.0366674714846 39.30563836101032"/>
    <path d="M 61.626658266103526 48.0713651662859 L61.944592071701074 48.015875091077916"/>
    <path d="M 53.503778352525615 33.08657986981093 L54.08034065274222 34.24235549450931"/>
    <path d="M 56.70543086345427 34.64698159565923 L55.397346140158874 34.617244823158074"/>
    <path d="M 37.624266692530945 39.789163050288366 L38.31015799879028 39.82629171836821"/>
    <path d="M 50.58475971035449 46.7896143506169 L50.47501697285418 47.1518151180569"/>
    <path d="M 56.561572550549485 48.22334682226615 L56.62465657419942 47.905427866539085"/>
    <path d="M 38.611336462395926 22.84872913714923 L38.51543084253356 22.840683235732346"/>
    <path d="M 52.6906028641443 35.09321829861059 L51.794502267220075 35.56044718597787"/>
    <path d="M 64.52227040912446 43.295797468125706 L64.67803025274755 43.38946510448127"/>
    <path d="M 56.46866818854308 28.538577511573656 L57.32457196919931 26.590420892797347"/>
    <path d="M 63.28598945676409 46.99976080767832 L63.35621608651153 46.80063039887535"/>
    <path d="M 47.49860875476668 25.549243227639092 L46.74523749708419 24.897757583976972"/>
    <path d="M 35.65753372591202 46.62874373996518 L36.90123331734 47.2935524232558"/>
    <path d="M 63.58491345284324 47.13632431723531 L63.58428967157471 46.90396434890809"/>
    <path d="M 67.88200889026731 24.858194281044902 L67.55884908523169 26.249521192393544"/>
    <path d="M 39.79327188714541 34.704566440309485 L39.86572848640941 34.556644570974505"/>
    <path d="M 64.0056582631492 35.81465576147254 L65.02421228956791 35.45825364286112"/>
    <path d="M 45.182270929967345 37.7917513357644 L45.061472463161195 37.652907156030935"/>
    <path d="M 67.08001142970039 21.83832147710006 L67.44370334261217 23.205220911665343"/>
    <path d="M 56.95432683912146 45.00462625368408 L57.008702553526994 45.0295931352577"/>
    <path d="M 47.186846385768874 50.35231013814054 L47.28105660871812 49.4747488301815"/>
    <path d="M 60.48611344975209 24.43270030033567 L61.30142756257404 26.563250602139885"/>
    <path d="M 63.28402583550176 49.37672351330756 L63.74933827851276 49.1743698237264"/>
    <path d="M 57.193464364563454 40.061599537414715 L57.75660444856649 40.40734893385717"/>
    <path d="M 67.49242261492492 43.638111177573755 L67.47458829089189 43.634715771576616"/>
    <path d="M 42.80424988184398 43.87615133514519 L42.2515402516726 43.70545877462944"/>
    <path d="M 54.077104508293615 51.81644091912937 L53.505982944815486 51.245195810562855"/>
    <path d="M 57.76759395779481 23.070666902434578 L57.4321892059368 21.081706074352386"/>
    <path d="M 65.93156191702083 49.5326784876853 L66.5508121184108 49.55692930423956"/>
    <path d="M 41.83862166078058 31.717315289848838 L41.66171515269847 31.629999032646925"/>
    <path d="M 48.77114689155557 21.06151197080232 L48.5742990702748 22.141481871691717"/>
    <path d="M 42.286565506971165 19.66244890089469 L42.04807961805751 19.589924280942423"/>
    <path d="M 44.16604914760036 40.3697732510307 L44.07605222067626 40.278316496149394"/>
    <path d="M 36.51200146082794 34.521133174440614 L36.22462358468001 35.011691490775355"/>
    <path d="M 59.00696844411645 31.094193681508525 L58.718976955291204 32.77892569423353"/>
    <path d="M 47.088452501162145 34.145529792014536 L47.76274923166856 33.98162609856963"/>
    <path d="M 36.48402675310875 28.821503408408972 L36.10423340351669 28.885809312920102"/>
    <path d="M 53.721170130216414 44.607288999892226 L53.70240205813298 44.58089508936893"/>
    <path d="M 36.550962222986136 49.066544148289935 L38.056075443783236 49.049274242349995"/>
    <path d="M 68.572817700328 19.736177699692508 L67.44321848546942 19.466492898326035"/>
    <path d="M 61.64448006234816 21.94198561486656 L59.64042623170683 21.94031718028733"/>
    <path d="M 58.22059611689266 45.0326709245194 L58.17171413972711 45.078737969469366"/>
    <path d="M 57.19134717566735 45.71585101590084 L57.215529716968994 45.71858851347072"/>
    <path d="M 64.31071185022141 43.56556661804877 L64.31410499299749 43.72146997942594"/>
    <path d="M 62.370321319773836 41.79396255393598 L61.96696196619834 41.58151327657769"/>
    <path d="M 39.00975590551722 50.2124464630801 L39.82946216537865 49.09359984534761"/>
    <path d="M 55.32961606641495 28.927492327691734 L54.54825821104365 30.510474081557025"/>
    <path d="M 51.48264359692539 27.549229718295294 L53.084501211609755 27.67162213758374"/>
    <path d="M 59.44989294487117 51.721005568487016 L59.23265505150352 52.50348904162925"/>
    <path d="M 46.34191410745495 43.40274700189369 L46.250178284791 43.6406840102145"/>
    <path d="M 55.75312544114175 27.260803346890203 L57.82226054896603 26.63656602819908"/>
    <path d="M 44.65696052836885 40.2512027138868 L44.654007430980435 40.32912469265138"/>
    <path d="M 62.54084974348521 50.66365387946015 L62.04599359921954 51.137124789246094"/>
    <path d="M 35.40678642247059 33.727424199128755 L35.85866205564446 34.14900202399435"/>
    <path d="M 42.97312796399524 26.949738895542563 L43.00137403072637 26.47526016897628"/>
    <path d="M 53.52079951266842 50.84779178671261 L54.15103105441767 50.53430546796141"/>
    <path d="M 51.159064985190255 22.95730542532893 L52.359982579089646 23.916808494401945"/>
    <path d="M 45.87996826608589 36.536241879454394 L45.79115714722368 36.18572101878496"/>
    <path d="M 67.75172417480442 34.51621034345749 L68.59742653605647 34.123152269194435"/>
    <path d="M 43.178098896463254 22.253608140203962 L43.60053034581344 22.019901967552872"/>
    <path d="M 37.49728440787604 38.66326844604302 L37.989471516856895 38.28437609169495"/>
    <path d="M 55.60838782158902 49.83108265837453 L56.09356846252561 49.593846848040954"/>
    <path d="M 36.30652200240626 51.25035664786353 L36.62776376525 49.580171557633484"/>
    <path d="M 55.23477561860547 19.930148114132045 L53.896625156311345 19.15041210213213"/>
    <path d="M 46.18568120323899 42.52392056767274 L46.144731334790855 42.69194736047195"/>
    <path d="M 56.50674903701453 49.29599775193629 L56.20220338579587 48.95238079839222"/>
    <path d="M 56.234414224533936 47.910398488781134 L56.541217619754576 47.89603793252426"/>
    <path d="M 56.87802343930774 37.522923619083834 L56.36655666510494 38.300816874919896"/>
    <path d="M 51.5871065277226 49.39750352089368 L50.95454060749233 49.43885039934631"/>
    <path d="M 53.238392151339 48.66122770362909 L53.10810538762637 49.1495387548402"/>
    <path d="M 50.68094673097681 40.76401629927857 L50.47062314936813 40.49836552973485"/>
    <path d="M 44.02070382390997 51.14495197585447 L45.14935003400822 50.879784745406624"/>
    <path d="M 64.9848854772516 21.14463495033267 L65.62364181230745 22.61121772795163"/>
    <path d="M 61.41249169156259 32.83904390997714 L62.55605685842011 31.728176924169837"/>
    <path d="M 57.4606485134682 23.4223648776373 L59.67997326774345 23.627998055943642"/>
    <path d="M 61.52612266451176 23.874710510650456 L63.40156519600011 23.15386149832948"/>
    <path d="M 41.309238994515134 39.88345501698921 L41.05212660826951 39.63412305141701"/>
    <path d="M 55.616066064154715 28.750727780776327 L53.9981756766776 27.827379726657558"/>
    <path d="M 60.603088039529254 44.44023726607831 L60.46216597409547 44.43077425228718"/>
    <path d="M 68.04203141560363 25.356656293893707 L68.77950722425537 24.240727432370278"/>
    <path d="M 51.559541173728924 24.175071057389346 L50.8662354559849 25.509126502509602"/>
    <path d="M 42.34157322090467 48.9714969676626 L41.409194826893675 48.38482063315132"/>
    <path d="M 39.0538671513306 20.07443559839394 L39.12728577881226 20.003260135358083"/>
    <path d="M 62.67992404147578 26.83279107543788 L63.16155397600044 28.72883505421942"/>
    <path d="M 67.01232354207689 46.52450119420308 L66.90863627570694 46.81341139693588"/>
    <path d="M 51.64417625104124 24.495741341695453 L51.64898808514915 26.057148925979117"/>
    <path d="M 66.98517264218474 47.38967257648078 L66.77912959231604 47.74311694453543"/>
    <path d="M 45.14409944709184 53.385489768622584 L45.49182223040989 52.1251363166972"/>
    <path d="M 50.79866962924779 21.665230617649563 L52.22243288116284 21.78145751793405"/>
    <path d="M 62.62387154161348 23.30856753024877 L63.82437441622778 24.852140434364753"/>
    <path d="M 39.018444417712566 46.54232414965894 L38.61801119537791 45.516546871263"/>
  </g></svg>