<?xml version="1.0" encoding="utf-8"?><svg version="1.1" xmlns="http://www.w3.org/2000/svg" xmlns:xlink="http://www.w3.org/1999/xlink" width="105" height="73" viewbox="0 0 105 73">
  <g style="fill: none; stroke-linecap: round;stroke-linejoin: round; stroke-width: 0.25; stroke: #0ff;">
    <path d="M 69.5 53.5 L69.5 19.5 L35.5 19.5 L35.5 53.5 Z"/>
  </g>
  <g style="fill: none; stroke-linecap: round;stroke-linejoin: round; stroke-width: 0.5; stroke: #000;">
    <path d="M 35.395303203002555 19.347045110840906 L35.31278663207739 20.261476641297552"/>
    <path d="M 35.391171115971616 21.32267355757186 L35.330447714162034 22.261398661322225"/>
    <path d="M 35.37631766775459 23.319763875937426 L35.34810879624666 24.26132068134691"/>
    <path d="M 35.43755034139106 25.38533835471977 L35.36576987833131 26.261242701371586"/>
    <path d="M 35.621226037823206 27.293937717054796 L35.383430960415936 28.26116472139627"/>
    <path d="M 35.48061606409878 29.289062641050847 L35.40109204250058 30.261086741420954"/>
    <path d="M 35.45979642029694 31.482010347561342 L35.41875312458522 32.26100876144563"/>
    <path d="M 35.520824342114196 33.491567212750034 L35.43641420666985 34.260930781470314"/>
    <path d="M 35.45891062972541 35.32715660522765 L35.454075288754495 36.26085280149499"/>
    <path d="M 35.707411979002615 37.42562246801433 L35.471736370839125 38.260774821519675"/>
    <path d="M 35.545609523999545 39.327840487320564 L35.48939745292377 40.26069684154436"/>
    <path d="M 35.618716756321575 41.43497444643006 L35.5070585350084 42.260618861569036"/>
    <path d="M 35.59393958283283 43.31141545344486 L35.52471961709304 44.26054088159372"/>
    <path d="M 35.63962877704863 45.4846850874628 L35.54238069917767 46.260462901618396"/>
    <path d="M 35.70601454250415 47.37842279456676 L35.56004178126231 48.26038492164308"/>
    <path d="M 35.729723294985206 49.48478139592642 L35.57770286334696 50.26030694166776"/>
    <path d="M 35.73030056992461 51.32966519060523 L35.595363945431586 52.26022896169244"/>
    <path d="M 35.67496837060207 53.39290152715702 L35.61302502751623 54.26015098171712"/>
    <path d="M 36.473388145414376 19.23575246398443 L36.354138714709165 20.426567477635817"/>
    <path d="M 36.57753915415786 21.68501509584705 L36.343767856558685 22.79558300248179"/>
    <path d="M 36.58134241353237 24.08811014523993 L36.333380991675995 25.168254945778685"/>
    <path d="M 36.540985471614846 26.39971612618816 L36.32265433278063 27.618546048416846"/>
    <path d="M 36.412843582651945 28.644941103413984 L36.3122960818408 29.98468170764955"/>
    <path d="M 36.53115719526538 31.169201512298308 L36.30228391633628 32.27176105762585"/>
    <path d="M 36.46758937743077 33.51785352920893 L36.291427826099806 34.75161816647409"/>
    <path d="M 36.339247723524636 35.87540694060255 L36.282187264556725 36.862439993963406"/>
    <path d="M 36.43215214996667 38.05879865433491 L36.27231029873573 39.118635675054094"/>
    <path d="M 36.40124054762978 40.15857432174012 L36.26268378838675 41.31761980307021"/>
    <path d="M 36.49681794095942 42.553171017818855 L36.25257575184796 43.626598977081414"/>
    <path d="M 36.25029629273013 44.833970599225175 L36.242949931893264 45.82542539830506"/>
    <path d="M 36.421719753210695 47.12443713750887 L36.23351880216143 47.979778724457084"/>
    <path d="M 36.3463293713701 49.19821627397585 L36.22351899365637 50.264035364573765"/>
    <path d="M 36.406309836039426 51.57552306473378 L36.2136238964156 52.5243728065786"/>
    <path d="M 37.69213964125515 19.195944945132293 L37.48872588718234 20.553913514396847"/>
    <path d="M 37.65383622949632 21.74159074869769 L37.48181156184373 23.172819104500093"/>
    <path d="M 37.64551078934869 24.51541875280641 L37.47511563720789 25.70900211598996"/>
    <path d="M 37.70066364987909 26.906284828290957 L37.46827403854604 28.300361374235074"/>
    <path d="M 37.66546387471138 29.59245781144446 L37.46200574203722 30.6745737468775"/>
    <path d="M 37.64918555150159 31.91840358759621 L37.45661735384887 32.715507497749726"/>
    <path d="M 37.52200859726585 33.79266829420541 L37.45023905578117 35.13138462918842"/>
    <path d="M 37.5964531596629 36.19382349850169 L37.44446905490841 37.31685997212102"/>
    <path d="M 37.65334944304861 38.540892841623624 L37.43912587448537 39.34067059622738"/>
    <path d="M 37.59514282914856 40.59209544112712 L37.433101480899296 41.62250103765131"/>
    <path d="M 37.46432261697633 42.9790946409569 L37.42728433842197 43.82583197830602"/>
    <path d="M 37.581654402045515 45.14406988813339 L37.42059230397791 46.36054152065958"/>
    <path d="M 37.43024151829094 47.57651610362625 L37.414024793928206 48.84808556001129"/>
    <path d="M 37.50241816825984 49.99446755723809 L37.407113067482186 51.46600678013033"/>
    <path d="M 37.555634285372065 52.65232071996579 L37.40094660077746 53.80164957003565"/>
    <path d="M 38.36134181218438 18.844058042747257 L38.259646165136814 20.09631169953041"/>
    <path d="M 38.48733441694253 21.135686330090188 L38.261160880754886 22.404860510683847"/>
    <path d="M 38.30021943463379 23.794908161036503 L38.26291774804811 25.082468011880067"/>
    <path d="M 38.50294177064684 26.47023245020233 L38.264567363800055 27.596615510976264"/>
    <path d="M 38.449282089512394 28.98016475413246 L38.26663095348785 30.74169268827103"/>
    <path d="M 38.49369079632396 32.18494567344067 L38.268569475488704 33.69615662003749"/>
    <path d="M 38.32553804432527 34.9377386202386 L38.270566212114645 36.7393443372747"/>
    <path d="M 38.327728554913435 38.084642492335334 L38.27225992899723 39.32070551761203"/>
    <path d="M 38.3972140410292 40.55910133209491 L38.27405555279006 42.057381051122576"/>
    <path d="M 38.51312232501479 43.47605994279089 L38.275516011649685 44.28323818492163"/>
    <path d="M 38.44168501811117 45.62538576154877 L38.27741422556183 47.17626933737101"/>
    <path d="M 38.49776743805276 48.35807685772413 L38.27899255780403 49.5817750163939"/>
    <path d="M 38.43037738661194 50.88271244366904 L38.28076205513969 52.27863172126921"/>
    <path d="M 38.515011438849555 53.61963815425987 L38.2828046248551 55.39167276473079"/>
    <path d="M 39.14261616471994 19.328364031603677 L38.91134978853641 20.286681114140542"/>
    <path d="M 39.00365638990317 21.584570791836633 L38.92089617943715 22.998658798091952"/>
    <path d="M 38.931776825555346 24.06910058330964 L38.929048310395245 25.31454942784797"/>
    <path d="M 39.06396123188097 26.613796581592887 L38.939331424798084 28.23581853069831"/>
    <path d="M 38.994750852461536 29.445382277812293 L38.94926590815646 31.05804710374136"/>
    <path d="M 39.133898386369395 32.357796653209704 L38.95843216397927 33.66203446350053"/>
    <path d="M 39.20627058764653 34.97775478679042 L38.969378905266694 36.77182939984817"/>
    <path d="M 39.05409279347798 38.23730899253688 L38.98005026501119 39.80339282370409"/>
    <path d="M 39.00910690585904 41.163506507488705 L38.988339325257954 42.15818288456637"/>
    <path d="M 38.99586460221319 43.37448476244118 L38.9988341733623 45.13960216137924"/>
    <path d="M 39.13891369232107 46.64223118982603 L39.00935125604548 48.1273379280836"/>
    <path d="M 39.11772102528751 49.563776490858835 L39.0211421659742 51.47694773693133"/>
    <path d="M 39.23063780173892 52.79467539298474 L39.0298880948622 53.96152690578255"/>
    <path d="M 39.8361070687327 19.57281342757731 L39.80074232642875 21.488682235476794"/>
    <path d="M 39.97007904740313 22.934975985587485 L39.8065150831592 24.916159160644874"/>
    <path d="M 39.83120007306195 26.216597760133837 L39.81200306699549 28.174556983880485"/>
    <path d="M 40.05493004684911 29.565116110824462 L39.81661068418798 30.910251963704624"/>
    <path d="M 39.853485935552996 32.13345849035006 L39.821820857963985 34.00370475016156"/>
    <path d="M 39.94620038219075 35.27545907072419 L39.82661753651689 36.85165172336951"/>
    <path d="M 39.88371087367305 38.173604054765285 L39.8305842884979 39.20684379495456"/>
    <path d="M 39.946873597256285 40.321898870660334 L39.83595881748255 42.397879713948164"/>
    <path d="M 40.04381550374025 43.893414839084315 L39.83997202814406 44.7806558433488"/>
    <path d="M 39.90301286311308 46.28225382903659 L39.843838855097104 47.07651911527126"/>
    <path d="M 39.9151008483835 48.64304697340704 L39.849416751339376 50.38830091277558"/>
    <path d="M 39.88585714286047 51.9257526745543 L39.85396746867701 53.09021256366038"/>
    <path d="M 40.77775368378977 20.221704207375595 L40.58412134079876 22.157049750526056"/>
    <path d="M 40.80861980837666 23.52457748108189 L40.605416101408736 24.432912273937298"/>
    <path d="M 40.67685349440994 26.08669466603086 L40.63712593295014 27.821878158575778"/>
    <path d="M 40.82006777682298 29.31136972149841 L40.67181786895921 31.529554355256018"/>
    <path d="M 40.8469594424824 32.93155510703482 L40.69636084248114 34.15256734303602"/>
    <path d="M 40.82446897711807 35.548414536795256 L40.71745559628387 36.40705427996377"/>
    <path d="M 40.93094434104698 37.88556136905912 L40.74341708851601 39.18167045457777"/>
    <path d="M 40.885891096918414 40.71654508919 L40.77603799783151 42.66800713384239"/>
    <path d="M 40.82862688408974 44.033300216499995 L40.81162969622686 46.471844801055916"/>
    <path d="M 40.971377939509296 48.12511260631526 L40.84871728314454 50.435554499211605"/>
    <path d="M 40.9984443088763 51.92146522714178 L40.88404976955198 54.21168906801118"/>
    <path d="M 41.472718886245666 19.911418689876754 L41.424909345700286 21.58801382065682"/>
    <path d="M 41.4992716622256 23.29771527085955 L41.450069421783624 25.127419098062866"/>
    <path d="M 41.6203434257888 26.61735379327834 L41.47504306440302 28.640597762163452"/>
    <path d="M 41.536277486788556 29.973545175094316 L41.49930339682393 32.05343118594976"/>
    <path d="M 41.74083887988844 33.41567582916465 L41.52521756691092 35.69891898422417"/>
    <path d="M 41.6789782344792 37.171591160881164 L41.54608652475112 38.63466922873547"/>
    <path d="M 41.64935059432189 40.21752613596904 L41.56372343981299 41.11575036856857"/>
    <path d="M 41.70234669814961 42.68355170243754 L41.590477125898545 44.87933746614435"/>
    <path d="M 41.74029390369018 46.20438009367955 L41.60841407709675 47.402626327481784"/>
    <path d="M 41.67255115427115 49.035135149664455 L41.635240675530845 51.1764704032312"/>
    <path d="M 41.72081972104045 52.62697849759476 L41.65636129571779 54.14762336414234"/>
    <path d="M 42.36490984737349 20.3672007024919 L42.24761200581322 22.552505966023062"/>
    <path d="M 42.37176367910918 24.061883666109985 L42.281654913172765 26.816603648397866"/>
    <path d="M 42.40517860325877 28.496071799141745 L42.30734704844852 30.034712293688457"/>
    <path d="M 42.41889047393562 31.366735181167222 L42.338321426862144 33.91445657673714"/>
    <path d="M 42.44338874288082 35.14446413762915 L42.36639270749119 37.43056879968498"/>
    <path d="M 42.39201796676672 39.09981436083261 L42.390268102382414 40.42111878257049"/>
    <path d="M 42.5008659194334 41.5857363898888 L42.417179162300684 43.7919057431487"/>
    <path d="M 42.67815061017827 45.60600745916821 L42.440649091593066 46.731668497374656"/>
    <path d="M 42.50219324466045 48.36921809460927 L42.46878999505432 50.256501437221054"/>
    <path d="M 42.48473337703365 51.61953234751875 L42.49887759409546 54.025170781015056"/>
    <path d="M 43.721820369198525 19.01541354567241 L43.480416091992744 21.273787972657672"/>
    <path d="M 43.57569944173631 22.550620470450376 L43.46482226695128 23.87784177481653"/>
    <path d="M 43.65123542036388 25.135677277827952 L43.443158137939356 27.495591581163495"/>
    <path d="M 43.68489870307288 28.56009337696584 L43.42331751828113 30.808828770936202"/>
    <path d="M 43.61351618518668 32.54686385188773 L43.4044626961345 33.9574450449676"/>
    <path d="M 43.61851948589244 35.87805170658853 L43.378737523152125 38.253359250611844"/>
    <path d="M 43.47887653307196 39.28949465621274 L43.363262651940296 40.837548640317884"/>
    <path d="M 43.5922373197904 42.1390196768748 L43.34713132627769 43.53136108299175"/>
    <path d="M 43.4955776801522 45.035709186480624 L43.31998148501755 48.06518438634899"/>
    <path d="M 43.56082661687905 49.55230056320908 L43.30034744021374 51.34392509859691"/>
    <path d="M 43.50376834978872 52.54847775531525 L43.27595051769301 55.418031270890154"/>
    <path d="M 44.237586164118014 19.411200524259698 L44.13961276421065 22.14494241811503"/>
    <path d="M 44.22486829218268 23.6607094912545 L44.15039425998533 26.32336849958677"/>
    <path d="M 44.19859819369656 27.49280888977262 L44.16219707586192 30.897612623428607"/>
    <path d="M 44.37100643925304 32.772811517365625 L44.17485220889598 35.80217679885527"/>
    <path d="M 44.20333121215668 37.7672916864961 L44.18368795870268 39.22651867249535"/>
    <path d="M 44.32402289408953 41.27191959965284 L44.19376775440364 43.132997154982725"/>
    <path d="M 44.337952705862364 44.460666643310844 L44.203460788153315 46.889583984369146"/>
    <path d="M 44.33151423090937 48.72501562807866 L44.21431509933213 51.09623006333946"/>
    <path d="M 44.24541935094736 52.875367311936344 L44.223485004448584 54.650075606108004"/>
    <path d="M 44.925946919619406 18.82292506052866 L44.86739122502405 21.355326335570417"/>
    <path d="M 44.94446090228798 22.999852746758542 L44.870741118204265 24.047132775246787"/>
    <path d="M 44.90120106363386 25.64007434496684 L44.8772171259754 29.250928384207626"/>
    <path d="M 44.98066673983444 31.27546755081628 L44.88130697913167 32.5373296128828"/>
    <path d="M 44.98302485800119 33.941186630364335 L44.888957406410576 38.68482993833208"/>
    <path d="M 45.13608542867286 40.6328833728514 L44.89652626700795 44.76678736232172"/>
    <path d="M 45.059235182835465 46.2759650814742 L44.90422863044048 50.956020980525636"/>
    <path d="M 45.1439813303962 52.40241446083784 L44.910996851988386 56.39462495016618"/>
    <path d="M 46.165921531793586 19.392210133813123 L46.04432257625103 21.54577280314171"/>
    <path d="M 46.12936307984998 22.798811178149087 L46.053248554467515 26.052100219001268"/>
    <path d="M 46.07008979281046 27.250090126710255 L46.059435247511 29.175484995346835"/>
    <path d="M 46.09726926040849 31.584763158645515 L46.07551125937532 37.291544797965045"/>
    <path d="M 46.27499110722313 38.51321922568876 L46.089244315968806 44.22475121297743"/>
    <path d="M 46.283663061476204 46.9734509082045 L46.09737937220565 48.33177747503612"/>
    <path d="M 46.15220196901611 49.90174992830994 L46.10662635245838 53.000164470401174"/>
    <path d="M 46.87216906289528 20.010082953072477 L46.75431097058226 23.147065770168034"/>
    <path d="M 46.928644920622595 26.115639569377805 L46.75175996308823 29.47479538701527"/>
    <path d="M 47.00082076584046 31.21591322874351 L46.750246498224705 33.22891859653794"/>
    <path d="M 46.84985026456352 35.8910250522404 L46.748691197213816 37.086815640268476"/>
    <path d="M 46.90410323537872 40.007131734092354 L46.74621990025297 43.21682466916405"/>
    <path d="M 46.86273635535772 45.86629883490247 L46.74274196494964 51.84378255771431"/>
    <path d="M 47.70212275897492 20.246078212657025 L47.67052044991523 22.10409717791112"/>
    <path d="M 47.678356972477076 24.32628103421313 L47.66956260423799 27.793687205490507"/>
    <path d="M 47.81956679179009 29.80260837090463 L47.66834803801769 35.00819369540936"/>
    <path d="M 47.719712281542435 37.37980616131593 L47.6673923581957 40.684918572851174"/>
    <path d="M 47.725600087658925 42.25374181568631 L47.66670438347948 44.77147883785199"/>
    <path d="M 47.85208471035858 47.17671748578141 L47.665463990312375 52.13939703328722"/>
    <path d="M 48.57279483079636 19.010438880093822 L48.41786794505748 21.23942254850776"/>
    <path d="M 48.496943336529526 23.702140680520017 L48.41551769431865 27.668230770004328"/>
    <path d="M 48.53285728198743 30.029306638323398 L48.41328246399682 33.78241545356167"/>
    <path d="M 48.57332371469255 34.96358794274766 L48.41245438206862 36.04752692451132"/>
    <path d="M 48.46404784425749 37.89773635946121 L48.41132806003715 39.12843578938144"/>
    <path d="M 48.58626343125733 40.698551144642074 L48.41014794424712 42.356490553032096"/>
    <path d="M 48.41893442139895 44.335045196506634 L48.40825865471804 47.524398749659724"/>
    <path d="M 48.487759543633835 49.45936774870758 L48.40606540187475 53.5237594467142"/>
    <path d="M 49.703998750528456 19.137261935775612 L49.586302711655065 22.745971195458594"/>
    <path d="M 49.713812332220414 23.934174873079627 L49.57351550201 27.1913179406271"/>
    <path d="M 49.6388499099394 28.41179628412116 L49.56540875515534 30.00954816790575"/>
    <path d="M 49.794962298922385 32.50158184253413 L49.54852371196867 35.87946614495712"/>
    <path d="M 49.69949121862659 38.25920861985923 L49.52716589141309 43.30430086073669"/>
    <path d="M 49.67248292609936 45.491473058518714 L49.51057029954247 49.0735939554731"/>
    <path d="M 49.75220554932015 51.35893874410395 L49.492162977377966 55.472717137350045"/>
    <path d="M 50.4596458013744 19.90120322206303 L50.26955335509255 24.071028664469367"/>
    <path d="M 50.31247782657306 25.74169576246765 L50.26810041001174 26.599517767987436"/>
    <path d="M 50.38500893225241 28.783675298534092 L50.26401294297491 33.71273629228119"/>
    <path d="M 50.28525901378986 35.59897965603733 L50.25932741966394 41.866722834870274"/>
    <path d="M 50.50328001835462 44.62318528494069 L50.257076195494356 45.784417906452646"/>
    <path d="M 50.391825129324744 48.72332519481006 L50.25419660546562 50.79562728140143"/>
    <path d="M 50.402298026067726 51.958438304742046 L50.250485341103136 57.25415873228696"/>
    <path d="M 51.12597091615458 19.37273433573926 L51.065646951013676 22.52575792160942"/>
    <path d="M 51.140484629220985 24.462681691045184 L51.1049896010244 29.047974328279594"/>
    <path d="M 51.29416936347565 31.06942023848999 L51.1393243168737 34.739976442259845"/>
    <path d="M 51.391729240918345 36.74456365177278 L51.16229238277759 38.547617671994914"/>
    <path d="M 51.325353513544194 40.883599996430256 L51.20443628199742 45.53422459495711"/>
    <path d="M 51.34114677354346 47.49270246287212 L51.24505054273411 52.267248365583605"/>
    <path d="M 52.14526004578467 20.583456298760076 L52.10584739859769 24.107774401628475"/>
    <path d="M 52.10999406685811 25.744021235462654 L52.07940338138739 29.387980478203588"/>
    <path d="M 52.07492625402312 32.00702424470154 L52.04990848160902 35.27737117853297"/>
    <path d="M 52.19090995571737 37.05221873243984 L52.03136081128827 38.98087510363952"/>
    <path d="M 52.22061123175343 40.26820250881583 L52.01962303666095 41.32461389414675"/>
    <path d="M 52.15929711013774 42.75053502151015 L52.001918400297804 44.859785111319724"/>
    <path d="M 52.063747316965845 46.468245311786646 L51.972335529376295 50.76674143947662"/>
    <path d="M 52.11930970731151 52.42610662933292 L51.95701016808088 53.82683118280908"/>
    <path d="M 53.198579970352775 20.171520915878226 L52.99076436999248 24.454625575051615"/>
    <path d="M 53.190237182577164 26.848737082982375 L53.010482836604 31.497763070687924"/>
    <path d="M 53.080894769957766 34.55895971383846 L53.0296744653826 38.352722075151874"/>
    <path d="M 53.13338950704201 41.433220512911475 L53.04376801505059 43.38672446838425"/>
    <path d="M 53.27102166563833 44.6411403501949 L53.052558490040184 46.52654893969945"/>
    <path d="M 53.22128946108577 48.4006037197792 L53.0673547282456 51.811541031226895"/>
    <path d="M 53.11944695761303 53.188750547727295 L53.07880404717333 55.90106426992961"/>
    <path d="M 53.74109078456553 18.9297939994852 L53.6527935988617 19.823372878532716"/>
    <path d="M 53.7502740684553 22.266501437300917 L53.67313114886183 23.477894646259045"/>
    <path d="M 53.898957263577486 26.715783440723534 L53.71457497468793 30.925073073279272"/>
    <path d="M 53.96758475528282 33.791966993967826 L53.7442129475007 36.25081864218469"/>
    <path d="M 53.86224651919851 37.91780458409227 L53.761316073090974 39.324135967302425"/>
    <path d="M 53.78886855707217 42.503546879359575 L53.78513142308895 43.6035951437068"/>
    <path d="M 53.99928120179464 46.896287406836734 L53.82425943181013 50.634636719436244"/>
    <path d="M 54.711270516418715 20.649224831601757 L54.674182330002196 25.79879436941031"/>
    <path d="M 54.77081133566124 27.82006868787093 L54.619367772782454 35.74063992460955"/>
    <path d="M 54.76155615781158 38.12672533271191 L54.584567563040146 42.05243606225871"/>
    <path d="M 54.631137039715135 44.28407741475988 L54.56050721407482 46.41631831453297"/>
    <path d="M 54.77049114787022 48.2805319050869 L54.5235946036376 53.111245549554695"/>
    <path d="M 55.64227803200813 19.480822323372784 L55.62030276806417 25.349550879006827"/>
    <path d="M 55.79435360934276 28.090964631079196 L55.61193388950993 33.939624386048735"/>
    <path d="M 55.63499541785844 35.660891675693456 L55.60877603815797 37.18093982177449"/>
    <path d="M 55.80246809118052 40.3228833389594 L55.60313366078774 42.97244892906191"/>
    <path d="M 55.60605807402397 46.034871589386526 L55.59916584901342 47.04513257270738"/>
    <path d="M 55.61563382128323 49.90599697693335 L55.59230607795417 54.08621188320355"/>
    <path d="M 56.431127692659686 19.93177389367444 L56.35270189391727 24.40041880341753"/>
    <path d="M 56.43535540610664 25.570150284695913 L56.34074373714939 27.32516581479669"/>
    <path d="M 56.51538887801221 31.36235845702737 L56.30813106931244 35.30162946556467"/>
    <path d="M 56.331027723280904 38.16382450403819 L56.26843055460698 45.01165116781088"/>
    <path d="M 56.26922017699772 47.90511586112418 L56.250238278795095 49.46114997801966"/>
    <path d="M 56.257051838251996 51.577972206134206 L56.21879853341645 57.150738191288056"/>
    <path d="M 57.59702378642084 18.768572911002842 L57.33702471851024 24.308514452689636"/>
    <path d="M 57.503793658197694 26.08700765008281 L57.323470105604905 27.600236773904136"/>
    <path d="M 57.357319389516846 29.111313606537337 L57.31124190531674 30.569841300268862"/>
    <path d="M 57.481215771441036 32.78709724033595 L57.29663936667404 34.1160511944387"/>
    <path d="M 57.394466581685144 36.0289349729069 L57.26436037883824 41.95496666235715"/>
    <path d="M 57.34689270276598 43.89003798667562 L57.23135996528099 49.969079545869974"/>
    <path d="M 57.40197658291106 53.08901188667592 L57.19903426228944 57.81933973620699"/>
    <path d="M 58.15589015032708 19.003833789637753 L57.93079496064938 20.11416277549607"/>
    <path d="M 58.104747910729685 22.434672591913817 L57.937900425782615 25.442704720939886"/>
    <path d="M 58.16134597589319 27.72771204677334 L57.949777232855126 34.349379157747705"/>
    <path d="M 58.189820180833195 37.08150606262961 L57.960786078901926 42.605150853385084"/>
    <path d="M 58.162346384987174 45.516749381579984 L57.97012304805384 49.60714591442548"/>
    <path d="M 58.15482237542242 51.6343907457498 L57.97917671554518 56.39668693434393"/>
    <path d="M 59.238095248787985 19.958749123699654 L59.13686498766329 20.997963341067113"/>
    <path d="M 59.27436269013611 23.100460173548278 L59.09877070752313 26.3486750196245"/>
    <path d="M 59.32172358980753 28.829405729056006 L59.06954587386747 30.453586785116535"/>
    <path d="M 59.24690456830672 32.99952661399334 L59.02758874873667 36.346872564768006"/>
    <path d="M 59.06879335515577 39.14934175522218 L58.94989471512349 47.259754275059976"/>
    <path d="M 59.09834980198724 49.189150335978425 L58.9285387400459 50.2594084182595"/>
    <path d="M 59.14443020756361 51.57714380414258 L58.90131404322739 54.08338153643068"/>
    <path d="M 59.83670676465493 19.857646804151173 L59.84708451558265 24.547709454353694"/>
    <path d="M 59.90765066301552 26.011736361550113 L59.87545850446389 30.077463072656826"/>
    <path d="M 60.01528735331795 33.69623778367294 L59.91417690347791 37.623219432073306"/>
    <path d="M 60.09981809176827 40.42585130916997 L59.93622198456318 41.91954404851208"/>
    <path d="M 59.97617143499032 43.26355706908934 L59.972489053325944 48.98756524057978"/>
    <path d="M 59.99309608869695 50.821641904066844 L59.99257792387136 52.90264764408309"/>
    <path d="M 61.2311366368192 19.23721294158547 L60.994049227020206 23.423298395525997"/>
    <path d="M 61.02021860908234 27.086437940102748 L60.96890715884729 39.4864842391105"/>
    <path d="M 61.10198544075764 44.340990187496125 L60.94279021963381 56.17251202991611"/>
    <path d="M 62.01009007174087 19.301862497122386 L61.79723643149277 24.13712235767352"/>
    <path d="M 61.84165300794619 26.3146589443774 L61.796462881634326 30.123673679310826"/>
    <path d="M 61.881066893681904 34.072682609877695 L61.79542083490042 38.18813931648289"/>
    <path d="M 62.00633481934518 39.700629594142654 L61.79503693404192 41.159172362072034"/>
    <path d="M 61.930031428891844 43.0029614716257 L61.79452924808755 45.08818610034373"/>
    <path d="M 61.79826278412724 48.36630844752368 L61.793754784197574 51.08181116988177"/>
    <path d="M 62.413868056420256 19.411067138567013 L62.38488894124755 26.723774839019086"/>
    <path d="M 62.453829573369404 30.374981359570064 L62.366372276170125 44.86966508802185"/>
    <path d="M 62.53654270056561 47.28856493217718 L62.35215685808471 58.80043584739006"/>
    <path d="M 63.579222335277876 20.34108677911192 L63.462259695695614 26.62451715583785"/>
    <path d="M 63.5211486410518 28.67904980159497 L63.48944881535639 35.39969565402437"/>
    <path d="M 63.564142538072446 38.96736451704795 L63.51907403903689 44.961116880182395"/>
    <path d="M 63.73441911233208 46.457216015215124 L63.54956726503088 54.80268234538785"/>
    <path d="M 64.58767732056538 20.166770713237817 L64.49102192434296 25.85209608039139"/>
    <path d="M 64.60696182292095 27.55623136815774 L64.48259350492378 35.14355141459805"/>
    <path d="M 64.63733969175316 37.39875006571337 L64.47893021665115 39.18194552726034"/>
    <path d="M 64.56899345455497 40.6712177608558 L64.47366602189352 44.98517244660925"/>
    <path d="M 64.53107577506991 46.45266269285083 L64.47065008882562 48.3099248109247"/>
    <path d="M 64.5825963884027 51.042852603763954 L64.46465321890696 54.9208498519062"/>
    <path d="M 65.18081892061406 20.57878627043653 L65.06277082165704 21.56892986479039"/>
    <path d="M 65.23704032838486 24.429224512068906 L65.11422357969022 29.79343554558914"/>
    <path d="M 65.19391038239922 32.254310438145424 L65.17164836254798 38.97254412763659"/>
    <path d="M 65.18666118466453 40.92974629252485 L65.20287275055739 43.963630444085304"/>
    <path d="M 65.41504225543754 46.66246160658758 L65.2264929308959 47.73921633688295"/>
    <path d="M 65.29311027586103 50.97006098983161 L65.28615565496894 57.276050353714204"/>
    <path d="M 66.48830736520091 18.636020248336678 L66.23803807113127 22.889949495348354"/>
    <path d="M 66.48628121721734 24.378025534862502 L66.23609430636544 26.46432771792002"/>
    <path d="M 66.2449772942131 28.206433744312356 L66.23149241121355 34.92672713104043"/>
    <path d="M 66.27739406369858 38.73509576287243 L66.22869219959617 40.076020708026675"/>
    <path d="M 66.37177863182707 43.20313483161256 L66.2231149965474 50.33190839101791"/>
    <path d="M 66.24880341459018 51.6108787375449 L66.22069042629563 54.79043714889688"/>
    <path d="M 67.03514531522819 20.183911103859163 L66.91457078272528 23.24982279568949"/>
    <path d="M 67.11133276564941 25.101442189414463 L66.89706366878592 27.15544323773232"/>
    <path d="M 67.10005669310178 29.200409965824825 L66.85830151681469 35.802799600453596"/>
    <path d="M 66.89609235444343 39.06182741710829 L66.81549285956049 45.352881209996134"/>
    <path d="M 66.98880067064962 46.914702164932656 L66.79976187638798 48.86226886034364"/>
    <path d="M 66.98962953407695 51.41919728847687 L66.76899008892457 55.72707379458824"/>
    <path d="M 67.99737214368866 18.806108189105206 L67.85875377556326 23.830070278583406"/>
    <path d="M 67.95199787554444 26.853178415226616 L67.8807576249221 31.19943652260835"/>
    <path d="M 67.99239822761893 35.64737947614442 L67.92002847926325 44.351740178033495"/>
    <path d="M 67.97757191961288 47.97483552304439 L67.95277532576542 55.319071451568576"/>
    <path d="M 68.51843927001416 19.8642217994767 L68.53203127893974 29.305081279130505"/>
    <path d="M 68.70252950480734 31.062635236457922 L68.59967156564613 36.787505367350995"/>
    <path d="M 68.81086555315883 38.07458010256707 L68.67298868298539 44.89790512421908"/>
    <path d="M 68.85566359515639 46.18755912978601 L68.74994634570632 53.41102500225361"/>
    <path d="M 69.58883980365768 19.39822885221253 L69.52717242939096 25.445782533603946"/>
    <path d="M 69.57288325958388 27.090058764490635 L69.53044650338995 33.4230048730725"/>
    <path d="M 69.6070993181473 36.06388400787017 L69.53524598131273 45.11684640362008"/>
    <path d="M 69.62244941095116 47.25418575348778 L69.540101635424 56.947560205774366"/>
  </g></svg>