<?xml version="1.0" encoding="utf-8"?><svg version="1.1" xmlns="http://www.w3.org/2000/svg" xmlns:xlink="http://www.w3.org/1999/xlink" width="105" height="74" viewbox="0 0 105 74">
  <g style="fill: none; stroke-linecap: round;stroke-linejoin: round; stroke-width: 0.25; stroke: #000;">
    <path d="M 34.551705520411375 24.581976594981708 L35.54932583814394 24.868791760417608 L36.33454650475823 25.092032085103664 L37.31921841056224 25.138876038002284 L38.10228976094072 25.464594345904768 L38.83889798991602 25.55464495460154 L39.62555352860698 25.493833992720738 L40.417137061730664 25.575305027628936 L41.38972673155089 25.607612040695006 L42.158558189404154 25.36410920887988 L42.85730331314756 25.311269872866763 L43.843510367707154 25.09094389186912 L44.669135383943285 24.871609699809746 L45.50417554120839 24.627949874460548 L46.37560214438656 24.51429322431737 L47.39874383613487 24.226005218206126 L48.386699048121 23.683304606541736 L49.438297226728324 23.32651234228388 L50.39439229881636 23.10639164780052 L51.61831740494742 22.55227347028854 L52.728778059833424 22.09675081356879 L53.83140321046717 21.635799155308355 L55.14167238409497 21.23126285159716 L56.4113834050039 20.84681111785119 L57.533273711347924 20.43873600750038 L59.02894640291405 19.8686192731957 L60.38315064411047 19.513988956342057 L61.80843831571673 18.99471477049684 L63.06539202187482 18.602301015893932 L64.51534242984881 18.1189096416338 L66.20848833876978 17.67141275636385 L67.62300912479857 17.320173251037097 L69.28573188600018 16.824513381753142 L70.7703538757615 16.48149889426286 L72.33192788607977 16.067911096390684 L74.09501665692487 15.583036767442392"/>
    <path d="M 34.551705520411375 24.581976594981708 L34.78023258387915 26.330380164686687 L35.05878384275105 28.223013806793432 L35.545382995974585 29.99404350600829 L35.672438505870375 31.783161464128607 L36.06434505493542 33.70787960340308 L36.31657608258566 35.38365841897595 L36.85008885507301 37.077659315073696 L37.10817217856699 38.61677100092112 L37.3417025506357 40.27569695597788 L37.68229664855067 41.8743620719007 L38.005073317447554 43.29474675159242 L38.42722315816367 44.59563225172558 L38.74337699981038 45.65447704191948 L38.92718624934631 46.62641076291621 L39.12148856162316 47.28323746991701 L39.5670137823156 47.76045134165687 L39.81410984978427 47.87613472819799 L40.186410450045706 48.228768571070866 L40.286040512667064 48.22115269908015 L40.28566774268083 48.219530698673175 L40.32624615515428 48.28006434789046 L40.35566912617564 48.10184026645184 L40.325338788706986 48.20043236853795 L40.10666557962084 48.166635545391365 L39.781703716881516 48.40648871678773 L39.43910259966327 48.59142865500849 L39.20645089870107 48.72003540470529 L38.82138041189778 49.219507636217145 L38.3375982511963 49.79203173790723 L37.79505227207369 50.50577741440594 L37.23105686568669 51.35122675094337 L36.51592362935683 52.1677025348382 L36.56081330549605 52.092633030716634 L36.71518514300908 52.16776903847119 L36.57439812419146 52.08518186586479"/>
    <path d="M 34.78023258387915 26.330380164686687 L35.806421229061 26.7350431880241 L36.66911707501987 26.844172061488752 L37.5071675683513 27.111457108375983 L38.12452725049912 27.22403517725483 L39.075785147431496 27.388601979559766 L39.68819080457756 27.39617510858904 L40.460713254682496 27.40995888987153 L41.30193421380921 27.378378908820903 L41.93079304744617 27.38419977286704 L42.71270049753495 27.285958832706328 L43.70412946340515 27.108515013282073 L44.40219333113651 26.96188224485308 L45.18989890549755 26.656161054096252 L46.08364458143575 26.37270190847839 L47.165355453505065 25.985082154438913 L48.084888842920314 25.521438693330353 L49.107938914872896 25.233649196695403 L50.05957190222077 24.68679083367613 L51.20082497959095 24.415443282256323 L52.28536405781096 23.80616436366029 L53.47934158504116 23.3616876024217 L54.67512861428229 22.880808865212725 L55.90565812823561 22.581277198732568 L57.15226832053821 21.909466995132433 L58.59121791233489 21.549802438351165 L59.79804069324357 21.13035386706257 L61.340083275012404 20.65194000304698 L62.79957578818193 20.15899741409078 L64.09085838115529 19.617949095421096 L65.62537492943521 19.126928251873977 L67.31186416584828 18.80699898756013 L68.75917323105843 18.426772557978477 L70.35147995346819 17.809492486375788 L71.88676688001381 17.52299834211607 L73.66106498642388 17.184347806348"/>
    <path d="M 35.54932583814394 24.868791760417608 L35.806421229061 26.7350431880241 L36.01610801899856 28.419655125166997 L36.248113974450284 30.26566342606511 L36.44841175151075 32.12739652421125 L36.90416228390741 34.00370065785626 L37.05009530893523 35.85920723326882 L37.29592779086235 37.53552395104741 L37.7155608067188 39.09186623737692 L37.96198097424884 40.7109791147419 L38.33888665025309 42.27392497715964 L38.62469972404865 43.81605166227113 L38.68797601250079 45.04431228654873 L38.933210676262505 46.15708114609107 L39.35794616792744 46.925337432226314 L39.51920837837909 47.56731095835324 L39.937760373137785 47.94059832574098 L40.44177285898732 48.11681409843 L40.35806767204295 48.29470593172978 L40.442894463163476 48.11763422996544 L40.37041305983687 48.297109108154054 L40.43553757361323 48.283221976329926 L40.321897974953096 48.11902307522927 L40.3872375656387 48.098021416531594 L40.306169335754795 48.134310104766286 L40.30070415471216 48.24018857966198 L40.092549967044114 48.32762551191522 L39.679115970800446 48.40337964024823 L39.43741864360626 48.85341339267557 L38.851797766755666 49.20732354721236 L38.31593264537244 49.77911288128445 L37.837753391903355 50.62071454487813 L37.22124860792337 51.432018443279894 L36.59410077342062 52.07864907347184 L36.51652249948684 52.190222852926794 L36.52290616154617 52.2139622090485"/>
    <path d="M 35.05878384275105 28.223013806793432 L36.01610801899856 28.419655125166997 L36.894368177132364 28.75933062555839 L37.61236111717033 28.927503137668648 L38.41158042682021 29.249518304600446 L39.15332050527279 29.308187659229425 L39.68273124516926 29.368207976761017 L40.52277920968182 29.33637430511441 L41.13124577152988 29.326916658395962 L41.89685917447693 29.21583140865162 L42.74327280211333 29.223653082564176 L43.4344427440019 28.888294789053433 L44.100378029968425 28.7034448899897 L44.90129779857774 28.486886811467464 L45.825760893637025 28.243480347145113 L46.71523278677074 27.88569793851473 L47.74951591255401 27.372229649480605 L48.70297028276585 27.03433147631442 L49.67871618981127 26.443822027202646 L50.739486907188386 25.982259874067616 L51.879094473834776 25.665963471448745 L52.92014282466509 25.019608039857978 L54.069605811269476 24.582734876314472 L55.31713891866735 24.154215735188153 L56.74516882293363 23.709554028474873 L58.09042498181144 23.204942967512448 L59.31416245796306 22.668474225337068 L60.9169736012448 22.137665735611982 L62.36240415647941 21.643815717619333 L63.806661584395144 21.269214457614382 L65.19702036762098 20.64949362402142 L66.7085843592679 20.23980147780706 L68.3076696069512 19.913075517781834 L69.92566201126877 19.497777592194147 L71.59532725426313 19.090897505014482 L73.15688288226555 18.64659644204836"/>
    <path d="M 36.33454650475823 25.092032085103664 L36.66911707501987 26.844172061488752 L36.894368177132364 28.75933062555839 L37.117087572826684 30.66907156664839 L37.34309939079163 32.48782351580873 L37.41282049187313 34.40842056156608 L37.6868355950813 36.22616997889356 L38.051395108258845 37.830654783495376 L38.16749893058335 39.68834834254554 L38.497828606978594 41.34380525339245 L38.64927749437642 42.717184961496244 L38.842399632182094 44.17125181982388 L39.06803176966833 45.597576483166485 L39.29169452585425 46.48823302402103 L39.69928586387086 47.387204704391245 L39.88934897673363 47.88081394733724 L40.361942646030286 48.295634756107454 L40.482641360143695 48.20948966916261 L40.32802697498699 48.28127359847348 L40.32927196943959 48.28208630035301 L40.30221819855371 48.25646013094156 L40.33075402959759 48.112868637310314 L40.28332767770443 48.19606820970755 L40.35758725705017 48.29457932949485 L40.316258907690944 48.123754365996774 L40.417955647142215 48.10413762709975 L40.28343492139555 48.34747418652849 L40.12719150293234 48.41589545868546 L39.924943001262974 48.56943063638536 L39.68242955598644 48.820900717888556 L39.03724575439973 49.26080155791426 L38.525506733020954 49.761130162584244 L37.788374012238286 50.6070623824348 L36.963008613416996 51.61133292289318 L36.53842241942388 52.11267304250621 L36.70592472749741 52.219131161095035"/>
    <path d="M 35.545382995974585 29.99404350600829 L36.248113974450284 30.26566342606511 L37.117087572826684 30.66907156664839 L37.82661965708852 30.968790744567617 L38.412240220365405 31.191914781495306 L39.23434906762845 31.219115247802602 L39.82250033319871 31.422796792248004 L40.532594004320764 31.4265642829494 L41.22739045194231 31.28150448103846 L41.90256603451812 31.201399075650308 L42.46444229163813 30.978527825621356 L43.29911833709789 30.888222480667128 L43.853429961568416 30.6728079876301 L44.60883032658187 30.29903740957546 L45.48366821204373 30.066953261210944 L46.46017694688752 29.6254538253852 L47.22147478366767 29.26339466133524 L48.114287318110605 28.760232906650153 L49.116158257903535 28.307090693787185 L50.29436943851799 27.860366321893448 L51.27828910648586 27.343039718041656 L52.429039927359966 26.68049278625388 L53.78535346120466 26.267326866072494 L54.899056075440974 25.813742107536488 L56.16018430053726 25.277232005603352 L57.641993332095694 24.628133245250357 L59.00708365029834 24.103438614982224 L60.38252350541409 23.76776037238639 L61.90664491230938 23.159761521762828 L63.37817317044589 22.635406045225526 L64.72428247184254 22.24964110536366 L66.36872068012224 21.863694733347952 L67.86496816192785 21.357753917117165 L69.5728888936702 20.981713173931254 L71.29563678281782 20.480090519742376 L72.88429883145574 19.95687001735251"/>
    <path d="M 37.31921841056224 25.138876038002284 L37.5071675683513 27.111457108375983 L37.61236111717033 28.927503137668648 L37.82661965708852 30.968790744567617 L38.02137093637404 32.8182003916132 L38.03529849451419 34.5692768738007 L38.35266117930244 36.53369520251478 L38.6007375367148 38.18377874613439 L38.71671846426586 40.05566750234211 L38.79220099856011 41.59885010613218 L38.97457497549125 43.15076870795316 L39.23149600828153 44.734150132755104 L39.48244498859495 45.93512748442443 L39.47935171701577 46.96050339984768 L39.94090018674534 47.71933232411634 L40.38322867385471 48.16463889269994 L40.336847421397046 48.28649493298657 L40.29327756025163 48.24146604508487 L40.32654204180141 48.11561935569617 L40.30935035099558 48.26524922911353 L40.33909259577214 48.28763714942866 L40.383765323665756 48.09794529723028 L40.30085524696315 48.25452341604004 L40.40497876586749 48.29556837675237 L40.2845873571506 48.18201239586536 L40.28420165299151 48.18462059669231 L40.449150387108496 48.139639982047804 L40.44410440800526 48.37314949040365 L40.348747311259054 48.378255073742245 L40.27242221277096 48.50700852619851 L39.83735462959808 48.6375213797829 L39.2817167246433 49.202565499302686 L38.52490628447531 50.13267001151528 L37.71827774430958 51.07630010556444 L36.6989502835554 52.134952618931045 L36.71191970207658 52.14961599731639"/>
    <path d="M 35.672438505870375 31.783161464128607 L36.44841175151075 32.12739652421125 L37.34309939079163 32.48782351580873 L38.02137093637404 32.8182003916132 L38.4943225384345 32.94762073545619 L39.21502905283328 33.23644292057058 L39.86770513348264 33.322014083661834 L40.368777029565685 33.19248564364817 L40.9673958423068 33.25873198131402 L41.58024059282448 33.10181799743285 L42.34877153290353 32.86560140080135 L42.87643138833632 32.74729225657794 L43.568095335463035 32.469406211768714 L44.36332085912162 32.05318443369812 L45.19928180710842 31.684109514160966 L46.0842291487266 31.35319613150439 L46.920798356554464 30.852457349464522 L47.874222978885 30.452127921197793 L48.64930292227054 29.961353888964084 L49.745997633713344 29.53496637484419 L50.86861131154545 29.01153437636184 L51.94400843806513 28.293636146181548 L53.27665871906698 27.772693262716697 L54.52809911111201 27.335435214640814 L55.820248075603466 26.79614699022017 L56.99601549470272 26.14839722348831 L58.41863110705528 25.78023416991621 L59.85485970314995 25.26645145943337 L61.43896850288162 24.692809390675748 L62.8154989174425 24.265190616696547 L64.47190289398115 23.656565212532417 L65.86878571756105 23.288964680986254 L67.60240021651431 22.841924038481697 L69.17832479782425 22.42575631066995 L70.85010038167641 21.99072328111071 L72.37569257243699 21.458506407716435"/>
    <path d="M 38.10228976094072 25.464594345904768 L38.12452725049912 27.22403517725483 L38.41158042682021 29.249518304600446 L38.412240220365405 31.191914781495306 L38.4943225384345 32.94762073545619 L38.67472826884444 34.762452064902604 L38.95841682280451 36.65102277201461 L39.087963360149494 38.540795703868774 L39.08627813313468 40.1520125149774 L39.18120242239287 41.86582036186194 L39.29305265907948 43.54163237588393 L39.39580491419789 44.91079032236532 L39.50582325199595 46.16943914585795 L39.8559635619921 47.168140314914474 L40.03032017608167 47.98305140290166 L40.48261207067428 48.1861495878959 L40.30553741781006 48.26080452886506 L40.283864970352866 48.208464265861586 L40.35991307458648 48.100719880210825 L40.45984623330907 48.26230431830563 L40.483107316012116 48.19157940844897 L40.445288419295565 48.11946696968733 L40.46525713842605 48.255256383077615 L40.421626945133376 48.10557642179055 L40.483238265630405 48.19415514768128 L40.30336108742229 48.25801221296625 L40.48127786957072 48.17788654734889 L40.49179072725727 48.200277074202866 L40.65050409792266 48.21067548437889 L40.637344113097555 48.33722924331386 L40.3704409849073 48.40115110505551 L39.82988439979568 48.82206445243706 L39.0714442366158 49.42830963759398 L38.42527778439554 50.335125763275606 L37.29446599660176 51.388581108236295 L36.51649375883642 52.162626060765014"/>
    <path d="M 36.06434505493542 33.70787960340308 L36.90416228390741 34.00370065785626 L37.41282049187313 34.40842056156608 L38.03529849451419 34.5692768738007 L38.67472826884444 34.762452064902604 L39.39889980804505 35.044665015416285 L39.7684723488317 35.12934953222873 L40.51926676490789 35.15944537228534 L40.89961627555556 35.16546087281898 L41.47735818523281 35.072205948625054 L42.08928254197377 34.732309949753386 L42.68235293863017 34.67561894168332 L43.36000397797569 34.202863935843176 L43.98464765585604 34.011142778915705 L44.893201701263884 33.59691081658348 L45.4829416952958 33.12221024028425 L46.49353331652435 32.58409980321278 L47.41011809497827 32.11379365630546 L48.294229707087446 31.525865560171844 L49.33590586412232 31.165680704546578 L50.44292707085854 30.46284865974946 L51.54531162471918 30.04239233642241 L52.64544199254313 29.481006256161134 L54.00078903879413 28.89181892127673 L55.324583820547524 28.261851752104064 L56.47233756136566 27.6855527605766 L58.05198704379901 27.12255532402227 L59.29862459441547 26.657172517483517 L60.96998828478426 26.117838576252016 L62.480652879018685 25.624532334214607 L63.83663403957104 25.07934868766796 L65.42715397222659 24.708407817229375 L67.01847433731425 24.154367038717652 L68.83849283204114 23.78454656815734 L70.37654754446302 23.22222722876621 L72.03299781742122 22.82153858486799"/>
    <path d="M 38.83889798991602 25.55464495460154 L39.075785147431496 27.388601979559766 L39.15332050527279 29.308187659229425 L39.23434906762845 31.219115247802602 L39.21502905283328 33.23644292057058 L39.39889980804505 35.044665015416285 L39.299227407561204 36.90874320509578 L39.48658950376603 38.77434160073749 L39.61918538733328 40.504335834405616 L39.525885107502745 42.07515585599277 L39.7532948900607 43.765098000475675 L39.63787643739809 45.09437365550179 L39.731688153357446 46.30308550000536 L39.98132593626509 47.299448864249996 L40.206990348639856 48.06206748066748 L40.42835125728453 48.28722635435548 L40.34468720981583 48.105703955102435 L40.48245372390411 48.211003263206315 L40.31601175473442 48.271910034442385 L40.286464451985246 48.173025901064676 L40.36396554903438 48.0998331546448 L40.41093479797896 48.2940529227335 L40.29948698720014 48.14341271601934 L40.415978402887156 48.10343087267468 L40.419665878103785 48.10478710440563 L40.34660129105574 48.290962887817045 L40.401273644521396 48.29631758200632 L40.5782109502236 48.16658219511422 L40.628149237202635 48.345239166320326 L40.52232834630647 48.17659685808866 L40.49915984397312 48.33927125297604 L40.46398969886722 48.240079307321025 L39.78813601552456 48.803015838369845 L38.984878585676725 49.69080532056183 L37.947246788114306 50.762816731064 L36.88754204053182 51.85626050196838"/>
    <path d="M 36.31657608258566 35.38365841897595 L37.05009530893523 35.85920723326882 L37.6868355950813 36.22616997889356 L38.35266117930244 36.53369520251478 L38.95841682280451 36.65102277201461 L39.299227407561204 36.90874320509578 L39.79915419271273 37.0035266146383 L40.358541322918896 37.09575109863457 L40.98525216881365 36.94580800069451 L41.426237466298744 36.7518782363965 L41.82498868869268 36.65032081218683 L42.4698728982134 36.514045767277786 L42.97866548167586 36.096790283563266 L43.66220215708914 35.65273410315959 L44.50904305753799 35.29829448474528 L45.18460491877864 34.75442905032487 L46.06597897099056 34.34675630126146 L46.93638493693628 33.80512493436302 L47.86572537224028 33.291910821907045 L48.68612625779925 32.63072372822939 L49.89385925233737 32.01098603302002 L50.906209489343475 31.420558677106072 L52.22377450674372 30.97956701631551 L53.321902773058156 30.25672271970991 L54.709934037728594 29.635984741685593 L55.95621662631023 29.151387310723717 L57.55564969703848 28.58985560569047 L58.81717207056085 28.006209260788392 L60.368612817407616 27.43081204252459 L61.8186363739262 27.043352037155554 L63.386102877139244 26.56520629638526 L64.96900235398374 26.06076105738324 L66.76024982305276 25.646494461216545 L68.28517791868813 25.218109485742122 L70.07307100196002 24.780996427471788 L71.74950873581143 24.202858833381086"/>
    <path d="M 39.62555352860698 25.493833992720738 L39.68819080457756 27.39617510858904 L39.68273124516926 29.368207976761017 L39.82250033319871 31.422796792248004 L39.86770513348264 33.322014083661834 L39.7684723488317 35.12934953222873 L39.79915419271273 37.0035266146383 L39.86063577514958 38.70430105026729 L40.00226566315324 40.62474132790369 L39.9162680471768 42.35533284554939 L39.82433298171876 43.847791599772826 L39.81658582468781 45.28568634931311 L39.902948143102 46.401632847784455 L40.10121124309326 47.40617409122544 L40.208800265566545 48.114737960708084 L40.323297117733055 48.27793453890712 L40.452866356950445 48.269790792578185 L40.48163337492954 48.21617964808122 L40.440563701867674 48.279932202718314 L40.45177281935774 48.12505494016911 L40.483295365217316 48.19622891762977 L40.41431503926526 48.293016298914495 L40.424045995216204 48.2892710646836 L40.2892873106188 48.231998910518605 L40.4032344201136 48.2959392639367 L40.288777931617844 48.230558264740154 L40.36683445668988 48.29657769290219 L40.57900977951842 48.365270636397646 L40.58390982635747 48.16738106194416 L40.46777131822205 48.276795447391045 L40.47117503643342 48.23800275081813 L40.65815642601681 48.307493421131745 L40.33493140885455 48.38623105158345 L39.5846643985125 49.17815955188331 L38.61158913108592 50.232674864522544 L37.673977429803685 51.41393742041113"/>
    <path d="M 36.85008885507301 37.077659315073696 L37.29592779086235 37.53552395104741 L38.051395108258845 37.830654783495376 L38.6007375367148 38.18377874613439 L39.087963360149494 38.540795703868774 L39.48658950376603 38.77434160073749 L39.86063577514958 38.70430105026729 L40.42686067859526 38.76204957044815 L40.7165040480264 38.70974581787218 L41.32976574783941 38.62692638284607 L41.80587037672948 38.489027343531944 L42.19287307396506 38.104316954042076 L42.66959766919037 37.824293968116606 L43.25494383739016 37.45435009423828 L43.9589497257392 36.94328528755032 L44.70494955741537 36.640354689602546 L45.58658189066625 36.0257558884688 L46.238436148391656 35.4110288349316 L47.17229655308349 34.91424770961425 L48.15327258288715 34.299086394063835 L49.282716316079714 33.72532908727 L50.43063249044113 33.10357534482497 L51.68418973800557 32.32181357244997 L52.936245815653855 31.8332074465588 L54.21607775090882 31.081253501238542 L55.46676765106971 30.500095335400054 L56.86087759804363 29.945334153963515 L58.483233171523096 29.386884791757435 L59.804420212518565 28.889344346878115 L61.37398717888018 28.311543118228187 L62.93820804521108 27.940335349318744 L64.52664490826955 27.398680336682308 L66.28735699225246 26.83652310029203 L67.96191179168858 26.39398650371311 L69.7045349655049 26.014408735479897 L71.26080912278262 25.573962427279618"/>
    <path d="M 40.417137061730664 25.575305027628936 L40.460713254682496 27.40995888987153 L40.52277920968182 29.33637430511441 L40.532594004320764 31.4265642829494 L40.368777029565685 33.19248564364817 L40.51926676490789 35.15944537228534 L40.358541322918896 37.09575109863457 L40.42686067859526 38.76204957044815 L40.39640136906368 40.62327672192512 L40.33758421617782 42.32174398928354 L40.1472961657528 43.98041446570132 L40.14647622641673 45.407606138414025 L40.011644204192535 46.60164440162944 L40.107915826919275 47.52889557662211 L40.32396982619718 47.965808858155164 L40.35761271786605 48.10130241877184 L40.28671861314208 48.17205818642604 L40.29327846529072 48.154420604697705 L40.28339039690565 48.19393710896514 L40.4803358399333 48.22215173053613 L40.41968812857537 48.291092730960855 L40.412367905955584 48.10225913856217 L40.32393347463046 48.27840803503738 L40.426020150714464 48.10752385556762 L40.343952016583785 48.28987327151235 L40.44181859135734 48.2790414489828 L40.28411054809956 48.21057173916684 L40.528189323730324 48.17388857185248 L40.47263445455088 48.23340852557539 L40.612879394001155 48.35492133855641 L40.51519480406945 48.18054909054888 L40.61983493359512 48.35098922656423 L40.467609477049315 48.256756336372774 L40.03334722769534 48.9026396042703 L39.00982895878638 49.95781546171481 L38.07173562069617 51.09357523402792"/>
    <path d="M 37.10817217856699 38.61677100092112 L37.7155608067188 39.09186623737692 L38.16749893058335 39.68834834254554 L38.71671846426586 40.05566750234211 L39.08627813313468 40.1520125149774 L39.61918538733328 40.504335834405616 L40.00226566315324 40.62474132790369 L40.39640136906368 40.62327672192512 L40.705033524760395 40.45624510511129 L40.96855881445997 40.40116784469165 L41.505676773939406 40.31756239780799 L41.87930026516423 40.029082858243 L42.35910141697293 39.67171744227945 L43.02085699925413 39.09650827300256 L43.47418504546199 38.72828941234257 L44.33934670558005 38.22076237308506 L45.084494187439944 37.65353107175405 L45.90837607119837 37.02251367260542 L46.78020468864998 36.33639818817249 L47.74095606074197 35.68399032316689 L48.75411598103445 35.2095465638054 L49.773146274590516 34.52642280270413 L50.99525388801859 33.904586003318705 L52.383136858693035 33.23448453758355 L53.60067869533925 32.65391813335538 L55.00394165296117 31.848473630942266 L56.51628134152704 31.38823088920415 L57.82056383097312 30.722813550761895 L59.44244332523065 30.336156316416556 L60.89273326210137 29.649451073675845 L62.505170487768055 29.124652265138106 L64.2630293224566 28.65582029354838 L65.91617861925137 28.322475076995048 L67.54927346500378 27.715235331115174 L69.2821772031962 27.4683605371912 L71.02513560505075 26.91092200479591"/>
    <path d="M 41.38972673155089 25.607612040695006 L41.30193421380921 27.378378908820903 L41.13124577152988 29.326916658395962 L41.22739045194231 31.28150448103846 L40.9673958423068 33.25873198131402 L40.89961627555556 35.16546087281898 L40.98525216881365 36.94580800069451 L40.7165040480264 38.70974581787218 L40.705033524760395 40.45624510511129 L40.59600527043456 42.33939243971613 L40.33321089579945 43.80825434636677 L40.22055507732222 45.21574672871132 L40.276520591851146 46.54719742489147 L40.157966090284674 47.469296809370924 L40.351984177453474 47.89740691220599 L40.36271182096976 48.285072236605906 L40.37299787021466 48.29741113166954 L40.39128563172893 48.098262815629965 L40.339345800831495 48.10812698922855 L40.2892252205096 48.16406152892156 L40.30014091326243 48.14242048243155 L40.30201161854656 48.13971574185839 L40.29109773650866 48.2366338463883 L40.43925773636608 48.280828876916885 L40.42219185902313 48.29007572753444 L40.29805310189878 48.250205603987155 L40.662209543624236 48.25890469148957 L40.659787315924596 48.228228393768106 L40.647905437123974 48.32499805259758 L40.65656818433005 48.310810387468635 L40.58416944757157 48.36451925373137 L40.65769015865941 48.30850018790386 L40.53041657991257 48.35896786364982 L40.42643358514358 48.49079643577909 L39.59734480485568 49.546039839564436 L38.44378261545246 50.71619324575859"/>
    <path d="M 37.3417025506357 40.27569695597788 L37.96198097424884 40.7109791147419 L38.497828606978594 41.34380525339245 L38.79220099856011 41.59885010613218 L39.18120242239287 41.86582036186194 L39.525885107502745 42.07515585599277 L39.9162680471768 42.35533284554939 L40.33758421617782 42.32174398928354 L40.59600527043456 42.33939243971613 L40.861150252448994 42.21372500865533 L41.26074306647155 42.00305590805683 L41.671145290671205 41.70904103100701 L42.17262780091843 41.24869422862931 L42.47681509777056 40.78336306987645 L43.20061756002165 40.400844535860266 L43.699510587688025 39.70534758332738 L44.51802894918361 39.27935142517747 L45.29255790632453 38.65691244105776 L46.05767290773604 37.96320716470036 L47.145894870919996 37.32046691652552 L48.23248273797913 36.59595794139592 L49.28173043967696 35.969462790499605 L50.553148792275174 35.23988064261479 L51.82541224087492 34.56396509044657 L52.979513208715204 33.95397495557411 L54.50544859488474 33.18764536178618 L55.79347594259427 32.658006017281735 L57.28835509870055 32.11522307992255 L58.88148941968808 31.625607571478003 L60.57318540748648 31.065740266408746 L62.144660268077125 30.400222222288026 L63.6788586870821 29.937787341647795 L65.48998158845063 29.617788521653583 L67.06923409729004 29.187555795971083 L68.74178955502023 28.684083344513798 L70.65067181099849 28.352493806820334"/>
    <path d="M 42.158558189404154 25.36410920887988 L41.93079304744617 27.38419977286704 L41.89685917447693 29.21583140865162 L41.90256603451812 31.201399075650308 L41.58024059282448 33.10181799743285 L41.47735818523281 35.072205948625054 L41.426237466298744 36.7518782363965 L41.32976574783941 38.62692638284607 L40.96855881445997 40.40116784469165 L40.861150252448994 42.21372500865533 L40.60915492151685 43.74287759147205 L40.60769329942249 45.0808897387044 L40.29129657375191 46.29826049160824 L40.31325952138725 47.37447993448529 L40.23767229509016 47.80347925020283 L40.372904108910774 48.03803017995983 L40.2847431194374 48.21481300776125 L40.305508090232316 48.13512029540826 L40.33727772492263 48.28671938385713 L40.420499378432815 48.29077182131239 L40.48267291668457 48.18667366424208 L40.436602016004 48.11332765872802 L40.454758648689904 48.12797925693688 L40.36030126518481 48.10062728138363 L40.29173025732424 48.23810813016344 L40.45602572861977 48.2665914328156 L40.46902451476701 48.246874298405174 L40.55463641756754 48.16676267515412 L40.66699265361371 48.27215393966216 L40.6396474619926 48.33488557431186 L40.48297921946747 48.21203190376452 L40.46881394557899 48.28395436875747 L40.51400288109092 48.18128599574947 L40.48584429353445 48.207801323603654 L39.82394428307937 49.17673773847389 L38.789848183865246 50.43531300112194"/>
    <path d="M 37.68229664855067 41.8743620719007 L38.33888665025309 42.27392497715964 L38.64927749437642 42.717184961496244 L38.97457497549125 43.15076870795316 L39.29305265907948 43.54163237588393 L39.7532948900607 43.765098000475675 L39.82433298171876 43.847791599772826 L40.1472961657528 43.98041446570132 L40.33321089579945 43.80825434636677 L40.60915492151685 43.74287759147205 L41.09855175259474 43.49430469517295 L41.234777246176776 43.19046473532461 L41.718147836265445 42.73304548900514 L42.135503360525554 42.29822804017272 L42.731840641405455 41.809771845131245 L43.16062976972362 41.307769661400364 L43.85553059807052 40.765861637001535 L44.76785933887484 39.972073812416184 L45.55009259579416 39.45356033390142 L46.52479432340664 38.74468854479085 L47.60978022845901 38.00703505335338 L48.70929166284923 37.13511174362739 L49.788684900268976 36.46613049753647 L51.245391900220696 35.86115879101739 L52.43059532918087 35.25936872079675 L53.97758207339098 34.60501485458235 L55.44725901517385 33.8777667417945 L56.77911029955933 33.30897683957361 L58.341882879882796 32.83050718959994 L59.99401133771539 32.15289485424743 L61.744790992141105 31.692750666653673 L63.346139819355905 31.159308533848527 L64.93907126144062 30.865969771035427 L66.62665106710338 30.36535867587802 L68.46410286910195 30.042754375881763 L70.31773021128429 29.58325104622152"/>
    <path d="M 42.85730331314756 25.311269872866763 L42.71270049753495 27.285958832706328 L42.74327280211333 29.223653082564176 L42.46444229163813 30.978527825621356 L42.34877153290353 32.86560140080135 L42.08928254197377 34.732309949753386 L41.82498868869268 36.65032081218683 L41.80587037672948 38.489027343531944 L41.505676773939406 40.31756239780799 L41.26074306647155 42.00305590805683 L41.09855175259474 43.49430469517295 L40.80015678238493 44.836449011407744 L40.5703388806081 46.26812727041836 L40.35205384776114 47.19948707233607 L40.299161995368486 47.75284858364012 L40.49384007211545 48.023468863592456 L40.35210897435232 48.18384386428897 L40.29719961752353 48.147101478383476 L40.48206066571799 48.2137024806583 L40.4780200491731 48.23003820776189 L40.399229483128714 48.09921952978414 L40.33214560229869 48.11202455198644 L40.42925725670505 48.28676349762647 L40.42446147533222 48.289084606184666 L40.4223845690342 48.28999416144459 L40.6477667863308 48.2067575112112 L40.60742159494092 48.17442494964032 L40.53023857517662 48.17304742263895 L40.6662965286621 48.25268002291681 L40.49320755275587 48.19868565163206 L40.52959190957156 48.35863757348248 L40.52617533623476 48.17476765220708 L40.570412772677294 48.16602449781659 L40.50042747346501 48.340427577464595 L40.08746055352355 49.05977003333725 L39.231734191003405 50.19129365999204"/>
    <path d="M 38.005073317447554 43.29474675159242 L38.62469972404865 43.81605166227113 L38.842399632182094 44.17125181982388 L39.23149600828153 44.734150132755104 L39.39580491419789 44.91079032236532 L39.63787643739809 45.09437365550179 L39.81658582468781 45.28568634931311 L40.14647622641673 45.407606138414025 L40.22055507732222 45.21574672871132 L40.60769329942249 45.0808897387044 L40.80015678238493 44.836449011407744 L41.12007218626652 44.715617148418275 L41.307115221383945 44.21952663571098 L41.836111866538886 43.92536899745958 L42.229530196547486 43.26378643171345 L42.65490276761955 42.81263790966028 L43.3009157696551 42.20344737416358 L44.17298341606193 41.54464468338024 L45.01223294305774 40.82157183409156 L45.95654865354443 39.930447747184296 L46.90860177490921 39.15976179236 L47.99399278300511 38.601966179600545 L49.2017269848425 37.872701381341365 L50.64990718281011 37.127261989127625 L52.00997928945703 36.45522378445764 L53.24723388907241 35.77295935501288 L54.867715238455574 35.04630179420833 L56.44144794526691 34.60895267949593 L57.93190169346507 34.08355378946384 L59.486432196515 33.51905263091829 L61.23760323820746 33.04079778505697 L62.799718492971536 32.43483278679844 L64.6996557031445 32.04622426258853 L66.39280073486678 31.666708242958432 L68.01703541064924 31.231326050190983 L69.80168452337226 30.85526488801826"/>
    <path d="M 43.843510367707154 25.09094389186912 L43.70412946340515 27.108515013282073 L43.4344427440019 28.888294789053433 L43.29911833709789 30.888222480667128 L42.87643138833632 32.74729225657794 L42.68235293863017 34.67561894168332 L42.4698728982134 36.514045767277786 L42.19287307396506 38.104316954042076 L41.87930026516423 40.029082858243 L41.671145290671205 41.70904103100701 L41.234777246176776 43.19046473532461 L41.12007218626652 44.715617148418275 L40.8731538950687 45.88160789740199 L40.6347486087857 47.03959804150487 L40.45645104866851 47.77778682626253 L40.60129341853812 48.092128948484444 L40.63815507051393 48.195161665569 L40.47737956523106 48.19074488008417 L40.480590322703215 48.12329339220569 L40.28919738667355 48.23174960482457 L40.330107451759936 48.11327147593534 L40.482921533082205 48.206750967457296 L40.29984271778509 48.14286976846293 L40.61093624124314 48.311654084140045 L40.4899077076146 48.20250275185143 L40.635489783668454 48.19293602423303 L40.52737990278174 48.357709164844415 L40.66577841520626 48.24926544563221 L40.53098538483488 48.359190743484284 L40.56215859138512 48.166098704281666 L40.509931697508485 48.34796129261957 L40.46908185760367 48.246581894673376 L40.52728614245604 48.17427628612283 L40.66595002200397 48.250311818784816 L40.20372869475575 49.02927421559137 L39.40522325502101 50.08961285407978"/>
    <path d="M 38.42722315816367 44.59563225172558 L38.68797601250079 45.04431228654873 L39.06803176966833 45.597576483166485 L39.48244498859495 45.93512748442443 L39.50582325199595 46.16943914585795 L39.731688153357446 46.30308550000536 L39.902948143102 46.401632847784455 L40.011644204192535 46.60164440162944 L40.276520591851146 46.54719742489147 L40.29129657375191 46.29826049160824 L40.5703388806081 46.26812727041836 L40.8731538950687 45.88160789740199 L40.98609781824165 45.52665818946579 L41.29738356570486 45.13800007810422 L41.770379002145646 44.8277746747733 L42.16592931397071 44.09722089930569 L42.74330364437805 43.56885598366335 L43.48843201805846 42.718411819444654 L44.237482802272126 42.08481009726431 L45.272180324176155 41.39353364382886 L46.39149698950116 40.509222887137874 L47.34831195201237 39.68727314727613 L48.63287122226799 38.90304853814763 L49.903649623248526 38.19556166463279 L51.43980450045941 37.552464103423276 L52.7741997333925 36.823980636084315 L54.20108823453991 36.284077094661946 L55.95564780541387 35.721436828059076 L57.38612211159868 35.07032894120893 L59.04629863332319 34.6910271419037 L60.73444174184384 34.01594452075137 L62.52451461562111 33.54452240044141 L64.28874381484721 33.123909622781134 L65.86824996806337 32.77169833809453 L67.64484160939759 32.35854343252977 L69.59491920679561 32.07909014059522"/>
    <path d="M 44.669135383943285 24.871609699809746 L44.40219333113651 26.96188224485308 L44.100378029968425 28.7034448899897 L43.853429961568416 30.6728079876301 L43.568095335463035 32.469406211768714 L43.36000397797569 34.202863935843176 L42.97866548167586 36.096790283563266 L42.66959766919037 37.824293968116606 L42.35910141697293 39.67171744227945 L42.17262780091843 41.24869422862931 L41.718147836265445 42.73304548900514 L41.307115221383945 44.21952663571098 L40.98609781824165 45.52665818946579 L40.87616508483442 46.695781581389994 L40.684773413436886 47.49148273241558 L40.46402487680354 48.04527252088705 L40.59017669245622 48.36329312115393 L40.501810543126005 48.19029987299219 L40.47211149313473 48.296976196806796 L40.47439655066179 48.30326187836552 L40.66650061147656 48.25430230462297 L40.52607360382906 48.17481346260215 L40.468225049091316 48.28036494251645 L40.51884439524361 48.17843212165412 L40.506017669635185 48.34508425592338 L40.62091609885608 48.181634639564884 L40.65201076927496 48.318928957415764 L40.475978942813356 48.30698036068962 L40.6468326302395 48.32643787670027 L40.608532470449056 48.35702341542987 L40.48302781582471 48.31998859531167 L40.667181374747145 48.26526220308807 L40.46745178370232 48.273287115329346 L40.66633752049721 48.27895537651572 L40.092715932784216 49.02322847039295 L39.48532256226039 50.24061907488241"/>
    <path d="M 38.74337699981038 45.65447704191948 L38.933210676262505 46.15708114609107 L39.29169452585425 46.48823302402103 L39.47935171701577 46.96050339984768 L39.8559635619921 47.168140314914474 L39.98132593626509 47.299448864249996 L40.10121124309326 47.40617409122544 L40.107915826919275 47.52889557662211 L40.157966090284674 47.469296809370924 L40.31325952138725 47.37447993448529 L40.35205384776114 47.19948707233607 L40.6347486087857 47.03959804150487 L40.87616508483442 46.695781581389994 L41.074575314655455 46.29940074495986 L41.37008911610191 45.86485186378175 L41.70327257887521 45.51730610705598 L42.337540252122075 44.87409505499567 L42.82722927662186 44.072910534383546 L43.73016959884232 43.216444485414 L44.52163415064475 42.49488162921034 L45.684694972481374 41.61446810180367 L46.74719257693375 40.82384367439009 L47.94949587822123 40.08741629007779 L49.462984866085975 39.38260763616229 L50.67386037026923 38.71512316476442 L52.344762436013575 38.03557010120891 L53.87369856577237 37.422680087166874 L55.33790825430768 36.70243477943457 L56.90079888893223 36.28901827142501 L58.59238352740636 35.639925452540595 L60.25439252153004 35.21218366000527 L62.128619833148356 34.6767355696986 L63.932320840889375 34.34934224015841 L65.70233400024331 33.959140018593125 L67.36754162162208 33.44559345643184 L69.2248887785913 33.27668109414356"/>
    <path d="M 45.50417554120839 24.627949874460548 L45.18989890549755 26.656161054096252 L44.90129779857774 28.486886811467464 L44.60883032658187 30.29903740957546 L44.36332085912162 32.05318443369812 L43.98464765585604 34.011142778915705 L43.66220215708914 35.65273410315959 L43.25494383739016 37.45435009423828 L43.02085699925413 39.09650827300256 L42.47681509777056 40.78336306987645 L42.135503360525554 42.29822804017272 L41.836111866538886 43.92536899745958 L41.29738356570486 45.13800007810422 L41.074575314655455 46.29940074495986 L40.68099924858403 47.26764396996757 L40.50270048636948 48.085682734228676 L40.555998535249095 48.16659988650056 L40.65697826295179 48.221961315019044 L40.6175032963386 48.17955500829549 L40.472460609538025 48.29802698021353 L40.50227502867454 48.18990108091268 L40.5506903146002 48.36460278620717 L40.52318193912401 48.35577117426089 L40.597475955562615 48.17067077601648 L40.64210784383022 48.19974243757432 L40.4906030693981 48.2016654594833 L40.53170291974391 48.3594662076705 L40.47609770637987 48.22470122816135 L40.64844094401085 48.32425865120904 L40.555123488842604 48.16670228715694 L40.481991975821344 48.21360503152274 L40.66569094246872 48.248757192118 L40.58513145720336 48.16759611365626 L40.46862878791132 48.24903451087938 L40.14856625747743 49.34387412188408 L39.68382255129934 50.15289046781043"/>
    <path d="M 38.92718624934631 46.62641076291621 L39.35794616792744 46.925337432226314 L39.69928586387086 47.387204704391245 L39.94090018674534 47.71933232411634 L40.03032017608167 47.98305140290166 L40.206990348639856 48.06206748066748 L40.208800265566545 48.114737960708084 L40.32396982619718 47.965808858155164 L40.351984177453474 47.89740691220599 L40.23767229509016 47.80347925020283 L40.299161995368486 47.75284858364012 L40.45645104866851 47.77778682626253 L40.684773413436886 47.49148273241558 L40.68099924858403 47.26764396996757 L41.03482154186308 46.948628309599734 L41.22527676014964 46.647822618925915 L41.65449509847312 45.91115057988968 L42.23025173108318 45.249151689567576 L43.12025560516246 44.39569928189531 L44.0447233125179 43.72850134443054 L44.93329232176693 42.75243482947166 L46.22452146799822 42.07444102683707 L47.45975144732488 41.11643587120969 L48.814908402201574 40.360418597774725 L50.25444223229114 39.64855344254642 L51.60622927655617 39.061438086568856 L53.33802971056203 38.363105507525134 L54.8483054932821 37.94066278170073 L56.63148681562887 37.28202367895081 L58.213295000913334 36.88196664815471 L59.848488253679186 36.28432747845164 L61.784480850095875 35.9039256713053 L63.57078859042381 35.421038528162605 L65.16996429424552 35.06644882558229 L67.17728351208576 34.649254736265455 L68.86463317329532 34.41768695408203"/>
    <path d="M 46.37560214438656 24.51429322431737 L46.08364458143575 26.37270190847839 L45.825760893637025 28.243480347145113 L45.48366821204373 30.066953261210944 L45.19928180710842 31.684109514160966 L44.893201701263884 33.59691081658348 L44.50904305753799 35.29829448474528 L43.9589497257392 36.94328528755032 L43.47418504546199 38.72828941234257 L43.20061756002165 40.400844535860266 L42.731840641405455 41.809771845131245 L42.229530196547486 43.26378643171345 L41.770379002145646 44.8277746747733 L41.37008911610191 45.86485186378175 L41.03482154186308 46.948628309599734 L40.71210526779447 47.97477871577935 L40.49019768109165 48.202151335509555 L40.60426267079475 48.173100592343715 L40.651582672616755 48.31960859904901 L40.50662174402675 48.345547639260694 L40.47656539737899 48.2236842058799 L40.47480916990698 48.227672096066705 L40.51458969431422 48.35102439837774 L40.622044654840096 48.34958035311419 L40.469447675044194 48.287129648890556 L40.65422779643925 48.2167447269824 L40.486592657122245 48.206768875055204 L40.6652256557917 48.24627937735213 L40.66085891754404 48.30097221896943 L40.627509510030606 48.34572710719193 L40.52847939598134 48.17376627351117 L40.607624666042966 48.35743023783613 L40.60748591747033 48.174453248198965 L40.4514944457943 48.36282067683352 L40.19882854095193 49.363745707236525 L40.00541378098417 50.209234894318975"/>
    <path d="M 39.12148856162316 47.28323746991701 L39.51920837837909 47.56731095835324 L39.88934897673363 47.88081394733724 L40.38322867385471 48.16463889269994 L40.48261207067428 48.1861495878959 L40.42835125728453 48.28722635435548 L40.323297117733055 48.27793453890712 L40.35761271786605 48.10130241877184 L40.36271182096976 48.285072236605906 L40.372904108910774 48.03803017995983 L40.49384007211545 48.023468863592456 L40.60129341853812 48.092128948484444 L40.46402487680354 48.04527252088705 L40.50270048636948 48.085682734228676 L40.71210526779447 47.97477871577935 L40.80395600404568 47.47463682315787 L41.25972513999229 47.12654577510813 L41.82197761035652 46.41207884819367 L42.499772674334615 45.655018217233156 L43.40611355755657 44.67219388870111 L44.446393527185876 43.89657994425131 L45.447780014817475 42.94301263794188 L46.75600495760207 42.28435486728237 L48.22486468498436 41.52046848709375 L49.562068904875446 40.75824865606899 L51.24253537228381 40.11694075724707 L52.77379499955239 39.514334254954434 L54.382608125685884 38.74031876450286 L56.18688574604111 38.25989769820689 L57.830804867474534 37.89835124762074 L59.636134685764326 37.27201379049674 L61.39487365545497 36.826685029983366 L63.097418589375934 36.59882224695912 L65.04231587811567 36.10741674441222 L66.87650559425035 35.7850643625517 L68.57651054476541 35.54019174034215"/>
    <path d="M 47.39874383613487 24.226005218206126 L47.165355453505065 25.985082154438913 L46.71523278677074 27.88569793851473 L46.46017694688752 29.6254538253852 L46.0842291487266 31.35319613150439 L45.4829416952958 33.12221024028425 L45.18460491877864 34.75442905032487 L44.70494955741537 36.640354689602546 L44.33934670558005 38.22076237308506 L43.699510587688025 39.70534758332738 L43.16062976972362 41.307769661400364 L42.65490276761955 42.81263790966028 L42.16592931397071 44.09722089930569 L41.70327257887521 45.51730610705598 L41.22527676014964 46.647822618925915 L40.80395600404568 47.47463682315787 L40.66652759789355 48.27741040508337 L40.46765404029109 48.27565779611226 L40.62002465128706 48.181073271097475 L40.65663695525001 48.31067303001184 L40.46784885603429 48.25445933023492 L40.61588635921836 48.3533111796354 L40.59400040889951 48.3623096522964 L40.667054136045074 48.26087969205189 L40.52570454875687 48.35696391453221 L40.504626310631984 48.187956021393205 L40.63088811232185 48.343055252099454 L40.52918846219323 48.17347183178539 L40.56093611807074 48.16616772051605 L40.59876158086898 48.36085570461052 L40.46916743506076 48.246153846647026 L40.64217095648116 48.199813903678475 L40.48155754006479 48.317626272676044 L40.42031817169098 48.777663882605864 L40.483446370005325 49.73042002101455 L40.316055196994135 50.50487746697282"/>
    <path d="M 39.5670137823156 47.76045134165687 L39.937760373137785 47.94059832574098 L40.361942646030286 48.295634756107454 L40.336847421397046 48.28649493298657 L40.30553741781006 48.26080452886506 L40.34468720981583 48.105703955102435 L40.452866356950445 48.269790792578185 L40.28671861314208 48.17205818642604 L40.37299787021466 48.29741113166954 L40.2847431194374 48.21481300776125 L40.35210897435232 48.18384386428897 L40.63815507051393 48.195161665569 L40.59017669245622 48.36329312115393 L40.555998535249095 48.16659988650056 L40.49019768109165 48.202151335509555 L40.66652759789355 48.27741040508337 L40.79682414879418 47.912905829645105 L41.06364277399693 47.41135311475364 L41.883087761008944 46.638092230267894 L42.576268720478524 45.74195836602269 L43.77034796432546 44.886115069534 L44.80394175082523 43.97927422827969 L46.15738798144928 43.01796296989546 L47.715288346996985 42.34464205966688 L49.01729664601739 41.579283125730846 L50.59239284398708 40.99924542488578 L52.2582703907003 40.243565319209814 L54.04753648334264 39.70713981488772 L55.68206174605271 39.15107454757308 L57.32513480837182 38.78184173028022 L59.098055386412675 38.31359326837909 L61.0158397025051 38.01570265757698 L62.71046276872627 37.5413445049223 L64.60670655645083 37.27663803297602 L66.40526896938115 36.81081208924158 L68.26291976337924 36.57958289099434"/>
    <path d="M 48.386699048121 23.683304606541736 L48.084888842920314 25.521438693330353 L47.74951591255401 27.372229649480605 L47.22147478366767 29.26339466133524 L46.920798356554464 30.852457349464522 L46.49353331652435 32.58409980321278 L46.06597897099056 34.34675630126146 L45.58658189066625 36.0257558884688 L45.084494187439944 37.65353107175405 L44.51802894918361 39.27935142517747 L43.85553059807052 40.765861637001535 L43.3009157696551 42.20344737416358 L42.74330364437805 43.56885598366335 L42.337540252122075 44.87409505499567 L41.65449509847312 45.91115057988968 L41.25972513999229 47.12654577510813 L40.79682414879418 47.912905829645105 L40.61011416858318 48.175656290290895 L40.489591319899226 48.32905477889964 L40.662395528597536 48.23539875485662 L40.66633204344553 48.25294757461376 L40.5265547038867 48.17459802308059 L40.4693933553303 48.24506756985675 L40.51088039653129 48.34861566128485 L40.47223469687355 48.23459323053027 L40.4999328131563 48.19196362809867 L40.47025307105994 48.24138750080113 L40.48220469774433 48.318684174437976 L40.60469286162345 48.35867120997008 L40.66368321166929 48.292199863437276 L40.524675186389835 48.17545711101788 L40.52508105049154 48.17526761319524 L40.63053619891265 48.46449797664988 L40.67750303008888 49.04141008773628 L40.64458528552024 49.78736245881375 L40.70261606638879 50.50975133669853"/>
    <path d="M 39.81410984978427 47.87613472819799 L40.44177285898732 48.11681409843 L40.482641360143695 48.20948966916261 L40.29327756025163 48.24146604508487 L40.283864970352866 48.208464265861586 L40.48245372390411 48.211003263206315 L40.48163337492954 48.21617964808122 L40.29327846529072 48.154420604697705 L40.39128563172893 48.098262815629965 L40.305508090232316 48.13512029540826 L40.29719961752353 48.147101478383476 L40.47737956523106 48.19074488008417 L40.501810543126005 48.19029987299219 L40.65697826295179 48.221961315019044 L40.60426267079475 48.173100592343715 L40.46765404029109 48.27565779611226 L40.61011416858318 48.175656290290895 L40.67292881082327 48.26824655204073 L41.070856478116845 47.48662675697231 L41.94136566092135 46.6544415898297 L43.041070440324674 45.57188845599611 L44.18361980194686 44.75067568714268 L45.655156010605005 43.83536143615029 L47.060807402926585 43.05306466908186 L48.58885332908178 42.538928649980186 L50.22778258706425 41.88483333051681 L51.928936511423764 41.262363277361416 L53.46559337986608 40.691933345870744 L55.24055953050405 40.07020012877849 L56.966455306915165 39.712850335568454 L58.77956285214589 39.22259557514146 L60.78012691313216 38.89895238038086 L62.43296567157508 38.59149301811092 L64.3331671627249 38.30144435857192 L66.23200712773426 37.80353270582889 L68.21594995137038 37.628067489107764"/>
    <path d="M 49.438297226728324 23.32651234228388 L49.107938914872896 25.233649196695403 L48.70297028276585 27.03433147631442 L48.114287318110605 28.760232906650153 L47.874222978885 30.452127921197793 L47.41011809497827 32.11379365630546 L46.93638493693628 33.80512493436302 L46.238436148391656 35.4110288349316 L45.90837607119837 37.02251367260542 L45.29255790632453 38.65691244105776 L44.76785933887484 39.972073812416184 L44.17298341606193 41.54464468338024 L43.48843201805846 42.718411819444654 L42.82722927662186 44.072910534383546 L42.23025173108318 45.249151689567576 L41.82197761035652 46.41207884819367 L41.06364277399693 47.41135311475364 L40.67292881082327 48.26824655204073 L40.480547849294254 48.315914275758274 L40.57126150755633 48.36588918686086 L40.49981303525347 48.192072646451116 L40.49170741478564 48.33157190424497 L40.638241110791945 48.19560992087847 L40.496539911513665 48.33674966455285 L40.577471653421696 48.365441758617266 L40.52950194640518 48.35860102677412 L40.59659980828887 48.17039670992074 L40.64385400173949 48.20177192811706 L40.59585873051605 48.170171761616736 L40.63243031110847 48.190190396660405 L40.641931662904966 48.33240105009218 L40.661969987126355 48.29784078863922 L40.719004631478285 48.732427244670944 L41.08948576711559 49.46683209195994 L41.19192687140166 50.12380966966185 L41.54404782514748 50.62506705999956"/>
    <path d="M 40.186410450045706 48.228768571070866 L40.35806767204295 48.29470593172978 L40.32802697498699 48.28127359847348 L40.32654204180141 48.11561935569617 L40.35991307458648 48.100719880210825 L40.31601175473442 48.271910034442385 L40.440563701867674 48.279932202718314 L40.28339039690565 48.19393710896514 L40.339345800831495 48.10812698922855 L40.33727772492263 48.28671938385713 L40.48206066571799 48.2137024806583 L40.480590322703215 48.12329339220569 L40.47211149313473 48.296976196806796 L40.6175032963386 48.17955500829549 L40.651582672616755 48.31960859904901 L40.62002465128706 48.181073271097475 L40.489591319899226 48.32905477889964 L40.480547849294254 48.315914275758274 L40.54294485951419 48.36299023628397 L41.37795091788177 47.28502630622868 L42.35538894371507 46.466837866057 L43.79216289610003 45.529068811224505 L44.997444591773075 44.73086811910358 L46.53170260434451 43.796628611729446 L48.15693759752699 43.0998052422085 L49.84251731128891 42.6201991258896 L51.434976652612896 41.89472101221493 L53.27792927198988 41.476142121955974 L55.00770243648515 41.085979965456254 L56.6999075689495 40.490063966130045 L58.65819107599948 40.19762297959612 L60.30057385508765 39.85884036305867 L62.258368828084365 39.6070594443053 L64.04506518120105 39.144473690034715 L65.98892601351552 39.02421193326493 L67.88173890836397 38.765734887855224"/>
    <path d="M 50.39439229881636 23.10639164780052 L50.05957190222077 24.68679083367613 L49.67871618981127 26.443822027202646 L49.116158257903535 28.307090693787185 L48.64930292227054 29.961353888964084 L48.294229707087446 31.525865560171844 L47.86572537224028 33.291910821907045 L47.17229655308349 34.91424770961425 L46.78020468864998 36.33639818817249 L46.05767290773604 37.96320716470036 L45.55009259579416 39.45356033390142 L45.01223294305774 40.82157183409156 L44.237482802272126 42.08481009726431 L43.73016959884232 43.216444485414 L43.12025560516246 44.39569928189531 L42.499772674334615 45.655018217233156 L41.883087761008944 46.638092230267894 L41.070856478116845 47.48662675697231 L40.54294485951419 48.36299023628397 L40.664565673747596 48.24323935282742 L40.5350309039871 48.360662297827766 L40.61272056599239 48.35500275373743 L40.64819600783443 48.20734610084175 L40.66717416327009 48.26736753492859 L40.66544765742345 48.284525880275424 L40.59314191024825 48.16940019897223 L40.5437524973664 48.36318845314045 L40.47317209099758 48.30005725665089 L40.492861680783896 48.33287682724587 L40.65683050981772 48.221661130611835 L40.56195056589231 48.16610938864042 L40.88709862526575 48.70580620456097 L41.164129183250125 49.08053305156368 L41.57135229262156 49.716853504822645 L41.890529215447536 50.28143961473326 L42.26155538437356 50.678552797053605"/>
    <path d="M 40.286040512667064 48.22115269908015 L40.442894463163476 48.11763422996544 L40.32927196943959 48.28208630035301 L40.30935035099558 48.26524922911353 L40.45984623330907 48.26230431830563 L40.286464451985246 48.173025901064676 L40.45177281935774 48.12505494016911 L40.4803358399333 48.22215173053613 L40.2892252205096 48.16406152892156 L40.420499378432815 48.29077182131239 L40.4780200491731 48.23003820776189 L40.28919738667355 48.23174960482457 L40.47439655066179 48.30326187836552 L40.472460609538025 48.29802698021353 L40.50662174402675 48.345547639260694 L40.65663695525001 48.31067303001184 L40.662395528597536 48.23539875485662 L40.57126150755633 48.36588918686086 L40.664565673747596 48.24323935282742 L40.84946385027893 48.05671568488231 L41.87347268397257 47.18595443974734 L43.209616578765605 46.22922452078201 L44.57663583991545 45.407476444602146 L46.17014575905132 44.60926417247764 L47.600877882279796 43.913793149578495 L49.294006068599 43.20158822679105 L50.99328112129468 42.68836451007215 L52.84294248713278 42.154003002888786 L54.72468428789269 41.855966528292456 L56.50097036791449 41.51215135345136 L58.248623353257166 40.97852408654856 L60.13845766915073 40.843837968660296 L61.978734524073715 40.35789319321117 L63.92842604642066 40.27364074831676 L65.70654095812908 39.928464460775345 L67.63476761462361 39.63184377986795"/>
    <path d="M 51.61831740494742 22.55227347028854 L51.20082497959095 24.415443282256323 L50.739486907188386 25.982259874067616 L50.29436943851799 27.860366321893448 L49.745997633713344 29.53496637484419 L49.33590586412232 31.165680704546578 L48.68612625779925 32.63072372822939 L48.15327258288715 34.299086394063835 L47.74095606074197 35.68399032316689 L47.145894870919996 37.32046691652552 L46.52479432340664 38.74468854479085 L45.95654865354443 39.930447747184296 L45.272180324176155 41.39353364382886 L44.52163415064475 42.49488162921034 L44.0447233125179 43.72850134443054 L43.40611355755657 44.67219388870111 L42.576268720478524 45.74195836602269 L41.94136566092135 46.6544415898297 L41.37795091788177 47.28502630622868 L40.84946385027893 48.05671568488231 L40.595800990300326 48.170154497891644 L40.66235395376627 48.296675127453256 L40.621807184869915 48.182209020638076 L40.54306117559522 48.36301922274444 L40.48235941214517 48.213011928550344 L40.4921850689757 48.332117468380176 L40.48052291562918 48.315870997455356 L40.66470700017275 48.24385349022539 L40.61354967503119 48.17737091940547 L40.743058471878264 48.20480119588538 L41.08703787294145 48.575176855135375 L41.500171964959726 48.80638393834561 L41.93748304076436 49.20198335936441 L42.46079528616492 49.856698650397654 L42.77389297921401 50.24995917350938 L43.1650238259205 50.895882904358"/>
    <path d="M 40.28566774268083 48.219530698673175 L40.37041305983687 48.297109108154054 L40.30221819855371 48.25646013094156 L40.33909259577214 48.28763714942866 L40.483107316012116 48.19157940844897 L40.36396554903438 48.0998331546448 L40.483295365217316 48.19622891762977 L40.41968812857537 48.291092730960855 L40.30014091326243 48.14242048243155 L40.48267291668457 48.18667366424208 L40.399229483128714 48.09921952978414 L40.330107451759936 48.11327147593534 L40.66650061147656 48.25430230462297 L40.50227502867454 48.18990108091268 L40.47656539737899 48.2236842058799 L40.46784885603429 48.25445933023492 L40.66633204344553 48.25294757461376 L40.49981303525347 48.192072646451116 L40.5350309039871 48.360662297827766 L40.595800990300326 48.170154497891644 L41.24245029155743 47.56077345019274 L42.66936453946486 46.787359972151464 L44.02200021279527 45.813727471658034 L45.75330047678333 45.19071157147626 L47.41501932320512 44.50080320631984 L49.08573220938063 43.99620609005972 L50.6966820018615 43.50060200947357 L52.6400680135023 43.02380634547434 L54.34469193714723 42.68650706414301 L56.1844162197124 42.3319909631043 L58.14742379390071 41.96677259885118 L59.86911949309334 41.69776314840714 L61.74206493596088 41.309732545804295 L63.63063905884752 41.09729459978299 L65.53762744484254 40.915898332520094 L67.53588615458445 40.801198818542645"/>
    <path d="M 52.728778059833424 22.09675081356879 L52.28536405781096 23.80616436366029 L51.879094473834776 25.665963471448745 L51.27828910648586 27.343039718041656 L50.86861131154545 29.01153437636184 L50.44292707085854 30.46284865974946 L49.89385925233737 32.01098603302002 L49.282716316079714 33.72532908727 L48.75411598103445 35.2095465638054 L48.23248273797913 36.59595794139592 L47.60978022845901 38.00703505335338 L46.90860177490921 39.15976179236 L46.39149698950116 40.509222887137874 L45.684694972481374 41.61446810180367 L44.93329232176693 42.75243482947166 L44.446393527185876 43.89657994425131 L43.77034796432546 44.886115069534 L43.041070440324674 45.57188845599611 L42.35538894371507 46.466837866057 L41.87347268397257 47.18595443974734 L41.24245029155743 47.56077345019274 L40.92522980242249 48.10753697088369 L40.48086007670814 48.31645203667498 L40.50207621899272 48.34187354406029 L40.589012749390065 48.36356078347916 L40.4697020087108 48.243672544814814 L40.61984684076209 48.35098185128948 L40.796488848115985 48.312675071206584 L41.32394870213777 48.28114308105847 L41.674099496895145 48.49190267729854 L41.992338083836955 48.692827759006406 L42.465968075560525 49.09013462088469 L42.85708069756628 49.43220961393742 L43.39463194577315 50.054728105208476 L43.87418636879837 50.63428210400201 L44.410643606077514 51.27280525541505"/>
    <path d="M 40.32624615515428 48.28006434789046 L40.43553757361323 48.283221976329926 L40.33075402959759 48.112868637310314 L40.383765323665756 48.09794529723028 L40.445288419295565 48.11946696968733 L40.41093479797896 48.2940529227335 L40.41431503926526 48.293016298914495 L40.412367905955584 48.10225913856217 L40.30201161854656 48.13971574185839 L40.436602016004 48.11332765872802 L40.33214560229869 48.11202455198644 L40.482921533082205 48.206750967457296 L40.52607360382906 48.17481346260215 L40.5506903146002 48.36460278620717 L40.47480916990698 48.227672096066705 L40.61588635921836 48.3533111796354 L40.5265547038867 48.17459802308059 L40.49170741478564 48.33157190424497 L40.61272056599239 48.35500275373743 L40.66235395376627 48.296675127453256 L40.92522980242249 48.10753697088369 L42.187838160824214 47.02347516155485 L43.732715347866495 46.21451192590362 L45.313839676225555 45.528276317177856 L46.93805842355262 44.95663385301937 L48.69383091551929 44.61143983727116 L50.44021274599626 43.98928158383287 L52.24648341701982 43.7496770438111 L54.07604321164048 43.394727058733224 L56.0840728349622 42.95374017567767 L57.97437688608267 42.710384402924554 L59.679942415843946 42.431419533416324 L61.76061147613587 42.21682570682478 L63.64525859953009 42.12749063232326 L65.40148767717022 41.8519162723153 L67.49451590943201 41.77014987981767"/>
    <path d="M 53.83140321046717 21.635799155308355 L53.47934158504116 23.3616876024217 L52.92014282466509 25.019608039857978 L52.429039927359966 26.68049278625388 L51.94400843806513 28.293636146181548 L51.54531162471918 30.04239233642241 L50.906209489343475 31.420558677106072 L50.43063249044113 33.10357534482497 L49.773146274590516 34.52642280270413 L49.28173043967696 35.969462790499605 L48.70929166284923 37.13511174362739 L47.99399278300511 38.601966179600545 L47.34831195201237 39.68727314727613 L46.74719257693375 40.82384367439009 L46.22452146799822 42.07444102683707 L45.447780014817475 42.94301263794188 L44.80394175082523 43.97927422827969 L44.18361980194686 44.75067568714268 L43.79216289610003 45.529068811224505 L43.209616578765605 46.22922452078201 L42.66936453946486 46.787359972151464 L42.187838160824214 47.02347516155485 L41.981282827938195 47.367370087781644 L41.633333463430574 47.56959920738841 L41.61984064904178 47.675954676359495 L41.579549408612586 47.828222824647874 L41.940671824182225 47.89407142353515 L42.01472650581249 47.98775056983597 L42.529246247986954 48.22718795279148 L42.844194814079614 48.5071301355735 L43.33157105578258 48.68984454904466 L43.61330780209268 49.200416770780166 L44.029721381827066 49.60893197912129 L44.673803770702364 50.20918523449669 L45.19156871679834 50.79959888794454 L45.7187107797641 51.397470977227854"/>
    <path d="M 40.35566912617564 48.10184026645184 L40.321897974953096 48.11902307522927 L40.28332767770443 48.19606820970755 L40.30085524696315 48.25452341604004 L40.46525713842605 48.255256383077615 L40.29948698720014 48.14341271601934 L40.424045995216204 48.2892710646836 L40.32393347463046 48.27840803503738 L40.29109773650866 48.2366338463883 L40.454758648689904 48.12797925693688 L40.42925725670505 48.28676349762647 L40.29984271778509 48.14286976846293 L40.468225049091316 48.28036494251645 L40.52318193912401 48.35577117426089 L40.51458969431422 48.35102439837774 L40.59400040889951 48.3623096522964 L40.4693933553303 48.24506756985675 L40.638241110791945 48.19560992087847 L40.64819600783443 48.20734610084175 L40.621807184869915 48.182209020638076 L40.48086007670814 48.31645203667498 L41.981282827938195 47.367370087781644 L43.41988423333194 46.58637843239807 L44.97071236444819 46.02544799401475 L46.78668080723273 45.4246451633525 L48.41088202950465 45.05666801991156 L50.39025581342914 44.6214541988007 L52.22542156499795 44.309706487218186 L53.88906241030827 44.07190985645009 L55.839779929322816 43.85975455283318 L57.754646283650814 43.427663814165015 L59.53940468186535 43.336950134661826 L61.554690914325086 43.23115639268694 L63.43113294196738 42.872021415800056 L65.4912365134606 42.851329199968276 L67.33391722455151 42.776127586225506"/>
    <path d="M 55.14167238409497 21.23126285159716 L54.67512861428229 22.880808865212725 L54.069605811269476 24.582734876314472 L53.78535346120466 26.267326866072494 L53.27665871906698 27.772693262716697 L52.64544199254313 29.481006256161134 L52.22377450674372 30.97956701631551 L51.68418973800557 32.32181357244997 L50.99525388801859 33.904586003318705 L50.553148792275174 35.23988064261479 L49.788684900268976 36.46613049753647 L49.2017269848425 37.872701381341365 L48.63287122226799 38.90304853814763 L47.94949587822123 40.08741629007779 L47.45975144732488 41.11643587120969 L46.75600495760207 42.28435486728237 L46.15738798144928 43.01796296989546 L45.655156010605005 43.83536143615029 L44.997444591773075 44.73086811910358 L44.57663583991545 45.407476444602146 L44.02200021279527 45.813727471658034 L43.732715347866495 46.21451192590362 L43.41988423333194 46.58637843239807 L43.33035324009416 47.0385479691179 L43.08036278694868 47.25716405904266 L43.218625374260775 47.51464424624167 L43.23170075029535 47.606805667436234 L43.526089558431224 47.92650243306702 L43.86928156797084 47.99248089660518 L44.135396536773314 48.3221536899517 L44.61409514532392 48.69181001005981 L44.90985687812303 49.25205570253506 L45.44023336236651 49.65834455359154 L45.84702713425874 50.34213357425688 L46.52352938237718 51.074595736588535 L46.892280911749104 51.70342011053935"/>
    <path d="M 40.325338788706986 48.20043236853795 L40.3872375656387 48.098021416531594 L40.35758725705017 48.29457932949485 L40.40497876586749 48.29556837675237 L40.421626945133376 48.10557642179055 L40.415978402887156 48.10343087267468 L40.2892873106188 48.231998910518605 L40.426020150714464 48.10752385556762 L40.43925773636608 48.280828876916885 L40.36030126518481 48.10062728138363 L40.42446147533222 48.289084606184666 L40.61093624124314 48.311654084140045 L40.51884439524361 48.17843212165412 L40.597475955562615 48.17067077601648 L40.622044654840096 48.34958035311419 L40.667054136045074 48.26087969205189 L40.51088039653129 48.34861566128485 L40.496539911513665 48.33674966455285 L40.66717416327009 48.26736753492859 L40.54306117559522 48.36301922274444 L40.50207621899272 48.34187354406029 L41.633333463430574 47.56959920738841 L43.33035324009416 47.0385479691179 L44.99113765464662 46.42807143174145 L46.661467793675705 45.88291874831454 L48.45486333820384 45.61188902431155 L50.2287597325458 45.158092839608514 L52.100314603193574 44.923510451811524 L53.96522851426004 44.71459282852163 L55.778898283073765 44.39568705987676 L57.737346504122385 44.337541738877434 L59.4842178480407 44.06574225868275 L61.405694833360776 44.06867670974265 L63.35590205234723 43.95500602120322 L65.30754185741034 43.84670577593156 L67.2860721576656 43.746381402998765"/>
    <path d="M 56.4113834050039 20.84681111785119 L55.90565812823561 22.581277198732568 L55.31713891866735 24.154215735188153 L54.899056075440974 25.813742107536488 L54.52809911111201 27.335435214640814 L54.00078903879413 28.89181892127673 L53.321902773058156 30.25672271970991 L52.936245815653855 31.8332074465588 L52.383136858693035 33.23448453758355 L51.82541224087492 34.56396509044657 L51.245391900220696 35.86115879101739 L50.64990718281011 37.127261989127625 L49.903649623248526 38.19556166463279 L49.462984866085975 39.38260763616229 L48.814908402201574 40.360418597774725 L48.22486468498436 41.52046848709375 L47.715288346996985 42.34464205966688 L47.060807402926585 43.05306466908186 L46.53170260434451 43.796628611729446 L46.17014575905132 44.60926417247764 L45.75330047678333 45.19071157147626 L45.313839676225555 45.528276317177856 L44.97071236444819 46.02544799401475 L44.99113765464662 46.42807143174145 L44.91014924837584 46.768232194119804 L44.90247362413103 46.98927906258259 L44.847707651954906 47.30414213807813 L45.05269672184378 47.59894236986945 L45.313327071813895 48.09081407733168 L45.721097015599184 48.51076192992059 L46.044762499104195 48.76410664637962 L46.386228083092924 49.39975581710431 L46.927165333098486 49.83832885747449 L47.441267266482626 50.665785613362566 L47.869138922118594 51.18251908253377 L48.35074456754619 51.99163027909969"/>
    <path d="M 40.10666557962084 48.166635545391365 L40.306169335754795 48.134310104766286 L40.316258907690944 48.123754365996774 L40.2845873571506 48.18201239586536 L40.483238265630405 48.19415514768128 L40.419665878103785 48.10478710440563 L40.4032344201136 48.2959392639367 L40.343952016583785 48.28987327151235 L40.42219185902313 48.29007572753444 L40.29173025732424 48.23810813016344 L40.4223845690342 48.28999416144459 L40.4899077076146 48.20250275185143 L40.506017669635185 48.34508425592338 L40.64210784383022 48.19974243757432 L40.469447675044194 48.287129648890556 L40.52570454875687 48.35696391453221 L40.47223469687355 48.23459323053027 L40.577471653421696 48.365441758617266 L40.66544765742345 48.284525880275424 L40.48235941214517 48.213011928550344 L40.589012749390065 48.36356078347916 L41.61984064904178 47.675954676359495 L43.08036278694868 47.25716405904266 L44.91014924837584 46.768232194119804 L46.51579141351457 46.469436654988044 L48.39222383864135 46.05426841326496 L50.052689477370606 45.87103911422076 L51.98321526539627 45.65166913614343 L53.8587240777478 45.45742852470395 L55.74548175864188 45.295378717622604 L57.53201711267432 45.14298667531266 L59.485787233590706 45.046393263292806 L61.5234438468903 44.79905743247215 L63.45587954824506 44.71299481281186 L65.26818527368307 44.58725624406499 L67.27480328058631 44.708566676325155"/>
    <path d="M 57.533273711347924 20.43873600750038 L57.15226832053821 21.909466995132433 L56.74516882293363 23.709554028474873 L56.16018430053726 25.277232005603352 L55.820248075603466 26.79614699022017 L55.324583820547524 28.261851752104064 L54.709934037728594 29.635984741685593 L54.21607775090882 31.081253501238542 L53.60067869533925 32.65391813335538 L52.979513208715204 33.95397495557411 L52.43059532918087 35.25936872079675 L52.00997928945703 36.45522378445764 L51.43980450045941 37.552464103423276 L50.67386037026923 38.71512316476442 L50.25444223229114 39.64855344254642 L49.562068904875446 40.75824865606899 L49.01729664601739 41.579283125730846 L48.58885332908178 42.538928649980186 L48.15693759752699 43.0998052422085 L47.600877882279796 43.913793149578495 L47.41501932320512 44.50080320631984 L46.93805842355262 44.95663385301937 L46.78668080723273 45.4246451633525 L46.661467793675705 45.88291874831454 L46.51579141351457 46.469436654988044 L46.523102206929046 46.659659186960326 L46.54574022699994 47.0833553485591 L46.831554047600896 47.45658556784183 L47.10565971125452 47.91685875216906 L47.24327058262703 48.50636782031325 L47.630008872330194 48.860042894678074 L48.07096668576911 49.41970490493929 L48.42416857044448 50.219926994149034 L48.84919269688125 50.843737186569264 L49.343045564077414 51.534144653075025 L50.046926269622205 52.34327722719091"/>
    <path d="M 39.781703716881516 48.40648871678773 L40.30070415471216 48.24018857966198 L40.417955647142215 48.10413762709975 L40.28420165299151 48.18462059669231 L40.30336108742229 48.25801221296625 L40.34660129105574 48.290962887817045 L40.288777931617844 48.230558264740154 L40.44181859135734 48.2790414489828 L40.29805310189878 48.250205603987155 L40.45602572861977 48.2665914328156 L40.6477667863308 48.2067575112112 L40.635489783668454 48.19293602423303 L40.62091609885608 48.181634639564884 L40.4906030693981 48.2016654594833 L40.65422779643925 48.2167447269824 L40.504626310631984 48.187956021393205 L40.4999328131563 48.19196362809867 L40.52950194640518 48.35860102677412 L40.59314191024825 48.16940019897223 L40.4921850689757 48.332117468380176 L40.4697020087108 48.243672544814814 L41.579549408612586 47.828222824647874 L43.218625374260775 47.51464424624167 L44.90247362413103 46.98927906258259 L46.523102206929046 46.659659186960326 L48.2301303344125 46.591392253445754 L50.199027752531364 46.35584295588386 L51.924106325999084 46.061094450650174 L53.82924200178398 45.92728190653344 L55.68408145907184 46.016640651041584 L57.70337295946092 45.81434673428744 L59.41907396462003 45.76466060181342 L61.34437615536983 45.678604159385515 L63.274630495825186 45.660676080988374 L65.39630698027433 45.66183975036725 L67.32234154580108 45.50290893928989"/>
    <path d="M 59.02894640291405 19.8686192731957 L58.59121791233489 21.549802438351165 L58.09042498181144 23.204942967512448 L57.641993332095694 24.628133245250357 L56.99601549470272 26.14839722348831 L56.47233756136566 27.6855527605766 L55.95621662631023 29.151387310723717 L55.46676765106971 30.500095335400054 L55.00394165296117 31.848473630942266 L54.50544859488474 33.18764536178618 L53.97758207339098 34.60501485458235 L53.24723388907241 35.77295935501288 L52.7741997333925 36.823980636084315 L52.344762436013575 38.03557010120891 L51.60622927655617 39.061438086568856 L51.24253537228381 40.11694075724707 L50.59239284398708 40.99924542488578 L50.22778258706425 41.88483333051681 L49.84251731128891 42.6201991258896 L49.294006068599 43.20158822679105 L49.08573220938063 43.99620609005972 L48.69383091551929 44.61143983727116 L48.41088202950465 45.05666801991156 L48.45486333820384 45.61188902431155 L48.39222383864135 46.05426841326496 L48.2301303344125 46.591392253445754 L48.453269494196235 46.918151539107974 L48.60612871493554 47.39881703899614 L48.71054500610128 48.054204416377154 L49.08675979904705 48.42347399239613 L49.435699223338034 49.08591033982605 L49.658443393526575 49.77264136019068 L50.10814073798544 50.25792605184028 L50.65920053055526 51.08086629939025 L51.10653448573809 51.93624319097284 L51.627574551703475 52.70681603655382"/>
    <path d="M 39.43910259966327 48.59142865500849 L40.092549967044114 48.32762551191522 L40.28343492139555 48.34747418652849 L40.449150387108496 48.139639982047804 L40.48127786957072 48.17788654734889 L40.401273644521396 48.29631758200632 L40.36683445668988 48.29657769290219 L40.28411054809956 48.21057173916684 L40.662209543624236 48.25890469148957 L40.46902451476701 48.246874298405174 L40.60742159494092 48.17442494964032 L40.52737990278174 48.357709164844415 L40.65201076927496 48.318928957415764 L40.53170291974391 48.3594662076705 L40.486592657122245 48.206768875055204 L40.63088811232185 48.343055252099454 L40.47025307105994 48.24138750080113 L40.59659980828887 48.17039670992074 L40.5437524973664 48.36318845314045 L40.48052291562918 48.315870997455356 L40.61984684076209 48.35098185128948 L41.940671824182225 47.89407142353515 L43.23170075029535 47.606805667436234 L44.847707651954906 47.30414213807813 L46.54574022699994 47.0833553485591 L48.453269494196235 46.918151539107974 L50.09534292775755 46.7975435412879 L51.92195149834166 46.717195126109445 L53.95980280104114 46.7393055578312 L55.85913710294265 46.64143162850821 L57.56499832529479 46.55719093609434 L59.644734289947465 46.63239154552386 L61.407012915096324 46.49577881890946 L63.34357650790663 46.604725009663646 L65.43354356647366 46.47537204318691 L67.19791197075702 46.55698652913363"/>
    <path d="M 60.38315064411047 19.513988956342057 L59.79804069324357 21.13035386706257 L59.31416245796306 22.668474225337068 L59.00708365029834 24.103438614982224 L58.41863110705528 25.78023416991621 L58.05198704379901 27.12255532402227 L57.55564969703848 28.58985560569047 L56.86087759804363 29.945334153963515 L56.51628134152704 31.38823088920415 L55.79347594259427 32.658006017281735 L55.44725901517385 33.8777667417945 L54.867715238455574 35.04630179420833 L54.20108823453991 36.284077094661946 L53.87369856577237 37.422680087166874 L53.33802971056203 38.363105507525134 L52.77379499955239 39.514334254954434 L52.2582703907003 40.243565319209814 L51.928936511423764 41.262363277361416 L51.434976652612896 41.89472101221493 L50.99328112129468 42.68836451007215 L50.6966820018615 43.50060200947357 L50.44021274599626 43.98928158383287 L50.39025581342914 44.6214541988007 L50.2287597325458 45.158092839608514 L50.052689477370606 45.87103911422076 L50.199027752531364 46.35584295588386 L50.09534292775755 46.7975435412879 L50.29520449234272 47.498500890436425 L50.41149192850548 47.966743905702394 L50.73911806089972 48.46402831186754 L50.97102284554966 49.21491045004995 L51.513985717300656 49.88654250680548 L51.90360934636253 50.576419565958155 L52.31914065151667 51.39015497305962 L52.74738771702053 52.10833681433789 L53.22822958512312 52.99348621934342"/>
    <path d="M 39.20645089870107 48.72003540470529 L39.679115970800446 48.40337964024823 L40.12719150293234 48.41589545868546 L40.44410440800526 48.37314949040365 L40.49179072725727 48.200277074202866 L40.5782109502236 48.16658219511422 L40.57900977951842 48.365270636397646 L40.528189323730324 48.17388857185248 L40.659787315924596 48.228228393768106 L40.55463641756754 48.16676267515412 L40.53023857517662 48.17304742263895 L40.66577841520626 48.24926544563221 L40.475978942813356 48.30698036068962 L40.47609770637987 48.22470122816135 L40.6652256557917 48.24627937735213 L40.52918846219323 48.17347183178539 L40.48220469774433 48.318684174437976 L40.64385400173949 48.20177192811706 L40.47317209099758 48.30005725665089 L40.66470700017275 48.24385349022539 L40.796488848115985 48.312675071206584 L42.01472650581249 47.98775056983597 L43.526089558431224 47.92650243306702 L45.05269672184378 47.59894236986945 L46.831554047600896 47.45658556784183 L48.60612871493554 47.39881703899614 L50.29520449234272 47.498500890436425 L52.10323374753209 47.27252458149329 L54.04292738153814 47.437218696301464 L55.949970926605396 47.29141070881956 L57.662161367077566 47.37596436416647 L59.62772529416261 47.28865262228219 L61.556489163222196 47.31064572126142 L63.4538843431097 47.3532300920743 L65.53416541956244 47.45163240533294 L67.36930749511775 47.61078547312773"/>
    <path d="M 61.80843831571673 18.99471477049684 L61.340083275012404 20.65194000304698 L60.9169736012448 22.137665735611982 L60.38252350541409 23.76776037238639 L59.85485970314995 25.26645145943337 L59.29862459441547 26.657172517483517 L58.81717207056085 28.006209260788392 L58.483233171523096 29.386884791757435 L57.82056383097312 30.722813550761895 L57.28835509870055 32.11522307992255 L56.77911029955933 33.30897683957361 L56.44144794526691 34.60895267949593 L55.95564780541387 35.721436828059076 L55.33790825430768 36.70243477943457 L54.8483054932821 37.94066278170073 L54.382608125685884 38.74031876450286 L54.04753648334264 39.70713981488772 L53.46559337986608 40.691933345870744 L53.27792927198988 41.476142121955974 L52.84294248713278 42.154003002888786 L52.6400680135023 43.02380634547434 L52.24648341701982 43.7496770438111 L52.22542156499795 44.309706487218186 L52.100314603193574 44.923510451811524 L51.98321526539627 45.65166913614343 L51.924106325999084 46.061094450650174 L51.92195149834166 46.717195126109445 L52.10323374753209 47.27252458149329 L52.223557963319806 48.007360306528774 L52.46653332090582 48.604081855295 L52.842117069180794 49.428758657386474 L53.269155957493986 50.044514400482356 L53.54281254712419 50.71654289164309 L53.83988764529275 51.65886350673341 L54.436499240293486 52.55624796957239 L54.83139159148111 53.49823740500571"/>
    <path d="M 38.82138041189778 49.219507636217145 L39.43741864360626 48.85341339267557 L39.924943001262974 48.56943063638536 L40.348747311259054 48.378255073742245 L40.65050409792266 48.21067548437889 L40.628149237202635 48.345239166320326 L40.58390982635747 48.16738106194416 L40.47263445455088 48.23340852557539 L40.647905437123974 48.32499805259758 L40.66699265361371 48.27215393966216 L40.6662965286621 48.25268002291681 L40.53098538483488 48.359190743484284 L40.6468326302395 48.32643787670027 L40.64844094401085 48.32425865120904 L40.66085891754404 48.30097221896943 L40.56093611807074 48.16616772051605 L40.60469286162345 48.35867120997008 L40.59585873051605 48.170171761616736 L40.492861680783896 48.33287682724587 L40.61354967503119 48.17737091940547 L41.32394870213777 48.28114308105847 L42.529246247986954 48.22718795279148 L43.86928156797084 47.99248089660518 L45.313327071813895 48.09081407733168 L47.10565971125452 47.91685875216906 L48.71054500610128 48.054204416377154 L50.41149192850548 47.966743905702394 L52.223557963319806 48.007360306528774 L54.07106723624186 48.07106589420186 L55.95506177656028 48.1532161864999 L57.971381950927274 48.22211989170873 L59.88404715783457 48.270021047460766 L61.68165071798873 48.18130151657049 L63.60163615834042 48.250401069578494 L65.6497257267897 48.44134385828148 L67.47987845127909 48.38931403733509"/>
    <path d="M 63.06539202187482 18.602301015893932 L62.79957578818193 20.15899741409078 L62.36240415647941 21.643815717619333 L61.90664491230938 23.159761521762828 L61.43896850288162 24.692809390675748 L60.96998828478426 26.117838576252016 L60.368612817407616 27.43081204252459 L59.804420212518565 28.889344346878115 L59.44244332523065 30.336156316416556 L58.88148941968808 31.625607571478003 L58.341882879882796 32.83050718959994 L57.93190169346507 34.08355378946384 L57.38612211159868 35.07032894120893 L56.90079888893223 36.28901827142501 L56.63148681562887 37.28202367895081 L56.18688574604111 38.25989769820689 L55.68206174605271 39.15107454757308 L55.24055953050405 40.07020012877849 L55.00770243648515 41.085979965456254 L54.72468428789269 41.855966528292456 L54.34469193714723 42.68650706414301 L54.07604321164048 43.394727058733224 L53.88906241030827 44.07190985645009 L53.96522851426004 44.71459282852163 L53.8587240777478 45.45742852470395 L53.82924200178398 45.92728190653344 L53.95980280104114 46.7393055578312 L54.04292738153814 47.437218696301464 L54.07106723624186 48.07106589420186 L54.385632813002644 48.83830031892278 L54.6672671783614 49.37459228392447 L54.85713487047466 50.25353266744205 L55.34552022815622 51.13898729594822 L55.59024719455821 51.85291438744037 L56.156795887534884 52.72378076509244 L56.463802776652024 53.82064134062439"/>
    <path d="M 38.3375982511963 49.79203173790723 L38.851797766755666 49.20732354721236 L39.68242955598644 48.820900717888556 L40.27242221277096 48.50700852619851 L40.637344113097555 48.33722924331386 L40.52232834630647 48.17659685808866 L40.46777131822205 48.276795447391045 L40.612879394001155 48.35492133855641 L40.65656818433005 48.310810387468635 L40.6396474619926 48.33488557431186 L40.49320755275587 48.19868565163206 L40.56215859138512 48.166098704281666 L40.608532470449056 48.35702341542987 L40.555123488842604 48.16670228715694 L40.627509510030606 48.34572710719193 L40.59876158086898 48.36085570461052 L40.66368321166929 48.292199863437276 L40.63243031110847 48.190190396660405 L40.65683050981772 48.221661130611835 L40.743058471878264 48.20480119588538 L41.674099496895145 48.49190267729854 L42.844194814079614 48.5071301355735 L44.135396536773314 48.3221536899517 L45.721097015599184 48.51076192992059 L47.24327058262703 48.50636782031325 L49.08675979904705 48.42347399239613 L50.73911806089972 48.46402831186754 L52.46653332090582 48.604081855295 L54.385632813002644 48.83830031892278 L56.202838884584764 48.744083911537444 L58.00837313947304 48.90902128605972 L59.95875250195939 48.956267670401076 L61.79292048071039 49.11514673926391 L63.8108686153447 49.36606046871281 L65.79320213159168 49.41709162666795 L67.5830640998605 49.57088292564098"/>
    <path d="M 64.51534242984881 18.1189096416338 L64.09085838115529 19.617949095421096 L63.806661584395144 21.269214457614382 L63.37817317044589 22.635406045225526 L62.8154989174425 24.265190616696547 L62.480652879018685 25.624532334214607 L61.8186363739262 27.043352037155554 L61.37398717888018 28.311543118228187 L60.89273326210137 29.649451073675845 L60.57318540748648 31.065740266408746 L59.99401133771539 32.15289485424743 L59.486432196515 33.51905263091829 L59.04629863332319 34.6910271419037 L58.59238352740636 35.639925452540595 L58.213295000913334 36.88196664815471 L57.830804867474534 37.89835124762074 L57.32513480837182 38.78184173028022 L56.966455306915165 39.712850335568454 L56.6999075689495 40.490063966130045 L56.50097036791449 41.51215135345136 L56.1844162197124 42.3319909631043 L56.0840728349622 42.95374017567767 L55.839779929322816 43.85975455283318 L55.778898283073765 44.39568705987676 L55.74548175864188 45.295378717622604 L55.68408145907184 46.016640651041584 L55.85913710294265 46.64143162850821 L55.949970926605396 47.29141070881956 L55.95506177656028 48.1532161864999 L56.202838884584764 48.744083911537444 L56.436704410774816 49.71005001999778 L56.82003500352536 50.52003919494622 L56.995702046289075 51.269354126634184 L57.41789947904795 52.07257788012303 L57.934574708637925 53.07570249870727 L58.220802055863935 54.16127789146509"/>
    <path d="M 37.79505227207369 50.50577741440594 L38.31593264537244 49.77911288128445 L39.03724575439973 49.26080155791426 L39.83735462959808 48.6375213797829 L40.3704409849073 48.40115110505551 L40.49915984397312 48.33927125297604 L40.47117503643342 48.23800275081813 L40.51519480406945 48.18054909054888 L40.58416944757157 48.36451925373137 L40.48297921946747 48.21203190376452 L40.52959190957156 48.35863757348248 L40.509931697508485 48.34796129261957 L40.48302781582471 48.31998859531167 L40.481991975821344 48.21360503152274 L40.52847939598134 48.17376627351117 L40.46916743506076 48.246153846647026 L40.524675186389835 48.17545711101788 L40.641931662904966 48.33240105009218 L40.56195056589231 48.16610938864042 L41.08703787294145 48.575176855135375 L41.992338083836955 48.692827759006406 L43.33157105578258 48.68984454904466 L44.61409514532392 48.69181001005981 L46.044762499104195 48.76410664637962 L47.630008872330194 48.860042894678074 L49.435699223338034 49.08591033982605 L50.97102284554966 49.21491045004995 L52.842117069180794 49.428758657386474 L54.6672671783614 49.37459228392447 L56.436704410774816 49.71005001999778 L58.36433282474884 49.67433138468919 L60.279347441325065 49.98485271734084 L62.075739045336306 50.164311017513214 L64.02513303848983 50.29862130482939 L65.91060708096667 50.445281044419815 L67.74553507173432 50.3982310349157"/>
    <path d="M 66.20848833876978 17.67141275636385 L65.62537492943521 19.126928251873977 L65.19702036762098 20.64949362402142 L64.72428247184254 22.24964110536366 L64.47190289398115 23.656565212532417 L63.83663403957104 25.07934868766796 L63.386102877139244 26.56520629638526 L62.93820804521108 27.940335349318744 L62.505170487768055 29.124652265138106 L62.144660268077125 30.400222222288026 L61.744790992141105 31.692750666653673 L61.23760323820746 33.04079778505697 L60.73444174184384 34.01594452075137 L60.25439252153004 35.21218366000527 L59.848488253679186 36.28432747845164 L59.636134685764326 37.27201379049674 L59.098055386412675 38.31359326837909 L58.77956285214589 39.22259557514146 L58.65819107599948 40.19762297959612 L58.248623353257166 40.97852408654856 L58.14742379390071 41.96677259885118 L57.97437688608267 42.710384402924554 L57.754646283650814 43.427663814165015 L57.737346504122385 44.337541738877434 L57.53201711267432 45.14298667531266 L57.70337295946092 45.81434673428744 L57.56499832529479 46.55719093609434 L57.662161367077566 47.37596436416647 L57.971381950927274 48.22211989170873 L58.00837313947304 48.90902128605972 L58.36433282474884 49.67433138468919 L58.602895985985846 50.72306333557228 L58.97461936538663 51.585923506551985 L59.278297645189205 52.333177580919966 L59.63277178790484 53.288670909215064 L59.90166068976011 54.36151898442801"/>
    <path d="M 37.23105686568669 51.35122675094337 L37.837753391903355 50.62071454487813 L38.525506733020954 49.761130162584244 L39.2817167246433 49.202565499302686 L39.82988439979568 48.82206445243706 L40.46398969886722 48.240079307321025 L40.65815642601681 48.307493421131745 L40.61983493359512 48.35098922656423 L40.65769015865941 48.30850018790386 L40.46881394557899 48.28395436875747 L40.52617533623476 48.17476765220708 L40.46908185760367 48.246581894673376 L40.667181374747145 48.26526220308807 L40.66569094246872 48.248757192118 L40.607624666042966 48.35743023783613 L40.64217095648116 48.199813903678475 L40.52508105049154 48.17526761319524 L40.661969987126355 48.29784078863922 L40.88709862526575 48.70580620456097 L41.500171964959726 48.80638393834561 L42.465968075560525 49.09013462088469 L43.61330780209268 49.200416770780166 L44.90985687812303 49.25205570253506 L46.386228083092924 49.39975581710431 L48.07096668576911 49.41970490493929 L49.658443393526575 49.77264136019068 L51.513985717300656 49.88654250680548 L53.269155957493986 50.044514400482356 L54.85713487047466 50.25353266744205 L56.82003500352536 50.52003919494622 L58.602895985985846 50.72306333557228 L60.467427223588786 50.710224485582465 L62.41517283294501 50.944828330875914 L64.28401788989068 51.23383163420662 L66.1164051259599 51.24348207349048 L68.09536469938371 51.52265726514005"/>
    <path d="M 67.62300912479857 17.320173251037097 L67.31186416584828 18.80699898756013 L66.7085843592679 20.23980147780706 L66.36872068012224 21.863694733347952 L65.86878571756105 23.288964680986254 L65.42715397222659 24.708407817229375 L64.96900235398374 26.06076105738324 L64.52664490826955 27.398680336682308 L64.2630293224566 28.65582029354838 L63.6788586870821 29.937787341647795 L63.346139819355905 31.159308533848527 L62.799718492971536 32.43483278679844 L62.52451461562111 33.54452240044141 L62.128619833148356 34.6767355696986 L61.784480850095875 35.9039256713053 L61.39487365545497 36.826685029983366 L61.0158397025051 38.01570265757698 L60.78012691313216 38.89895238038086 L60.30057385508765 39.85884036305867 L60.13845766915073 40.843837968660296 L59.86911949309334 41.69776314840714 L59.679942415843946 42.431419533416324 L59.53940468186535 43.336950134661826 L59.4842178480407 44.06574225868275 L59.485787233590706 45.046393263292806 L59.41907396462003 45.76466060181342 L59.644734289947465 46.63239154552386 L59.62772529416261 47.28865262228219 L59.88404715783457 48.270021047460766 L59.95875250195939 48.956267670401076 L60.279347441325065 49.98485271734084 L60.467427223588786 50.710224485582465 L60.7279751933444 51.632279462090914 L61.06943408697123 52.78293590822441 L61.36853064514522 53.57841954814657 L61.7685271080391 54.7935746012776"/>
    <path d="M 36.51592362935683 52.1677025348382 L37.22124860792337 51.432018443279894 L37.788374012238286 50.6070623824348 L38.52490628447531 50.13267001151528 L39.0714442366158 49.42830963759398 L39.78813601552456 48.803015838369845 L40.33493140885455 48.38623105158345 L40.467609477049315 48.256756336372774 L40.53041657991257 48.35896786364982 L40.51400288109092 48.18128599574947 L40.570412772677294 48.16602449781659 L40.52728614245604 48.17427628612283 L40.46745178370232 48.273287115329346 L40.58513145720336 48.16759611365626 L40.60748591747033 48.174453248198965 L40.48155754006479 48.317626272676044 L40.63053619891265 48.46449797664988 L40.719004631478285 48.732427244670944 L41.164129183250125 49.08053305156368 L41.93748304076436 49.20198335936441 L42.85708069756628 49.43220961393742 L44.029721381827066 49.60893197912129 L45.44023336236651 49.65834455359154 L46.927165333098486 49.83832885747449 L48.42416857044448 50.219926994149034 L50.10814073798544 50.25792605184028 L51.90360934636253 50.576419565958155 L53.54281254712419 50.71654289164309 L55.34552022815622 51.13898729594822 L56.995702046289075 51.269354126634184 L58.97461936538663 51.585923506551985 L60.7279751933444 51.632279462090914 L62.56996842562569 51.85038321610285 L64.5483111389004 52.10352043005193 L66.36050116412994 52.25927172632887 L68.14754163266046 52.486892380442995"/>
    <path d="M 69.28573188600018 16.824513381753142 L68.75917323105843 18.426772557978477 L68.3076696069512 19.913075517781834 L67.86496816192785 21.357753917117165 L67.60240021651431 22.841924038481697 L67.01847433731425 24.154367038717652 L66.76024982305276 25.646494461216545 L66.28735699225246 26.83652310029203 L65.91617861925137 28.322475076995048 L65.48998158845063 29.617788521653583 L64.93907126144062 30.865969771035427 L64.6996557031445 32.04622426258853 L64.28874381484721 33.123909622781134 L63.932320840889375 34.34934224015841 L63.57078859042381 35.421038528162605 L63.097418589375934 36.59882224695912 L62.71046276872627 37.5413445049223 L62.43296567157508 38.59149301811092 L62.258368828084365 39.6070594443053 L61.978734524073715 40.35789319321117 L61.74206493596088 41.309732545804295 L61.76061147613587 42.21682570682478 L61.554690914325086 43.23115639268694 L61.405694833360776 44.06867670974265 L61.5234438468903 44.79905743247215 L61.34437615536983 45.678604159385515 L61.407012915096324 46.49577881890946 L61.556489163222196 47.31064572126142 L61.68165071798873 48.18130151657049 L61.79292048071039 49.11514673926391 L62.075739045336306 50.164311017513214 L62.41517283294501 50.944828330875914 L62.56996842562569 51.85038321610285 L62.82184825516339 52.864416674849394 L63.257986149049295 54.03805516448178 L63.66981865404086 55.00382044366696"/>
    <path d="M 36.56081330549605 52.092633030716634 L36.59410077342062 52.07864907347184 L36.963008613416996 51.61133292289318 L37.71827774430958 51.07630010556444 L38.42527778439554 50.335125763275606 L38.984878585676725 49.69080532056183 L39.5846643985125 49.17815955188331 L40.03334722769534 48.9026396042703 L40.42643358514358 48.49079643577909 L40.48584429353445 48.207801323603654 L40.50042747346501 48.340427577464595 L40.66595002200397 48.250311818784816 L40.66633752049721 48.27895537651572 L40.46862878791132 48.24903451087938 L40.4514944457943 48.36282067683352 L40.42031817169098 48.777663882605864 L40.67750303008888 49.04141008773628 L41.08948576711559 49.46683209195994 L41.57135229262156 49.716853504822645 L42.46079528616492 49.856698650397654 L43.39463194577315 50.054728105208476 L44.673803770702364 50.20918523449669 L45.84702713425874 50.34213357425688 L47.441267266482626 50.665785613362566 L48.84919269688125 50.843737186569264 L50.65920053055526 51.08086629939025 L52.31914065151667 51.39015497305962 L53.83988764529275 51.65886350673341 L55.59024719455821 51.85291438744037 L57.41789947904795 52.07257788012303 L59.278297645189205 52.333177580919966 L61.06943408697123 52.78293590822441 L62.82184825516339 52.864416674849394 L64.67932528081258 53.24244670659658 L66.6983169718834 53.4346762793854 L68.53309734725265 53.69974843011732"/>
    <path d="M 70.7703538757615 16.48149889426286 L70.35147995346819 17.809492486375788 L69.92566201126877 19.497777592194147 L69.5728888936702 20.981713173931254 L69.17832479782425 22.42575631066995 L68.83849283204114 23.78454656815734 L68.28517791868813 25.218109485742122 L67.96191179168858 26.39398650371311 L67.54927346500378 27.715235331115174 L67.06923409729004 29.187555795971083 L66.62665106710338 30.36535867587802 L66.39280073486678 31.666708242958432 L65.86824996806337 32.77169833809453 L65.70233400024331 33.959140018593125 L65.16996429424552 35.06644882558229 L65.04231587811567 36.10741674441222 L64.60670655645083 37.27663803297602 L64.3331671627249 38.30144435857192 L64.04506518120105 39.144473690034715 L63.92842604642066 40.27364074831676 L63.63063905884752 41.09729459978299 L63.64525859953009 42.12749063232326 L63.43113294196738 42.872021415800056 L63.35590205234723 43.95500602120322 L63.45587954824506 44.71299481281186 L63.274630495825186 45.660676080988374 L63.34357650790663 46.604725009663646 L63.4538843431097 47.3532300920743 L63.60163615834042 48.250401069578494 L63.8108686153447 49.36606046871281 L64.02513303848983 50.29862130482939 L64.28401788989068 51.23383163420662 L64.5483111389004 52.10352043005193 L64.67932528081258 53.24244670659658 L64.99542737981895 54.12702941080202 L65.38199362199971 55.38096356385731"/>
    <path d="M 36.71518514300908 52.16776903847119 L36.51652249948684 52.190222852926794 L36.53842241942388 52.11267304250621 L36.6989502835554 52.134952618931045 L37.29446599660176 51.388581108236295 L37.947246788114306 50.762816731064 L38.61158913108592 50.232674864522544 L39.00982895878638 49.95781546171481 L39.59734480485568 49.546039839564436 L39.82394428307937 49.17673773847389 L40.08746055352355 49.05977003333725 L40.20372869475575 49.02927421559137 L40.092715932784216 49.02322847039295 L40.14856625747743 49.34387412188408 L40.19882854095193 49.363745707236525 L40.483446370005325 49.73042002101455 L40.64458528552024 49.78736245881375 L41.19192687140166 50.12380966966185 L41.890529215447536 50.28143961473326 L42.77389297921401 50.24995917350938 L43.87418636879837 50.63428210400201 L45.19156871679834 50.79959888794454 L46.52352938237718 51.074595736588535 L47.869138922118594 51.18251908253377 L49.343045564077414 51.534144653075025 L51.10653448573809 51.93624319097284 L52.74738771702053 52.10833681433789 L54.436499240293486 52.55624796957239 L56.156795887534884 52.72378076509244 L57.934574708637925 53.07570249870727 L59.63277178790484 53.288670909215064 L61.36853064514522 53.57841954814657 L63.257986149049295 54.03805516448178 L64.99542737981895 54.12702941080202 L66.89373090906612 54.36316894674081 L68.71105837970428 54.61648361270548"/>
    <path d="M 72.33192788607977 16.067911096390684 L71.88676688001381 17.52299834211607 L71.59532725426313 19.090897505014482 L71.29563678281782 20.480090519742376 L70.85010038167641 21.99072328111071 L70.37654754446302 23.22222722876621 L70.07307100196002 24.780996427471788 L69.7045349655049 26.014408735479897 L69.2821772031962 27.4683605371912 L68.74178955502023 28.684083344513798 L68.46410286910195 30.042754375881763 L68.01703541064924 31.231326050190983 L67.64484160939759 32.35854343252977 L67.36754162162208 33.44559345643184 L67.17728351208576 34.649254736265455 L66.87650559425035 35.7850643625517 L66.40526896938115 36.81081208924158 L66.23200712773426 37.80353270582889 L65.98892601351552 39.02421193326493 L65.70654095812908 39.928464460775345 L65.53762744484254 40.915898332520094 L65.40148767717022 41.8519162723153 L65.4912365134606 42.851329199968276 L65.30754185741034 43.84670577593156 L65.26818527368307 44.58725624406499 L65.39630698027433 45.66183975036725 L65.43354356647366 46.47537204318691 L65.53416541956244 47.45163240533294 L65.6497257267897 48.44134385828148 L65.79320213159168 49.41709162666795 L65.91060708096667 50.445281044419815 L66.1164051259599 51.24348207349048 L66.36050116412994 52.25927172632887 L66.6983169718834 53.4346762793854 L66.89373090906612 54.36316894674081 L67.29437257841599 55.61026373334247"/>
    <path d="M 36.57439812419146 52.08518186586479 L36.52290616154617 52.2139622090485 L36.70592472749741 52.219131161095035 L36.71191970207658 52.14961599731639 L36.51649375883642 52.162626060765014 L36.88754204053182 51.85626050196838 L37.673977429803685 51.41393742041113 L38.07173562069617 51.09357523402792 L38.44378261545246 50.71619324575859 L38.789848183865246 50.43531300112194 L39.231734191003405 50.19129365999204 L39.40522325502101 50.08961285407978 L39.48532256226039 50.24061907488241 L39.68382255129934 50.15289046781043 L40.00541378098417 50.209234894318975 L40.316055196994135 50.50487746697282 L40.70261606638879 50.50975133669853 L41.54404782514748 50.62506705999956 L42.26155538437356 50.678552797053605 L43.1650238259205 50.895882904358 L44.410643606077514 51.27280525541505 L45.7187107797641 51.397470977227854 L46.892280911749104 51.70342011053935 L48.35074456754619 51.99163027909969 L50.046926269622205 52.34327722719091 L51.627574551703475 52.70681603655382 L53.22822958512312 52.99348621934342 L54.83139159148111 53.49823740500571 L56.463802776652024 53.82064134062439 L58.220802055863935 54.16127789146509 L59.90166068976011 54.36151898442801 L61.7685271080391 54.7935746012776 L63.66981865404086 55.00382044366696 L65.38199362199971 55.38096356385731 L67.29437257841599 55.61026373334247 L68.94959827891664 55.81184125629754"/>
    <path d="M 74.09501665692487 15.583036767442392 L73.66106498642388 17.184347806348 L73.15688288226555 18.64659644204836 L72.88429883145574 19.95687001735251 L72.37569257243699 21.458506407716435 L72.03299781742122 22.82153858486799 L71.74950873581143 24.202858833381086 L71.26080912278262 25.573962427279618 L71.02513560505075 26.91092200479591 L70.65067181099849 28.352493806820334 L70.31773021128429 29.58325104622152 L69.80168452337226 30.85526488801826 L69.59491920679561 32.07909014059522 L69.2248887785913 33.27668109414356 L68.86463317329532 34.41768695408203 L68.57651054476541 35.54019174034215 L68.26291976337924 36.57958289099434 L68.21594995137038 37.628067489107764 L67.88173890836397 38.765734887855224 L67.63476761462361 39.63184377986795 L67.53588615458445 40.801198818542645 L67.49451590943201 41.77014987981767 L67.33391722455151 42.776127586225506 L67.2860721576656 43.746381402998765 L67.27480328058631 44.708566676325155 L67.32234154580108 45.50290893928989 L67.19791197075702 46.55698652913363 L67.36930749511775 47.61078547312773 L67.47987845127909 48.38931403733509 L67.5830640998605 49.57088292564098 L67.74553507173432 50.3982310349157 L68.09536469938371 51.52265726514005 L68.14754163266046 52.486892380442995 L68.53309734725265 53.69974843011732 L68.71105837970428 54.61648361270548 L68.94959827891664 55.81184125629754"/>
  </g>
  <g style="fill: none; stroke-linecap: round;stroke-linejoin: round; stroke-width: 0.5; stroke: #09f;">
  </g>
  <g style="fill: none; stroke-linecap: round;stroke-linejoin: round; stroke-width: 0.5; stroke: #f09;">
  </g></svg>