<?xml version="1.0" encoding="utf-8"?><svg version="1.1" xmlns="http://www.w3.org/2000/svg" xmlns:xlink="http://www.w3.org/1999/xlink" width="148" height="105" viewbox="0 0 148 105">
  <g style="fill: none; stroke-linecap: round;stroke-linejoin: round; stroke-width: 0.25; stroke: #000;">
    <path d="M 51.37061357154856 33.18899133108737 L52.729965958073265 33.309370628873516 L54.46499287196248 33.10548474963608 L56.250646572021736 32.650242598877256 L58.10675673488493 32.28790545690354 L60.38934401051343 32.06392019234944 L62.62427593678816 31.819129589046746 L64.76744663439 31.75838535291275 L67.07882932444429 31.786080501691508 L69.39521689649101 32.120198315506194 L71.26570174218358 32.25032159259797 L73.04902609849995 32.54925041460705 L74.36046246660294 32.64376394148311 L75.72771792097643 32.389874806090695 L77.3917971961979 31.91928810523255 L79.24822225115352 30.86455848873164 L81.38425038517845 30.068846790900768 L83.93695746560141 29.039145157843695 L86.64790398272855 28.317074773817488 L89.7300691637595 27.565379075733333 L92.71531515998119 26.92958521177449 L95.80564056594973 26.327614395986814 L98.9241535916966 25.81595874664302 L102.00461063977829 25.169437423794605"/>
    <path d="M 51.37061357154856 33.18899133108737 L51.48845569640798 35.8809546529743 L51.641878655263504 38.63806166937647 L51.71523041003921 41.054946001319976 L51.566010136045556 41.07441223997208 L51.698584596003016 41.07406239342307 L51.57693094075082 40.91595950804557 L51.718284258044164 40.948647309834406 L51.731309758767054 41.01190970988718 L51.55287142926355 43.31132774044823 L51.250836250616025 46.17630134811243 L51.15113263456476 48.803201364955925 L50.93420778610733 51.67804461869651 L50.62522176857526 54.65564407277513 L50.28204998113431 57.522577222088955 L50.287633040860406 60.51852981019814 L50.05409960886428 63.4850633274664 L50.05773517723804 66.59558682936343 L50.13104546984322 69.55419889533104 L50.20006043776239 69.61431338208659 L50.16348937582505 69.59685982213328 L50.32146717463763 69.53936730794858 L50.12390005652931 69.8935119704054 L49.38152552405519 73.00388812581159"/>
    <path d="M 51.48845569640798 35.8809546529743 L52.580284881057196 35.95560266325925 L54.13073806298691 35.487025975386125 L55.820341002147906 35.0022264146875 L57.75947484347598 34.6004772542175 L59.81894779346567 34.11808602260872 L62.18870544359316 33.79921626445861 L64.7736657763783 33.59895600066915 L67.15481920709374 33.638909688392964 L69.40446127608 33.985878102789215 L71.62657860098163 34.513766379740865 L73.17074218890957 34.996686647724374 L74.49832502458516 35.25427000632059 L75.39546378765127 35.12335054616255 L76.52765934053411 34.51365981015699 L78.36217350559835 33.36756277136393 L80.65449578472227 32.29739049401031 L83.26843804342985 31.494822216563843 L85.99869183326277 30.644389475731042 L89.10272738398002 29.762858397651335 L92.11700006607394 29.07467343615765 L95.31740507434695 28.54765077734351 L98.42099077451105 28.010992769223478 L101.59861372562368 27.595858686428397"/>
    <path d="M 52.729965958073265 33.309370628873516 L52.580284881057196 35.95560266325925 L52.23551422406591 38.39198905735103 L51.548286766370325 41.002178431212506 L51.57038891523985 41.07805232493449 L51.69508522377181 41.07703585941201 L51.729605691913626 40.977169975975514 L51.55702616989151 40.9333043190443 L51.58796658515086 41.11606386380133 L52.09288407924545 43.489015575471576 L52.49591701481414 46.11233647223824 L52.3097655963317 48.80603962567907 L52.30620979048084 51.43622380774329 L52.06511740829542 54.46384615523969 L51.801804193586065 57.19112285749382 L51.65010140661431 60.26784027145231 L51.29182367675922 63.24912174631571 L50.71098115570905 66.43765289178774 L50.14415000674021 69.54238151651862 L50.20654135685102 69.4187370435894 L50.2565850449939 69.4226836848738 L50.32359919658872 69.52561282448141 L50.17729007632767 69.60565492699176 L50.401593218788676 72.79925344678668"/>
    <path d="M 51.641878655263504 38.63806166937647 L52.23551422406591 38.39198905735103 L53.49359483387187 37.92208252115111 L55.13485545686195 37.149801831249974 L57.08276567575114 36.34886430378597 L59.50417824811642 35.86727044949581 L61.87722177458744 35.4710810829896 L64.6250178910289 35.315585352549256 L67.08482292133395 35.42357000900115 L69.65614247529643 35.497918358965634 L72.05372989259739 36.19870933801286 L73.75961116897466 37.02172418716404 L74.65064697603815 37.83869563708886 L75.1082409297971 37.97646854067273 L75.63740721514873 36.96407370009237 L77.34462483267768 35.60946049727462 L79.74977899139591 34.39961260246818 L82.33557772586519 33.43217181260408 L85.38545102024446 32.540154417663864 L88.36739764473326 31.882170892562648 L91.52392872271089 31.4352614169194 L94.70676213759815 30.89818508981429 L98.06359848562589 30.315409233345104 L101.41785681557484 30.02561224213827"/>
    <path d="M 54.46499287196248 33.10548474963608 L54.13073806298691 35.487025975386125 L53.49359483387187 37.92208252115111 L52.527567506158306 40.0186994809421 L51.64080605491688 41.09898481809135 L51.5639960922998 41.07258944030035 L51.71234918795081 40.9396985175584 L51.548095841345024 40.94511200299707 L52.39236872007145 42.1113769882216 L53.13594510266409 44.08814217140984 L53.63626110086661 46.287405380845286 L53.86291319446231 48.96717714594177 L53.71919003281507 51.554793598703 L53.5899745126678 54.1311497507669 L53.28494570885195 56.97504729218248 L52.878601474244 59.96775274931545 L52.48686245660501 62.99160860081182 L51.880143954493896 65.89115966442061 L50.81462008648061 68.65737718378205 L50.12621161809379 69.53834349162163 L50.2487276498979 69.61409203184071 L50.3061552223583 69.460264179013 L50.48631754424695 69.89698099209687 L51.37814936741869 72.98938519003171"/>
    <path d="M 51.71523041003921 41.054946001319976 L51.548286766370325 41.002178431212506 L52.527567506158306 40.0186994809421 L54.04545817775081 38.87738191984982 L56.359318949577315 38.02093253689516 L58.779024489088926 37.46345520384248 L61.618085286817035 37.085868790716965 L64.20196197719676 36.80382999927296 L67.0075498060638 36.833055632396 L69.81727896880331 36.98422350728726 L72.40507372656307 37.399657223313724 L74.59519687160031 38.39547954913181 L74.8636911336371 38.6282157840175 L75.02104735112759 38.576881607863996 L75.02017451832207 38.57974750725114 L76.22469787970383 37.39415062408151 L78.86170138908925 36.144932108448124 L81.60717678583686 35.28139855343756 L84.80694788410521 34.62049057632919 L88.00345093745207 34.01850032451815 L91.2646887615347 33.47166146694592 L94.44676706484849 32.91955421197483 L97.81294504783877 32.65273002189663 L101.07223406477449 32.40255424463176"/>
    <path d="M 56.250646572021736 32.650242598877256 L55.820341002147906 35.0022264146875 L55.13485545686195 37.149801831249974 L54.04545817775081 38.87738191984982 L53.026904304540935 40.26546727252047 L52.28560892553318 40.80377654830719 L52.439271032842456 41.169718629443125 L53.03803714417104 41.59767140370706 L53.97255448610734 43.02249758205288 L54.78664704504187 44.586555628040166 L55.29010925497012 46.75284131049526 L55.4984399421786 49.01687308971888 L55.391901207000195 51.585983910183 L55.141895480235675 54.05281004398559 L54.86259470307384 56.73751544884267 L54.60353375188852 59.62728200330314 L53.953578278356105 62.303371920726796 L53.08793012457907 65.19161059208025 L52.005985702306845 67.56043290500686 L50.73766341987597 69.31442970066925 L50.3098014116776 69.46592572889612 L50.2135721650527 69.56730963147726 L51.676212009915126 71.0206920493247 L52.60865102311622 73.53909001613854"/>
    <path d="M 51.566010136045556 41.07441223997208 L51.57038891523985 41.07805232493449 L51.64080605491688 41.09898481809135 L53.026904304540935 40.26546727252047 L55.5766018462886 39.5475789884399 L58.27861930792446 38.83925162712441 L61.24018210053578 38.51969924310231 L64.04200881646852 38.33953141347916 L67.05443389547068 38.082965326028074 L69.95665046629087 37.89416425985641 L72.94327132137923 38.095533411025585 L74.91033091094948 38.64810743625376 L74.8981170870937 38.64551323338948 L74.8496950123113 38.61502548647646 L74.93135878922482 38.4493881973956 L75.06985414244303 38.586178044798906 L77.96616742544553 37.53192215877463 L81.08641174689619 36.831638415777384 L84.26631270613824 36.154612626738135 L87.60650376452176 35.695866271401314 L90.74993909102483 35.43977913794522 L94.06997778603034 35.174240697684745 L97.42319960037639 34.72940015880017 L100.7011070988982 34.522976169745256"/>
    <path d="M 58.10675673488493 32.28790545690354 L57.75947484347598 34.6004772542175 L57.08276567575114 36.34886430378597 L56.359318949577315 38.02093253689516 L55.5766018462886 39.5475789884399 L55.09614263285201 40.54446816007856 L55.02221579858891 41.24165188208829 L55.45010871666198 42.33039253242872 L56.174782377595896 43.53316060210313 L56.51457082440723 45.14218155147184 L57.04837636370125 47.08828160793982 L57.09492590543737 49.21982787404509 L57.03364463956621 51.49049356183861 L56.848326924542974 53.90509739943021 L56.704719600195254 56.59690983086725 L56.175427733890196 59.11913225416912 L55.67283772279134 61.89288682237275 L54.91246130727023 64.457804692781 L53.932253281904906 66.80851929313408 L52.98273917978428 68.47577728994933 L52.39178280302004 69.47476440292031 L52.45366656528737 70.2699058401818 L53.31116181154386 71.8822155500692 L54.2147465890231 74.167101052972"/>
    <path d="M 51.698584596003016 41.07406239342307 L51.69508522377181 41.07703585941201 L51.5639960922998 41.07258944030035 L52.28560892553318 40.80377654830719 L55.09614263285201 40.54446816007856 L58.01918519925232 40.04438328071514 L60.860841463656314 39.74115772566475 L63.906807226610276 39.513140826344646 L66.80455426331096 39.360740888096494 L69.95367223308384 39.002595700858514 L72.94999302326062 38.608114868038065 L75.01497991655675 38.59273086008881 L74.9248346938347 38.449183335801024 L74.85534764813082 38.6209755735292 L74.95496674250093 38.64457502033722 L74.84764639667334 38.48575909237995 L77.58731942629039 38.23590916943088 L80.76996014143832 38.07702421676476 L84.01629344549302 37.73792587616271 L87.45722035668213 37.53158030614786 L90.69748066306893 37.26037687348063 L93.86123083749818 37.14488434591739 L97.37548227329184 37.01112091470132 L100.55319254233882 36.8476235219253"/>
    <path d="M 60.38934401051343 32.06392019234944 L59.81894779346567 34.11808602260872 L59.50417824811642 35.86727044949581 L58.779024489088926 37.46345520384248 L58.27861930792446 38.83925162712441 L58.01918519925232 40.04438328071514 L57.83064961520093 41.20654624957644 L58.202465838886546 42.418127917966544 L58.509819890139845 43.71338398437676 L58.820508895849734 45.2571751525242 L58.98512778727033 47.22993469132039 L59.02963671078601 49.046779440373996 L58.89765982721803 51.390799784610316 L58.72673412116395 53.6439174787528 L58.50737516418991 56.30028663090947 L58.01059304865969 58.752101217790674 L57.480179333382445 61.41492546658024 L56.60237949247532 63.92452942888893 L55.84312306145126 66.14333739453583 L55.2022175422369 67.80266930387126 L54.89209701284721 69.27157161536384 L55.035516185077384 70.65854380438277 L55.5313669403461 72.57166907924879 L56.17983688539379 74.66130111106195"/>
    <path d="M 51.57693094075082 40.91595950804557 L51.729605691913626 40.977169975975514 L51.71234918795081 40.9396985175584 L52.439271032842456 41.169718629443125 L55.02221579858891 41.24165188208829 L57.83064961520093 41.20654624957644 L60.75156854230676 41.19926205760619 L63.73440494358081 40.919382864817024 L66.75082814792378 40.480522943991836 L69.64538159934685 39.88447523116204 L72.7430944772889 39.22524278220359 L75.02465944497415 38.541437452433414 L74.837179832324 38.59708589378129 L75.02482889716931 38.55429991280328 L74.94492243102819 38.64717048470226 L74.83802028799286 38.54970103098645 L77.80941563944305 39.19244235906329 L80.80956238180433 39.31673469286692 L83.98227056004404 39.34760884147955 L87.4133733066236 39.31186669374783 L90.67880539415565 39.282426403433156 L93.92696107900314 39.26094473981937 L97.11226435491596 39.05048839977791 L100.5368116645369 39.089356951014025"/>
    <path d="M 62.62427593678816 31.819129589046746 L62.18870544359316 33.79921626445861 L61.87722177458744 35.4710810829896 L61.618085286817035 37.085868790716965 L61.24018210053578 38.51969924310231 L60.860841463656314 39.74115772566475 L60.75156854230676 41.19926205760619 L60.827033387705576 42.289529642202595 L60.87527969438013 43.75378758645157 L61.071322026064095 45.23259995432099 L61.10168351425147 47.11581224297109 L61.06834204327979 49.07679533081481 L61.05765082711362 51.202341234779645 L60.722602505613786 53.57941413003243 L60.22645929262297 55.91620150588946 L59.80399582416583 58.38617207853335 L59.25947168392376 61.05285748208993 L58.801970331755015 63.325798763722545 L58.114263767076324 65.50373171769306 L57.70020841231183 67.56846719150478 L57.43699564276592 69.25779451506878 L57.55961252091344 71.01208795617389 L57.88939278019779 72.87330510200128 L58.5475103880276 75.17827055045282"/>
    <path d="M 51.718284258044164 40.948647309834406 L51.55702616989151 40.9333043190443 L51.548095841345024 40.94511200299707 L53.03803714417104 41.59767140370706 L55.45010871666198 42.33039253242872 L58.202465838886546 42.418127917966544 L60.827033387705576 42.289529642202595 L63.730118180588356 42.13343058069119 L66.41092703775966 41.784958424818065 L69.45876164278688 41.08482995125111 L72.23674503494729 40.22871332158563 L74.49267509171032 38.96187770954844 L74.87581992788188 38.636276682767594 L74.91205274333798 38.64834678765963 L74.989721609776 38.47298667717141 L75.83321832603028 39.34816816563879 L78.4087107379004 40.08746206255917 L81.17948156331958 40.5777050953893 L84.16541189789342 40.92297255044145 L87.39717435457601 40.99722321237419 L90.56845390487753 41.2415215383174 L93.87084742152518 41.29580327012485 L97.29671043108564 41.15589200787802 L100.6389027336817 41.200694380167306"/>
    <path d="M 64.76744663439 31.75838535291275 L64.7736657763783 33.59895600066915 L64.6250178910289 35.315585352549256 L64.20196197719676 36.80382999927296 L64.04200881646852 38.33953141347916 L63.906807226610276 39.513140826344646 L63.73440494358081 40.919382864817024 L63.730118180588356 42.13343058069119 L63.71361671711188 43.5298654405079 L63.62429275200638 44.9888350100077 L63.39192572757766 46.849017782165 L63.287141828496054 48.63317492562623 L63.0783663697847 50.96200551058066 L62.80127097502378 53.19073310993214 L62.20927373642209 55.63315685264815 L61.887587859089514 58.02119962194464 L61.30699478198619 60.67429091021968 L60.823486884962215 63.090285667408516 L60.452262445997626 65.33053101481708 L60.08593050311685 67.25640231397016 L59.77382142748742 69.32118217166068 L60.05832888129402 71.19458868364019 L60.35400343718661 73.47248702439347 L60.84560802231213 75.6250102248194"/>
    <path d="M 51.731309758767054 41.01190970988718 L51.58796658515086 41.11606386380133 L52.39236872007145 42.1113769882216 L53.97255448610734 43.02249758205288 L56.174782377595896 43.53316060210313 L58.509819890139845 43.71338398437676 L60.87527969438013 43.75378758645157 L63.71361671711188 43.5298654405079 L66.29242279309771 43.191190738364824 L68.93556739684905 42.32986521015439 L71.36978803334627 41.46677951763418 L73.41621280021535 40.415530030038575 L74.73727685822388 39.225476932767215 L75.00201731904494 38.89498492617477 L75.3791566372823 39.827059029163166 L76.82555496583642 40.71212395984098 L79.0024263043642 41.58719921041059 L81.59421395044545 42.343543754188104 L84.55502185198898 42.788577125565475 L87.54207270189534 42.972787952277976 L90.89877427021285 43.14292915253888 L93.92307123158206 43.282562912431594 L97.35357484237132 43.43667360679221 L100.63795669488252 43.32424457145009"/>
    <path d="M 67.07882932444429 31.786080501691508 L67.15481920709374 33.638909688392964 L67.08482292133395 35.42357000900115 L67.0075498060638 36.833055632396 L67.05443389547068 38.082965326028074 L66.80455426331096 39.360740888096494 L66.75082814792378 40.480522943991836 L66.41092703775966 41.784958424818065 L66.29242279309771 43.191190738364824 L66.12151646953009 44.53562320034746 L65.72804372073043 46.31715481309116 L65.43297739461548 48.26265797123707 L65.03265459505859 50.50596636347554 L64.67331158397823 52.93035604101972 L64.4457921958617 55.32173584638957 L64.02615197921092 57.80320470740783 L63.578039111249545 60.229859086022344 L63.04401943366287 62.608567175776656 L62.74209614761872 65.1033799477147 L62.57183223886096 67.19847820651512 L62.35460069239557 69.41317541659136 L62.59368213222268 71.39112462745251 L62.77882965394013 73.79888294505007 L63.26169388997773 76.04269765181212"/>
    <path d="M 51.55287142926355 43.31132774044823 L52.09288407924545 43.489015575471576 L53.13594510266409 44.08814217140984 L54.78664704504187 44.586555628040166 L56.51457082440723 45.14218155147184 L58.820508895849734 45.2571751525242 L61.071322026064095 45.23259995432099 L63.62429275200638 44.9888350100077 L66.12151646953009 44.53562320034746 L68.62014700650496 43.934566164210246 L70.88145256461775 43.21545594618684 L72.558876799116 42.383415642147256 L74.03154432238782 41.61257215484634 L74.95916234355816 41.630307571634724 L75.89998642687604 41.97422077432337 L77.63717121532225 42.82789001757436 L79.56332867806911 43.578896695472125 L82.23584465167154 44.06445251934178 L84.91157885554139 44.67857395003377 L87.85008304008764 44.9700528826908 L91.01264614739657 45.294948381539506 L94.27943792372258 45.46442694352229 L97.4172210898011 45.64244913295185 L100.61886162261203 45.67844690241007"/>
    <path d="M 69.39521689649101 32.120198315506194 L69.40446127608 33.985878102789215 L69.65614247529643 35.497918358965634 L69.81727896880331 36.98422350728726 L69.95665046629087 37.89416425985641 L69.95367223308384 39.002595700858514 L69.64538159934685 39.88447523116204 L69.45876164278688 41.08482995125111 L68.93556739684905 42.32986521015439 L68.62014700650496 43.934566164210246 L68.10257648233127 45.91268872467803 L67.53803587798636 47.91703615667907 L67.1304979497928 50.07677538281922 L66.76440408671269 52.4532323576524 L66.38956265416248 55.13298390333751 L65.94322877028843 57.49640499014458 L65.57095344303033 60.06636744484538 L65.33814589884027 62.385371053064425 L65.17984231093187 64.80607015907582 L64.95049765986737 67.03475607576277 L64.85101751845919 69.32905465346094 L65.15048163079295 71.58697291515945 L65.47827651977818 74.04985121410857 L65.86865051271623 76.48047852317872"/>
    <path d="M 51.250836250616025 46.17630134811243 L52.49591701481414 46.11233647223824 L53.63626110086661 46.287405380845286 L55.29010925497012 46.75284131049526 L57.04837636370125 47.08828160793982 L58.98512778727033 47.22993469132039 L61.10168351425147 47.11581224297109 L63.39192572757766 46.849017782165 L65.72804372073043 46.31715481309116 L68.10257648233127 45.91268872467803 L70.20982300013843 45.272970611721455 L71.89017347093932 44.600099984031736 L73.40691354892802 44.251711384759965 L74.73440213378187 44.19535904126372 L76.30038028231112 44.63657315621055 L78.04545658672889 45.19197972745894 L80.15264913286325 45.59722404579379 L82.59176243588824 46.161015646493595 L85.49310074721525 46.6547440585782 L88.19456940545311 47.035061289029805 L91.34397650904462 47.235816752518716 L94.350729621976 47.572853645695375 L97.5641001390991 47.723214889038246 L100.79162586554014 47.934024320211535"/>
    <path d="M 71.26570174218358 32.25032159259797 L71.62657860098163 34.513766379740865 L72.05372989259739 36.19870933801286 L72.40507372656307 37.399657223313724 L72.94327132137923 38.095533411025585 L72.94999302326062 38.608114868038065 L72.7430944772889 39.22524278220359 L72.23674503494729 40.22871332158563 L71.36978803334627 41.46677951763418 L70.88145256461775 43.21545594618684 L70.20982300013843 45.272970611721455 L69.55324459126629 47.427189472398155 L69.21358963941748 49.68917336796631 L68.90942866149412 52.25189113053525 L68.56520246507553 54.81732004260419 L68.13085691454094 57.45267697517672 L67.94163289834167 59.80035864437275 L67.68828796467075 62.438873307460256 L67.58697428166593 64.77025030255389 L67.3376608154804 67.18091661034896 L67.47885897861744 69.38676125834061 L67.5723681231029 71.82962717887918 L68.05835971269781 74.32826716638763 L68.29017684828426 76.97266044159875"/>
    <path d="M 51.15113263456476 48.803201364955925 L52.3097655963317 48.80603962567907 L53.86291319446231 48.96717714594177 L55.4984399421786 49.01687308971888 L57.09492590543737 49.21982787404509 L59.02963671078601 49.046779440373996 L61.06834204327979 49.07679533081481 L63.287141828496054 48.63317492562623 L65.43297739461548 48.26265797123707 L67.53803587798636 47.91703615667907 L69.55324459126629 47.427189472398155 L71.5191347234013 46.90563817402313 L73.16019282392139 46.881202583469495 L74.747022691997 46.902350222961914 L76.59672140546823 47.034441564190075 L78.51314038607444 47.57268639964961 L80.6798161339334 47.87807963936385 L83.20969477845229 48.391956734227726 L85.85970987392771 48.94763185910814 L88.696080643333 49.327840371372275 L91.74583102685266 49.53944084567656 L94.79349457938484 49.75483425194704 L97.82344365100913 49.99822270557441 L101.00836770452834 50.25461355656691"/>
    <path d="M 73.04902609849995 32.54925041460705 L73.17074218890957 34.996686647724374 L73.75961116897466 37.02172418716404 L74.59519687160031 38.39547954913181 L74.91033091094948 38.64810743625376 L75.01497991655675 38.59273086008881 L75.02465944497415 38.541437452433414 L74.49267509171032 38.96187770954844 L73.41621280021535 40.415530030038575 L72.558876799116 42.383415642147256 L71.89017347093932 44.600099984031736 L71.5191347234013 46.90563817402313 L71.00257856739358 49.517532291809594 L70.76075107704315 51.98541274688736 L70.51392255565611 54.76381732084483 L70.25541041062841 57.14800684762703 L70.06058524413612 59.86573709593618 L69.94015520150272 62.37759655732997 L69.8256550877519 64.79234490276758 L69.94746946690807 67.28828970272734 L69.95231393053706 69.6042465871269 L70.16449832008375 72.08402086788455 L70.5303287917607 74.71211406901706 L70.96471087363925 77.32940825240982"/>
    <path d="M 50.93420778610733 51.67804461869651 L52.30620979048084 51.43622380774329 L53.71919003281507 51.554793598703 L55.391901207000195 51.585983910183 L57.03364463956621 51.49049356183861 L58.89765982721803 51.390799784610316 L61.05765082711362 51.202341234779645 L63.0783663697847 50.96200551058066 L65.03265459505859 50.50596636347554 L67.1304979497928 50.07677538281922 L69.21358963941748 49.68917336796631 L71.00257856739358 49.517532291809594 L72.99364355179729 49.46642651518817 L74.74054798591665 49.53735710463969 L76.56839566393326 49.66533692948675 L78.82683391370759 49.919385192726 L80.94186230338272 50.41078093489976 L83.45028788403201 50.84003538256909 L86.16729432842355 51.2572304018834 L89.12593680215882 51.55904421874483 L91.98741810918229 51.754641461108314 L94.98358372074637 52.236121874210056 L98.09389976575358 52.48960793544542 L101.37938898772362 52.75665346641744"/>
    <path d="M 74.36046246660294 32.64376394148311 L74.49832502458516 35.25427000632059 L74.65064697603815 37.83869563708886 L74.8636911336371 38.6282157840175 L74.8981170870937 38.64551323338948 L74.9248346938347 38.449183335801024 L74.837179832324 38.59708589378129 L74.87581992788188 38.636276682767594 L74.73727685822388 39.225476932767215 L74.03154432238782 41.61257215484634 L73.40691354892802 44.251711384759965 L73.16019282392139 46.881202583469495 L72.99364355179729 49.46642651518817 L72.68047009148628 51.92730474576866 L72.66139857828486 54.54135528156328 L72.53847057891538 57.28484852322455 L72.48970370315513 59.80489537880014 L72.41516142700819 62.216890342330636 L72.32296981563296 64.88679362705444 L72.38079260504303 67.33500381027471 L72.70684752699009 69.72221179740468 L72.91489052206582 72.42860373451563 L73.14301235486433 74.84125760022067 L73.62442471533163 77.66603957257045"/>
    <path d="M 50.62522176857526 54.65564407277513 L52.06511740829542 54.46384615523969 L53.5899745126678 54.1311497507669 L55.141895480235675 54.05281004398559 L56.848326924542974 53.90509739943021 L58.72673412116395 53.6439174787528 L60.722602505613786 53.57941413003243 L62.80127097502378 53.19073310993214 L64.67331158397823 52.93035604101972 L66.76440408671269 52.4532323576524 L68.90942866149412 52.25189113053525 L70.76075107704315 51.98541274688736 L72.68047009148628 51.92730474576866 L74.6730185248794 52.1443445311642 L76.88576407597039 52.27218015453555 L79.09471984163514 52.509631422032825 L81.40503826901433 52.91902777195619 L83.80341999787417 53.134191014601114 L86.62175690202346 53.632931524857206 L89.36731097340488 53.79763981361264 L92.23579527520776 54.245414152446756 L95.45260439893906 54.57391486710346 L98.43364747684426 54.91416231693042 L101.72720939903931 55.08662172170469"/>
    <path d="M 75.72771792097643 32.389874806090695 L75.39546378765127 35.12335054616255 L75.1082409297971 37.97646854067273 L75.02104735112759 38.576881607863996 L74.8496950123113 38.61502548647646 L74.85534764813082 38.6209755735292 L75.02482889716931 38.55429991280328 L74.91205274333798 38.64834678765963 L75.00201731904494 38.89498492617477 L74.95916234355816 41.630307571634724 L74.73440213378187 44.19535904126372 L74.747022691997 46.902350222961914 L74.74054798591665 49.53735710463969 L74.6730185248794 52.1443445311642 L74.7694672424226 54.58980973763209 L74.78943693002462 57.20473479966719 L74.80631267379778 59.8967001275206 L74.87964466971887 62.34599068089819 L74.8469285999637 65.01230021792057 L75.01684284096801 67.55362152667412 L75.36732210282265 70.01907781452836 L75.53103312977241 72.4956582165496 L75.77932860794745 75.21281007392376 L76.1609077195248 77.9636145479897"/>
    <path d="M 50.28204998113431 57.522577222088955 L51.801804193586065 57.19112285749382 L53.28494570885195 56.97504729218248 L54.86259470307384 56.73751544884267 L56.704719600195254 56.59690983086725 L58.50737516418991 56.30028663090947 L60.22645929262297 55.91620150588946 L62.20927373642209 55.63315685264815 L64.4457921958617 55.32173584638957 L66.38956265416248 55.13298390333751 L68.56520246507553 54.81732004260419 L70.51392255565611 54.76381732084483 L72.66139857828486 54.54135528156328 L74.7694672424226 54.58980973763209 L76.96763862656425 54.895317396396145 L79.17064529722607 55.13953879721806 L81.56617150935352 55.38798428131581 L84.2877162151015 55.73096395843091 L87.0119517424278 55.92572912780497 L89.79945327799427 56.41459477185977 L92.69817072062997 56.55384090553553 L95.59876267821302 56.98683846608993 L98.7001889727662 57.328391181512856 L101.8255465317019 57.53191091168591"/>
    <path d="M 77.3917971961979 31.91928810523255 L76.52765934053411 34.51365981015699 L75.63740721514873 36.96407370009237 L75.02017451832207 38.57974750725114 L74.93135878922482 38.4493881973956 L74.95496674250093 38.64457502033722 L74.94492243102819 38.64717048470226 L74.989721609776 38.47298667717141 L75.3791566372823 39.827059029163166 L75.89998642687604 41.97422077432337 L76.30038028231112 44.63657315621055 L76.59672140546823 47.034441564190075 L76.56839566393326 49.66533692948675 L76.88576407597039 52.27218015453555 L76.96763862656425 54.895317396396145 L76.94378207037369 57.471358253546285 L77.05888934065295 59.899143232690186 L77.17411465672569 62.54167412606221 L77.54100502819323 65.13430869016064 L77.71457924144016 67.57619127428717 L77.85368074205198 70.1892222351147 L78.16134213230288 72.81360574145243 L78.65357945028978 75.4768636074169 L78.89022872529992 78.34067245297926"/>
    <path d="M 50.287633040860406 60.51852981019814 L51.65010140661431 60.26784027145231 L52.878601474244 59.96775274931545 L54.60353375188852 59.62728200330314 L56.175427733890196 59.11913225416912 L58.01059304865969 58.752101217790674 L59.80399582416583 58.38617207853335 L61.887587859089514 58.02119962194464 L64.02615197921092 57.80320470740783 L65.94322877028843 57.49640499014458 L68.13085691454094 57.45267697517672 L70.25541041062841 57.14800684762703 L72.53847057891538 57.28484852322455 L74.78943693002462 57.20473479966719 L76.94378207037369 57.471358253546285 L79.44891634732856 57.511016678598224 L81.82215996449268 57.85781240282151 L84.63746163668178 58.12193232997973 L87.23396580337291 58.3894185892222 L90.14334716308798 58.90231926430023 L93.06397905237668 59.03846005977961 L96.03378562184953 59.55653657098994 L99.11600149051753 59.66795160583937 L102.33031056715512 60.030996411780606"/>
    <path d="M 79.24822225115352 30.86455848873164 L78.36217350559835 33.36756277136393 L77.34462483267768 35.60946049727462 L76.22469787970383 37.39415062408151 L75.06985414244303 38.586178044798906 L74.84764639667334 38.48575909237995 L74.83802028799286 38.54970103098645 L75.83321832603028 39.34816816563879 L76.82555496583642 40.71212395984098 L77.63717121532225 42.82789001757436 L78.04545658672889 45.19197972745894 L78.51314038607444 47.57268639964961 L78.82683391370759 49.919385192726 L79.09471984163514 52.509631422032825 L79.17064529722607 55.13953879721806 L79.44891634732856 57.511016678598224 L79.51464698420112 60.17355925760591 L79.8648714850367 62.64186265342672 L80.16634029768916 65.30607856599545 L80.43335755581228 67.90887977796055 L80.69288047471862 70.6093449031712 L80.98142418426285 73.0856348452754 L81.22986187241422 75.89538568979185 L81.79140411960022 78.69930088612654"/>
    <path d="M 50.05409960886428 63.4850633274664 L51.29182367675922 63.24912174631571 L52.48686245660501 62.99160860081182 L53.953578278356105 62.303371920726796 L55.67283772279134 61.89288682237275 L57.480179333382445 61.41492546658024 L59.25947168392376 61.05285748208993 L61.30699478198619 60.67429091021968 L63.578039111249545 60.229859086022344 L65.57095344303033 60.06636744484538 L67.94163289834167 59.80035864437275 L70.06058524413612 59.86573709593618 L72.48970370315513 59.80489537880014 L74.80631267379778 59.8967001275206 L77.05888934065295 59.899143232690186 L79.51464698420112 60.17355925760591 L82.16533852351725 60.31793630760296 L84.93071828642464 60.63293342232809 L87.60906069825278 61.11071797521873 L90.42417078261767 61.244873946060636 L93.29474118866605 61.660745635551876 L96.48738957124186 62.022419852171666 L99.51403231219685 62.38899758775981 L102.46646564120769 62.645914733213765"/>
    <path d="M 81.38425038517845 30.068846790900768 L80.65449578472227 32.29739049401031 L79.74977899139591 34.39961260246818 L78.86170138908925 36.144932108448124 L77.96616742544553 37.53192215877463 L77.58731942629039 38.23590916943088 L77.80941563944305 39.19244235906329 L78.4087107379004 40.08746206255917 L79.0024263043642 41.58719921041059 L79.56332867806911 43.578896695472125 L80.15264913286325 45.59722404579379 L80.6798161339334 47.87807963936385 L80.94186230338272 50.41078093489976 L81.40503826901433 52.91902777195619 L81.56617150935352 55.38798428131581 L81.82215996449268 57.85781240282151 L82.16533852351725 60.31793630760296 L82.47631872471611 62.88599374066088 L82.82645050189069 65.63476901374504 L83.12902819380646 68.25230377051396 L83.48294584208253 70.82352656668233 L83.65220344608855 73.45439883563344 L84.01356303314512 76.24332836516875 L84.6034220291369 78.97169957378955"/>
    <path d="M 50.05773517723804 66.59558682936343 L50.71098115570905 66.43765289178774 L51.880143954493896 65.89115966442061 L53.08793012457907 65.19161059208025 L54.91246130727023 64.457804692781 L56.60237949247532 63.92452942888893 L58.801970331755015 63.325798763722545 L60.823486884962215 63.090285667408516 L63.04401943366287 62.608567175776656 L65.33814589884027 62.385371053064425 L67.68828796467075 62.438873307460256 L69.94015520150272 62.37759655732997 L72.41516142700819 62.216890342330636 L74.87964466971887 62.34599068089819 L77.17411465672569 62.54167412606221 L79.8648714850367 62.64186265342672 L82.47631872471611 62.88599374066088 L85.1382796659239 63.17502878831141 L87.86957125486691 63.62244650980697 L90.85342042643205 63.808427518400585 L93.67305885709533 64.29257681952394 L96.75763980600622 64.6677981229658 L99.8425632080912 64.98755477677625 L103.00063062408414 65.23150060511612"/>
    <path d="M 83.93695746560141 29.039145157843695 L83.26843804342985 31.494822216563843 L82.33557772586519 33.43217181260408 L81.60717678583686 35.28139855343756 L81.08641174689619 36.831638415777384 L80.76996014143832 38.07702421676476 L80.80956238180433 39.31673469286692 L81.17948156331958 40.5777050953893 L81.59421395044545 42.343543754188104 L82.23584465167154 44.06445251934178 L82.59176243588824 46.161015646493595 L83.20969477845229 48.391956734227726 L83.45028788403201 50.84003538256909 L83.80341999787417 53.134191014601114 L84.2877162151015 55.73096395843091 L84.63746163668178 58.12193232997973 L84.93071828642464 60.63293342232809 L85.1382796659239 63.17502878831141 L85.39353440059641 65.86533386752866 L85.81987386862349 68.59102226953843 L86.21441243708756 71.24473741703608 L86.61101050975103 73.92603402132481 L87.02826222936496 76.62181432736782 L87.2917080347367 79.45404256593767"/>
    <path d="M 50.13104546984322 69.55419889533104 L50.14415000674021 69.54238151651862 L50.81462008648061 68.65737718378205 L52.005985702306845 67.56043290500686 L53.932253281904906 66.80851929313408 L55.84312306145126 66.14333739453583 L58.114263767076324 65.50373171769306 L60.452262445997626 65.33053101481708 L62.74209614761872 65.1033799477147 L65.17984231093187 64.80607015907582 L67.58697428166593 64.77025030255389 L69.8256550877519 64.79234490276758 L72.32296981563296 64.88679362705444 L74.8469285999637 65.01230021792057 L77.54100502819323 65.13430869016064 L80.16634029768916 65.30607856599545 L82.82645050189069 65.63476901374504 L85.39353440059641 65.86533386752866 L88.34448319105344 66.27273436258139 L91.18182524456748 66.6097112189988 L94.02830228918354 66.88422624701622 L97.20791457052492 67.14930148695196 L100.09193095771388 67.44867369724673 L103.34521370520925 67.82156483430218"/>
    <path d="M 86.64790398272855 28.317074773817488 L85.99869183326277 30.644389475731042 L85.38545102024446 32.540154417663864 L84.80694788410521 34.62049057632919 L84.26631270613824 36.154612626738135 L84.01629344549302 37.73792587616271 L83.98227056004404 39.34760884147955 L84.16541189789342 40.92297255044145 L84.55502185198898 42.788577125565475 L84.91157885554139 44.67857395003377 L85.49310074721525 46.6547440585782 L85.85970987392771 48.94763185910814 L86.16729432842355 51.2572304018834 L86.62175690202346 53.632931524857206 L87.0119517424278 55.92572912780497 L87.23396580337291 58.3894185892222 L87.60906069825278 61.11071797521873 L87.86957125486691 63.62244650980697 L88.34448319105344 66.27273436258139 L88.71057577762895 68.72799657513188 L89.11873693572177 71.5328592540688 L89.48320512635446 74.12721741562012 L89.829757634803 76.84853473949308 L90.12430399827782 79.67244896524737"/>
    <path d="M 50.20006043776239 69.61431338208659 L50.20654135685102 69.4187370435894 L50.12621161809379 69.53834349162163 L50.73766341987597 69.31442970066925 L52.98273917978428 68.47577728994933 L55.2022175422369 67.80266930387126 L57.70020841231183 67.56846719150478 L60.08593050311685 67.25640231397016 L62.57183223886096 67.19847820651512 L64.95049765986737 67.03475607576277 L67.3376608154804 67.18091661034896 L69.94746946690807 67.28828970272734 L72.38079260504303 67.33500381027471 L75.01684284096801 67.55362152667412 L77.71457924144016 67.57619127428717 L80.43335755581228 67.90887977796055 L83.12902819380646 68.25230377051396 L85.81987386862349 68.59102226953843 L88.71057577762895 68.72799657513188 L91.51138630304443 69.24450008275038 L94.43984351484085 69.41264508125455 L97.539468041188 69.92785220712946 L100.62236681400316 70.16256984639686 L103.66154980892189 70.44192668701376"/>
    <path d="M 89.7300691637595 27.565379075733333 L89.10272738398002 29.762858397651335 L88.36739764473326 31.882170892562648 L88.00345093745207 34.01850032451815 L87.60650376452176 35.695866271401314 L87.45722035668213 37.53158030614786 L87.4133733066236 39.31186669374783 L87.39717435457601 40.99722321237419 L87.54207270189534 42.972787952277976 L87.85008304008764 44.9700528826908 L88.19456940545311 47.035061289029805 L88.696080643333 49.327840371372275 L89.12593680215882 51.55904421874483 L89.36731097340488 53.79763981361264 L89.79945327799427 56.41459477185977 L90.14334716308798 58.90231926430023 L90.42417078261767 61.244873946060636 L90.85342042643205 63.808427518400585 L91.18182524456748 66.6097112189988 L91.51138630304443 69.24450008275038 L91.86158117609239 71.90814360872737 L92.26758977946581 74.46306046224221 L92.78228751178575 77.37646450989115 L93.06996167717416 80.20222149410755"/>
    <path d="M 50.16348937582505 69.59685982213328 L50.2565850449939 69.4226836848738 L50.2487276498979 69.61409203184071 L50.3098014116776 69.46592572889612 L52.39178280302004 69.47476440292031 L54.89209701284721 69.27157161536384 L57.43699564276592 69.25779451506878 L59.77382142748742 69.32118217166068 L62.35460069239557 69.41317541659136 L64.85101751845919 69.32905465346094 L67.47885897861744 69.38676125834061 L69.95231393053706 69.6042465871269 L72.70684752699009 69.72221179740468 L75.36732210282265 70.01907781452836 L77.85368074205198 70.1892222351147 L80.69288047471862 70.6093449031712 L83.48294584208253 70.82352656668233 L86.21441243708756 71.24473741703608 L89.11873693572177 71.5328592540688 L91.86158117609239 71.90814360872737 L94.86434777539107 72.28499414790926 L97.80165553076975 72.61684405751046 L100.97500709252806 72.82629321134564 L104.00109724273887 73.33206515120023"/>
    <path d="M 92.71531515998119 26.92958521177449 L92.11700006607394 29.07467343615765 L91.52392872271089 31.4352614169194 L91.2646887615347 33.47166146694592 L90.74993909102483 35.43977913794522 L90.69748066306893 37.26037687348063 L90.67880539415565 39.282426403433156 L90.56845390487753 41.2415215383174 L90.89877427021285 43.14292915253888 L91.01264614739657 45.294948381539506 L91.34397650904462 47.235816752518716 L91.74583102685266 49.53944084567656 L91.98741810918229 51.754641461108314 L92.23579527520776 54.245414152446756 L92.69817072062997 56.55384090553553 L93.06397905237668 59.03846005977961 L93.29474118866605 61.660745635551876 L93.67305885709533 64.29257681952394 L94.02830228918354 66.88422624701622 L94.43984351484085 69.41264508125455 L94.86434777539107 72.28499414790926 L95.33184361544818 74.9820527590283 L95.61929128107866 77.58431651198089 L96.077689919015 80.58025458476556"/>
    <path d="M 50.32146717463763 69.53936730794858 L50.32359919658872 69.52561282448141 L50.3061552223583 69.460264179013 L50.2135721650527 69.56730963147726 L52.45366656528737 70.2699058401818 L55.035516185077384 70.65854380438277 L57.55961252091344 71.01208795617389 L60.05832888129402 71.19458868364019 L62.59368213222268 71.39112462745251 L65.15048163079295 71.58697291515945 L67.5723681231029 71.82962717887918 L70.16449832008375 72.08402086788455 L72.91489052206582 72.42860373451563 L75.53103312977241 72.4956582165496 L78.16134213230288 72.81360574145243 L80.98142418426285 73.0856348452754 L83.65220344608855 73.45439883563344 L86.61101050975103 73.92603402132481 L89.48320512635446 74.12721741562012 L92.26758977946581 74.46306046224221 L95.33184361544818 74.9820527590283 L98.32701594127026 75.21077077261137 L101.33993479710412 75.5533504811165 L104.30212484096846 75.89239456304576"/>
    <path d="M 95.80564056594973 26.327614395986814 L95.31740507434695 28.54765077734351 L94.70676213759815 30.89818508981429 L94.44676706484849 32.91955421197483 L94.06997778603034 35.174240697684745 L93.86123083749818 37.14488434591739 L93.92696107900314 39.26094473981937 L93.87084742152518 41.29580327012485 L93.92307123158206 43.282562912431594 L94.27943792372258 45.46442694352229 L94.350729621976 47.572853645695375 L94.79349457938484 49.75483425194704 L94.98358372074637 52.236121874210056 L95.45260439893906 54.57391486710346 L95.59876267821302 56.98683846608993 L96.03378562184953 59.55653657098994 L96.48738957124186 62.022419852171666 L96.75763980600622 64.6677981229658 L97.20791457052492 67.14930148695196 L97.539468041188 69.92785220712946 L97.80165553076975 72.61684405751046 L98.32701594127026 75.21077077261137 L98.71476214476658 77.98056718724746 L99.12834321839067 80.88425458194442"/>
    <path d="M 50.12390005652931 69.8935119704054 L50.17729007632767 69.60565492699176 L50.48631754424695 69.89698099209687 L51.676212009915126 71.0206920493247 L53.31116181154386 71.8822155500692 L55.5313669403461 72.57166907924879 L57.88939278019779 72.87330510200128 L60.35400343718661 73.47248702439347 L62.77882965394013 73.79888294505007 L65.47827651977818 74.04985121410857 L68.05835971269781 74.32826716638763 L70.5303287917607 74.71211406901706 L73.14301235486433 74.84125760022067 L75.77932860794745 75.21281007392376 L78.65357945028978 75.4768636074169 L81.22986187241422 75.89538568979185 L84.01356303314512 76.24332836516875 L87.02826222936496 76.62181432736782 L89.829757634803 76.84853473949308 L92.78228751178575 77.37646450989115 L95.61929128107866 77.58431651198089 L98.71476214476658 77.98056718724746 L101.75398323272032 78.37270438674746 L104.80238048994673 78.71365236177616"/>
    <path d="M 98.9241535916966 25.81595874664302 L98.42099077451105 28.010992769223478 L98.06359848562589 30.315409233345104 L97.81294504783877 32.65273002189663 L97.42319960037639 34.72940015880017 L97.37548227329184 37.01112091470132 L97.11226435491596 39.05048839977791 L97.29671043108564 41.15589200787802 L97.35357484237132 43.43667360679221 L97.4172210898011 45.64244913295185 L97.5641001390991 47.723214889038246 L97.82344365100913 49.99822270557441 L98.09389976575358 52.48960793544542 L98.43364747684426 54.91416231693042 L98.7001889727662 57.328391181512856 L99.11600149051753 59.66795160583937 L99.51403231219685 62.38899758775981 L99.8425632080912 64.98755477677625 L100.09193095771388 67.44867369724673 L100.62236681400316 70.16256984639686 L100.97500709252806 72.82629321134564 L101.33993479710412 75.5533504811165 L101.75398323272032 78.37270438674746 L102.04338832563789 81.32384391273366"/>
    <path d="M 49.38152552405519 73.00388812581159 L50.401593218788676 72.79925344678668 L51.37814936741869 72.98938519003171 L52.60865102311622 73.53909001613854 L54.2147465890231 74.167101052972 L56.17983688539379 74.66130111106195 L58.5475103880276 75.17827055045282 L60.84560802231213 75.6250102248194 L63.26169388997773 76.04269765181212 L65.86865051271623 76.48047852317872 L68.29017684828426 76.97266044159875 L70.96471087363925 77.32940825240982 L73.62442471533163 77.66603957257045 L76.1609077195248 77.9636145479897 L78.89022872529992 78.34067245297926 L81.79140411960022 78.69930088612654 L84.6034220291369 78.97169957378955 L87.2917080347367 79.45404256593767 L90.12430399827782 79.67244896524737 L93.06996167717416 80.20222149410755 L96.077689919015 80.58025458476556 L99.12834321839067 80.88425458194442 L102.04338832563789 81.32384391273366 L104.99779105940517 81.58460259987523"/>
    <path d="M 102.00461063977829 25.169437423794605 L101.59861372562368 27.595858686428397 L101.41785681557484 30.02561224213827 L101.07223406477449 32.40255424463176 L100.7011070988982 34.522976169745256 L100.55319254233882 36.8476235219253 L100.5368116645369 39.089356951014025 L100.6389027336817 41.200694380167306 L100.63795669488252 43.32424457145009 L100.61886162261203 45.67844690241007 L100.79162586554014 47.934024320211535 L101.00836770452834 50.25461355656691 L101.37938898772362 52.75665346641744 L101.72720939903931 55.08662172170469 L101.8255465317019 57.53191091168591 L102.33031056715512 60.030996411780606 L102.46646564120769 62.645914733213765 L103.00063062408414 65.23150060511612 L103.34521370520925 67.82156483430218 L103.66154980892189 70.44192668701376 L104.00109724273887 73.33206515120023 L104.30212484096846 75.89239456304576 L104.80238048994673 78.71365236177616 L104.99779105940517 81.58460259987523"/>
  </g>
  <g style="fill: none; stroke-linecap: round;stroke-linejoin: round; stroke-width: 0.5; stroke: #09f;">
  </g>
  <g style="fill: none; stroke-linecap: round;stroke-linejoin: round; stroke-width: 0.5; stroke: #f09;">
  </g></svg>