<?xml version="1.0" encoding="utf-8"?><svg version="1.1" xmlns="http://www.w3.org/2000/svg" xmlns:xlink="http://www.w3.org/1999/xlink" width="105" height="73" viewbox="0 0 105 73">
  <g style="fill: none; stroke-linecap: round;stroke-linejoin: round; stroke-width: 0.35; stroke: #000;">
    <path d="M 68.86011384613359 51.005964740322256 L70.10205457190952 21.705155623520138 L36.497556736648015 20.500659511402898 L38.37619159502143 53.02638650941654 Z"/>
    <path d="M 68.90479197192218 48.98048230527896 L70.25653374495452 21.981884724031925 L39.21152022475754 20.768803846906017 L40.97980768308841 50.684161051173746 Z"/>
    <path d="M 68.94947009771077 46.95499987023567 L70.41101291799954 22.258613824543712 L41.92548371286708 21.036948182409137 L43.583423771155395 48.341935592930945 Z"/>
    <path d="M 68.99414822349937 44.92951743519237 L70.56549209104455 22.535342925055502 L44.639447200976605 21.305092517912257 L46.187039859222374 45.99971013468815 Z"/>
    <path d="M 69.03882634928796 42.90403500014908 L70.71997126408955 22.81207202556729 L47.35341068908613 21.573236853415377 L48.79065594728935 43.65748467644536 Z"/>
    <path d="M 69.08350447507655 40.87855256510579 L70.87445043713456 23.088801126079076 L50.06737417719567 21.841381188918493 L51.39427203535634 41.315259218202556 Z"/>
    <path d="M 69.12818260086514 38.85307013006249 L71.02892961017957 23.365530226590863 L52.7813376653052 22.109525524421613 L53.997888123423316 38.97303375995976 Z"/>
    <path d="M 69.17286072665374 36.827587695019204 L71.18340878322458 23.64225932710265 L55.49530115341473 22.377669859924733 L56.601504211490294 36.63080830171697 Z"/>
    <path d="M 69.21753885244232 34.80210525997591 L71.33788795626958 23.918988427614437 L58.20926464152426 22.645814195427853 L59.20512029955728 34.288582843474174 Z"/>
    <path d="M 69.26221697823091 32.776622824932616 L71.49236712931459 24.195717528126224 L60.923228129633785 22.913958530930973 L61.80873638762426 31.946357385231376 Z"/>
    <path d="M 69.3068951040195 30.751140389889322 L71.6468463023596 24.472446628638014 L63.63719161774332 23.182102866434093 L64.41235247569124 29.60413192698858 Z"/>
    <path d="M 69.3515732298081 28.72565795484603 L71.80132547540461 24.7491757291498 L66.35115510585285 23.450247201937213 L67.01596856375822 27.261906468745785 Z"/>
    <path d="M 69.39625135559669 26.700175519802734 L71.95580464844961 25.025904829661588 L69.06511859396238 23.718391537440333 L69.61958465182519 24.919681010502988 Z"/>
  </g></svg>