<?xml version="1.0" encoding="utf-8"?><svg version="1.1" xmlns="http://www.w3.org/2000/svg" xmlns:xlink="http://www.w3.org/1999/xlink" width="105" height="73" viewbox="0 0 105 73">
  <g style="fill: none; stroke-linecap: round;stroke-linejoin: round; stroke-width: 0.5; stroke: #000;">
    <path d="M 73.11820630995167 53.88086831156512 L70.67645140816931 15.769366236743325 L35.411256849252275 14.525813519183282 L35.031182336844395 52.96780200727424 Z"/>
    <path d="M 72.54368218330391 54.0116353970905 L70.28869719320329 18.017499298033428 L36.94264262697816 16.89546238590054 L36.572723466659454 53.10523174315026 Z"/>
    <path d="M 71.96915805665614 54.14240248261588 L69.90094297823727 20.265632359323533 L38.47402840470404 19.2651112526178 L38.11426459647452 53.24266147902629 Z"/>
    <path d="M 71.39463393000838 54.273169568141256 L69.51318876327124 22.513765420613638 L40.00541418242993 21.63476011933506 L39.655805726289586 53.38009121490232 Z"/>
    <path d="M 70.82010980336061 54.403936653666634 L69.12543454830522 24.761898481903742 L41.53679996015581 24.00440898605232 L41.197346856104645 53.51752095077835 Z"/>
    <path d="M 70.24558567671285 54.53470373919201 L68.7376803333392 27.010031543193847 L43.0681857378817 26.374057852769575 L42.7388879859197 53.654950686654374 Z"/>
    <path d="M 69.67106155006508 54.66547082471739 L68.34992611837316 29.25816460448395 L44.59957151560758 28.743706719486838 L44.28042911573477 53.7923804225304 Z"/>
    <path d="M 69.09653742341732 54.796237910242766 L67.96217190340714 31.506297665774056 L46.130957293333466 31.113355586204094 L45.821970245549835 53.929810158406426 Z"/>
    <path d="M 68.52201329676956 54.927004995768144 L67.57441768844112 33.75443072706416 L47.662343071059354 33.48300445292136 L47.363511375364894 54.06723989428245 Z"/>
    <path d="M 67.94748917012178 55.05777208129352 L67.1866634734751 36.002563788354266 L49.193728848785234 35.85265331963861 L48.90505250517995 54.204669630158484 Z"/>
    <path d="M 67.37296504347403 55.1885391668189 L66.79890925850907 38.25069684964437 L50.72511462651112 38.22230218635587 L50.44659363499502 54.34209936603451 Z"/>
    <path d="M 66.79844091682625 55.319306252344276 L66.41115504354305 40.498829910934475 L52.256500404237 40.59195105307313 L51.988134764810084 54.479529101910536 Z"/>
    <path d="M 66.22391679017849 55.450073337869654 L66.02340082857702 42.74696297222458 L53.78788618196289 42.96159991979039 L53.52967589462514 54.61695883778656 Z"/>
    <path d="M 65.64939266353073 55.58084042339503 L65.635646613611 44.995096033514685 L55.31927195968878 45.33124878650765 L55.0712170244402 54.75438857366259 Z"/>
    <path d="M 65.07486853688296 55.71160750892041 L65.24789239864498 47.24322909480479 L56.85065773741466 47.70089765322491 L56.61275815425527 54.89181830953862 Z"/>
  </g></svg>